<svg width="50" height="50" viewBox="0 0 50 50" fill="none" xmlns="http://www.w3.org/2000/svg">
<path d="M7.06689 30.2766C5.3846 31.8015 4.34054 33.9278 4.34054 36.2803C4.34054 40.9206 8.40339 44.682 13.415 44.682C14.3895 44.682 15.3279 44.5395 16.2071 44.2763C16.9644 44.0502 17.677 43.7329 18.3324 43.3414C23.9384 39.7605 23.685 30.2452 23.685 30.2452V30.1711C23.6565 28.745 23.485 27.3569 23.1954 26.0163C24.5729 25.545 25.9684 25.1175 27.3573 24.6719C28.1908 27.8975 29.7464 30.8077 31.8336 33.1867C32.4118 33.8451 33.0291 34.4646 33.6835 35.0375C33.7293 35.0774 33.7845 35.104 33.8445 35.1126C33.9922 35.1335 34.1446 35.1449 34.3008 35.1449C35.0953 35.1449 35.8012 34.8627 36.2537 34.4238C36.387 34.2936 36.3746 34.0751 36.2289 33.9582C35.3182 33.2257 34.4771 32.3934 33.7169 31.4756C31.9403 29.3293 30.6095 26.7146 29.8865 23.8168C30.941 23.4358 31.9831 23.0216 32.9996 22.5389C35.5649 21.3218 38.3675 19.7029 39.8697 17.1965C40.3327 16.424 40.7976 15.2716 40.5318 14.3481C40.3441 13.6963 37.6997 14.4146 37.8836 15.0559C38.0931 15.7837 37.8274 16.5172 37.4825 17.2164C36.3251 19.5613 33.7216 21.0368 31.4526 22.1142C30.8686 22.3916 30.2761 22.6472 29.6769 22.8867C29.4645 21.8263 29.3321 20.7328 29.2882 19.6135C29.2778 19.3399 29.2711 19.0653 29.2711 18.7889C29.2711 18.7014 29.273 18.615 29.274 18.5285C29.2759 18.3841 29.2787 18.2406 29.2835 18.0981C29.3073 17.3542 29.3702 16.6217 29.4692 15.9034C29.5835 15.0797 29.7464 14.274 29.9532 13.4892C30.076 13.0027 30.2142 12.5505 30.3628 12.1305C30.5019 11.7239 30.6524 11.3239 30.8153 10.9315C30.8353 10.8906 30.8553 10.8498 30.8734 10.807C31.8126 8.60374 33.6893 7.00662 35.9203 6.67028C36.207 6.62753 36.4994 6.60377 36.7966 6.60377C40.4242 6.60377 43.3648 9.92154 43.3648 14.0146C43.3648 15.7371 42.8438 17.3219 41.9702 18.5798C41.5959 19.1195 41.1567 19.5983 40.6661 20.0031C40.5089 20.1323 40.5156 20.3727 40.6775 20.4962C40.8805 20.6501 41.0786 20.8107 41.272 20.976C44.0136 23.3275 45.7549 26.8381 45.7549 30.7602C45.7549 33.1611 45.1024 35.4071 43.9669 37.3282C43.5335 38.0627 43.0295 38.7505 42.4637 39.3795C40.146 41.9609 36.8014 43.5818 33.0825 43.5818C31.3468 43.5818 29.6931 43.2284 28.187 42.589C27.4469 42.2745 26.7419 41.8916 26.0808 41.4479C26.0475 41.4251 26.0084 41.4118 25.9675 41.4108C25.9408 41.4108 25.9151 41.4099 25.8884 41.4099C25.0072 41.4099 24.2347 41.7576 23.7974 42.2802C23.7108 42.3837 23.7346 42.5414 23.8517 42.6089C25.1092 43.3376 26.4857 43.9105 27.9489 44.2972C29.3578 44.6697 30.8467 44.8692 32.3871 44.8692C37.292 44.8692 41.6787 42.8464 44.608 39.6636C45.2386 38.9786 45.8025 38.2394 46.2884 37.4546C47.6039 35.3311 48.3555 32.8779 48.3555 30.2633C48.3555 26.0524 46.4065 22.2577 43.2886 19.5926C44.9709 18.0677 46.015 15.9414 46.015 13.5899C46.015 8.94958 41.9521 5.18812 36.9405 5.18812C35.966 5.18812 35.0277 5.33064 34.1484 5.59381C33.3911 5.81994 32.6785 6.13727 32.0232 6.52872C26.4171 10.1097 26.6705 19.6249 26.6705 19.6249V19.6991C26.6991 21.109 26.8658 22.481 27.1496 23.8073C25.7684 24.2729 24.3728 24.6985 22.9849 25.1479C22.1475 21.9422 20.5986 19.0511 18.5219 16.6834C17.9437 16.025 17.3264 15.4055 16.672 14.8326C16.6262 14.7927 16.571 14.7661 16.511 14.7576C16.3633 14.7367 16.2109 14.7253 16.0547 14.7253C15.2602 14.7253 14.5543 15.0074 14.1019 15.4464C13.9685 15.5766 13.9809 15.7951 14.1266 15.9119C15.0373 16.6445 15.8785 17.4768 16.6386 18.3946C18.4067 20.5304 19.7327 23.1299 20.4576 26.0125C19.1887 26.4799 17.9399 27.0016 16.732 27.6343C14.2848 28.9151 11.6641 30.6224 10.3724 33.1601C9.94279 34.0038 9.56175 35.1962 9.83801 36.152C10.0257 36.8038 12.671 36.0855 12.4862 35.4442C12.2633 34.6708 12.4815 33.8993 12.7873 33.1601C13.7599 30.8029 16.1023 29.1982 18.279 28.0581C19.0611 27.6486 19.8613 27.2875 20.6729 26.955C20.8882 28.0239 21.0225 29.1269 21.0663 30.2566C21.0768 30.5302 21.0835 30.8048 21.0835 31.0813C21.0835 31.1687 21.0816 31.2552 21.0806 31.3416C21.0787 31.486 21.0759 31.6295 21.0711 31.772C21.0473 32.516 20.9844 33.2485 20.8853 33.9668C20.771 34.7905 20.6081 35.5962 20.4014 36.381C20.2785 36.8674 20.1404 37.3197 19.9918 37.7396C19.8527 38.1463 19.7022 38.5463 19.5393 38.9387C19.5193 38.9795 19.4993 39.0204 19.4812 39.0631C18.5419 41.2664 16.6653 42.8635 14.4343 43.1989C14.1476 43.2417 13.8551 43.2654 13.5589 43.2654C9.93136 43.2654 6.99068 39.9477 6.99068 35.8546C6.99068 34.1321 7.51175 32.5473 8.38529 31.2894C8.75966 30.7497 9.19881 30.2709 9.6894 29.8661C9.84658 29.7369 9.83991 29.4965 9.67797 29.373C9.47507 29.2191 9.27693 29.0585 9.08355 28.8932C6.34196 26.5417 4.6006 23.0311 4.6006 19.109C4.6006 16.7081 5.25314 14.4621 6.38864 12.541C6.82207 11.8065 7.326 11.1187 7.89184 10.4897C10.2095 7.90827 13.5541 6.28739 17.2731 6.28739C19.0087 6.28739 20.6624 6.64083 22.1685 7.28025C22.9087 7.59473 23.6136 7.97763 24.2747 8.42227C24.308 8.44508 24.3471 8.45838 24.3881 8.45933C24.4147 8.45933 24.4404 8.46028 24.4671 8.46028C25.3483 8.46028 26.1208 8.11254 26.5581 7.58903C26.6448 7.48547 26.621 7.32775 26.5038 7.2603C25.2463 6.53157 23.8698 5.95865 22.4066 5.57196C20.9977 5.19952 19.5088 5 17.9685 5C13.0635 5 8.67678 7.02277 5.74753 10.2056C5.11691 10.8906 4.55297 11.6298 4.06714 12.4146C2.7516 14.5381 2 16.9913 2 19.6059C2 23.8168 3.94902 27.6115 7.06594 30.2766H7.06689Z" fill="url(#paint0_linear_76_81)"/>
<defs>
<linearGradient id="paint0_linear_76_81" x1="99.0654" y1="-13.6344" x2="-73.8628" y2="77.1079" gradientUnits="userSpaceOnUse">
<stop stop-color="#FDCD9F"/>
<stop offset="1" stop-color="#C07E4A"/>
</linearGradient>
</defs>
</svg>
