<svg width="160" height="90" viewBox="0 0 160 90" fill="none" xmlns="http://www.w3.org/2000/svg">
<g clip-path="url(#clip0_14_104)">
<path d="M57.7305 88.6238C57.2323 88.904 56.6541 89.0437 55.9968 89.0437C55.2909 89.0437 54.667 88.8537 54.1249 88.4717C53.5829 88.0907 53.1599 87.5606 52.8551 86.8803C52.5512 86.2 52.3979 85.421 52.3979 84.5431C52.3979 83.6652 52.5455 82.964 52.8408 82.3217C53.1361 81.6804 53.5419 81.1787 54.0592 80.8168C54.5765 80.4548 55.1737 80.2742 55.851 80.2742C56.3473 80.2742 56.7722 80.356 57.1304 80.5156L58.2449 82.0832H58.4774L59.4928 80.4624C59.2318 80.26 58.9051 80.0842 58.5136 79.9341C58.122 79.7849 57.7058 79.6662 57.2666 79.5797C56.8265 79.4933 56.3931 79.4496 55.9682 79.4496C55.2528 79.4496 54.5879 79.5873 53.9735 79.8619C53.359 80.1365 52.8199 80.5203 52.3559 81.0125C51.892 81.5046 51.5291 82.0785 51.2681 82.7341C51.0071 83.3906 50.8766 84.0946 50.8766 84.8461C50.8766 85.8789 51.0823 86.773 51.4929 87.5302C51.9044 88.2874 52.4893 88.8708 53.2485 89.2812C54.0078 89.6907 54.9042 89.8959 55.9396 89.8959C56.7236 89.8959 57.4343 89.6955 58.0725 89.2955C58.7108 88.8955 59.2328 88.3283 59.6395 87.5957L59.1318 87.306C58.6965 87.9045 58.2297 88.3435 57.7315 88.6228L57.7305 88.6238Z" fill="url(#paint0_linear_14_104)"/>
<path d="M63.0908 77.4382L66.2106 78.9726L66.3992 78.7693L64.1215 76.2087H64.092L63.0908 77.4097V77.4382Z" fill="url(#paint1_linear_14_104)"/>
<path d="M65.8333 79.6814H63.7157V79.9132L64.5607 80.7075L61.2504 88.5782L60.2921 89.4342V89.666H63.8319V89.4342L62.4507 88.5763L63.1546 86.5696H67.2832L68.1263 88.5801L66.7335 89.4352V89.667H70.5201V89.4352L69.578 88.5829L65.8343 79.6823L65.8333 79.6814ZM63.408 85.8457L65.0341 81.2101L66.9793 85.8457H63.409H63.408Z" fill="url(#paint2_linear_14_104)"/>
<path d="M86.8982 80.7664L88.0442 79.9132V79.6814H86.2019H85.4617H85.0273L82.1171 87.7753L78.6868 79.6814H77.9323H77.236H76.0757V79.9132L77.1759 80.7655L76.4377 88.5801L75.2917 89.4333V89.6651H78.6001V89.4333L77.4541 88.5801L77.8542 81.1379L81.4722 89.6651H81.9799L85.5874 81.1341L86.2314 88.5801L85.0854 89.4333V89.6651H88.712V89.4333L87.566 88.5801L86.8982 80.7664Z" fill="url(#paint3_linear_14_104)"/>
<path d="M95.0078 79.6814H92.8902V79.9132L93.7351 80.7075L90.4248 88.5782L89.4665 89.4342V89.666H93.0064V89.4342L91.6251 88.5763L92.3291 86.5696H96.4577L97.3007 88.5801L95.908 89.4352V89.667H99.6946V89.4352L98.7525 88.5829L95.0087 79.6823L95.0078 79.6814ZM92.5825 85.8457L94.2086 81.2101L96.1538 85.8457H92.5825Z" fill="url(#paint4_linear_14_104)"/>
<path d="M106.251 79.9132L107.542 80.8244V85.4837C107.542 86.7093 107.33 87.6015 106.904 88.1611C106.478 88.7207 105.801 89 104.873 89C103.945 89 103.267 88.7207 102.842 88.1611C102.416 87.6015 102.204 86.7093 102.204 85.4837V80.7664L103.35 79.9123V79.6805H99.6651V79.9123L100.811 80.7664V85.8742C100.811 87.2148 101.147 88.2209 101.82 88.8908C102.491 89.5615 103.5 89.896 104.844 89.896C105.647 89.896 106.329 89.7249 106.89 89.382C107.451 89.0399 107.877 88.5402 108.166 87.8846C108.456 87.229 108.601 86.4281 108.601 85.4827V80.8234L109.747 79.9123V79.6805H106.251V79.9123V79.9132Z" fill="url(#paint5_linear_14_104)"/>
<path d="M142.255 49.8282H141.341L136.173 66.0265L131.003 49.8282H128.868H127.954H126.43V69.7756H128.868V52.6908L134.32 69.7756H134.976H137.369H137.414L142.255 54.6043V69.7756H145.303V49.8282H143.779H142.255Z" fill="url(#paint6_linear_14_104)"/>
<path d="M160 51.5212V49.8282H152.458H149.41V51.5212V58.9558V60.6479V68.0835V69.7756H152.458H160V68.0835H152.458V60.6479H159.409V58.9558H152.458V51.5212H160Z" fill="url(#paint7_linear_14_104)"/>
<path d="M113.658 49.5137C108.304 49.5137 103.965 54.1198 103.965 59.8023C103.965 65.4849 108.305 70.091 113.658 70.091C119.01 70.091 123.35 65.4849 123.35 59.8023C123.35 54.1198 119.01 49.5137 113.658 49.5137ZM113.658 68.5319C110.101 68.5319 107.218 64.6232 107.218 59.8023C107.218 54.9815 110.102 51.0728 113.658 51.0728C117.214 51.0728 120.097 54.9815 120.097 59.8023C120.097 64.6232 117.214 68.5319 113.658 68.5319Z" fill="url(#paint8_linear_14_104)"/>
<path d="M100.884 69.7756V60.8161V58.7876V49.8282H97.8361V58.7876H90.5858V49.8282H87.5375V58.7876V60.8161V69.7756H90.5858V60.8161H97.8361V69.7756H100.884Z" fill="url(#paint9_linear_14_104)"/>
<path d="M24.5161 49.8282H22.1928L16.4267 69.7756H18.75L20.3914 64.0968H27.3778L29.0191 69.7756H32.0674L26.3013 49.8282H24.5142H24.5161ZM20.9782 62.0674L23.8855 52.0105L26.7929 62.0674H20.9791H20.9782Z" fill="url(#paint10_linear_14_104)"/>
<path d="M10.2986 58.7876H3.04834V49.8282H1.52588e-05V58.7876V60.8161V69.7756H3.04834V60.8161H10.2986V69.7756H13.3469V60.8161V58.7876V49.8282H10.2986V58.7876Z" fill="url(#paint11_linear_14_104)"/>
<path d="M79.8376 49.8282H77.5142L73.0503 59.1411L68.5874 49.8282H65.539L71.1641 61.5648V69.7756H74.2125V61.5648L79.8376 49.8282Z" fill="url(#paint12_linear_14_104)"/>
<path d="M41.1543 49.8282H35.1482V69.7756H38.1965V63.5505H41.1543C44.9533 63.5505 48.0331 60.4788 48.0331 56.6898C48.0331 52.9008 44.9533 49.8291 41.1543 49.8291V49.8282ZM39.3815 61.8574H38.1965V51.5203H39.3815C42.4765 51.5203 44.9847 53.602 44.9847 56.6889C44.9847 59.7757 42.4756 61.8574 39.3815 61.8574Z" fill="url(#paint13_linear_14_104)"/>
<path d="M54.1621 63.5505H57.1199C60.9189 63.5505 63.9987 60.4788 63.9987 56.6898C63.9987 52.9008 60.9189 49.8291 57.1199 49.8291H51.1138V69.7766H54.1621V63.5515V63.5505ZM54.1621 51.5213H55.3471C58.4421 51.5213 60.9503 53.6029 60.9503 56.6898C60.9503 59.7767 58.4412 61.8584 55.3471 61.8584H54.1621V51.5213Z" fill="url(#paint14_linear_14_104)"/>
<path d="M61.3618 25.2766C59.6795 26.8015 58.6355 28.9278 58.6355 31.2803C58.6355 35.9206 62.6983 39.682 67.71 39.682C68.6845 39.682 69.6228 39.5395 70.502 39.2763C71.2594 39.0502 71.9719 38.7329 72.6273 38.3414C78.2334 34.7605 77.98 25.2452 77.98 25.2452V25.1711C77.9514 23.745 77.7799 22.3569 77.4903 21.0163C78.8678 20.545 80.2634 20.1175 81.6523 19.6719C82.4858 22.8975 84.0414 25.8077 86.1285 28.1867C86.7068 28.8451 87.324 29.4646 87.9785 30.0375C88.0242 30.0774 88.0795 30.104 88.1395 30.1126C88.2871 30.1335 88.4395 30.1449 88.5958 30.1449C89.3902 30.1449 90.0961 29.8627 90.5486 29.4238C90.682 29.2936 90.6696 29.0751 90.5238 28.9582C89.6131 28.2257 88.772 27.3934 88.0118 26.4756C86.2352 24.3293 84.9044 21.7146 84.1814 18.8168C85.2359 18.4358 86.2781 18.0216 87.2945 17.5389C89.8599 16.3218 92.6624 14.7029 94.1647 12.1965C94.6276 11.424 95.0925 10.2716 94.8267 9.34807C94.6391 8.6963 91.9947 9.41458 92.1785 10.0559C92.3881 10.7837 92.1223 11.5172 91.7775 12.2164C90.62 14.5613 88.0166 16.0368 85.7475 17.1142C85.1635 17.3916 84.571 17.6472 83.9718 17.8867C83.7594 16.8263 83.627 15.7328 83.5832 14.6135C83.5727 14.3399 83.566 14.0653 83.566 13.7889C83.566 13.7014 83.5679 13.615 83.5689 13.5285C83.5708 13.3841 83.5736 13.2406 83.5784 13.0981C83.6022 12.3542 83.6651 11.6217 83.7642 10.9034C83.8785 10.0796 84.0414 9.27396 84.2481 8.48918C84.371 8.00272 84.5091 7.55047 84.6577 7.13053C84.7968 6.72388 84.9473 6.32389 85.1102 5.9315C85.1302 5.89064 85.1502 5.84979 85.1683 5.80703C86.1076 3.60374 87.9842 2.00662 90.2152 1.67028C90.5019 1.62753 90.7944 1.60378 91.0916 1.60378C94.7191 1.60378 97.6598 4.92154 97.6598 9.01458C97.6598 10.7371 97.1387 12.3219 96.2652 13.5798C95.8908 14.1195 95.4516 14.5983 94.9611 15.0031C94.8039 15.1323 94.8105 15.3727 94.9725 15.4962C95.1754 15.6501 95.3735 15.8107 95.5669 15.976C98.3085 18.3275 100.05 21.8381 100.05 25.7602C100.05 28.1611 99.3973 30.4071 98.2618 32.3282C97.8284 33.0627 97.3245 33.7505 96.7586 34.3795C94.4409 36.9609 91.0963 38.5818 87.3774 38.5818C85.6417 38.5818 83.988 38.2284 82.482 37.589C81.7418 37.2745 81.0369 36.8916 80.3758 36.4479C80.3424 36.4251 80.3034 36.4118 80.2624 36.4108C80.2357 36.4108 80.21 36.4099 80.1833 36.4099C79.3022 36.4099 78.5296 36.7576 78.0924 37.2802C78.0057 37.3837 78.0295 37.5414 78.1467 37.6089C79.4041 38.3376 80.7806 38.9105 82.2438 39.2972C83.6527 39.6697 85.1416 39.8692 86.682 39.8692C91.5869 39.8692 95.9737 37.8464 98.9029 34.6636C99.5335 33.9786 100.097 33.2394 100.583 32.4546C101.899 30.3311 102.65 27.8779 102.65 25.2633C102.65 21.0524 100.701 17.2577 97.5836 14.5926C99.2659 13.0677 100.31 10.9414 100.31 8.58989C100.31 3.94958 96.2471 0.188121 91.2354 0.188121C90.2609 0.188121 89.3226 0.330636 88.4434 0.593815C87.686 0.819939 86.9735 1.13727 86.3181 1.52872C80.712 5.10966 80.9654 14.6249 80.9654 14.6249V14.6991C80.994 16.109 81.1607 17.481 81.4446 18.8073C80.0633 19.2729 78.6677 19.6985 77.2798 20.1479C76.4425 16.9422 74.8935 14.0511 72.8169 11.6834C72.2386 11.025 71.6213 10.4055 70.9669 9.83262C70.9212 9.79272 70.8659 9.76612 70.8059 9.75756C70.6583 9.73666 70.5059 9.72526 70.3496 9.72526C69.5552 9.72526 68.8493 10.0074 68.3968 10.4464C68.2634 10.5766 68.2758 10.7951 68.4216 10.9119C69.3322 11.6445 70.1734 12.4768 70.9336 13.3946C72.7016 15.5304 74.0276 18.1299 74.7526 21.0125C73.4837 21.4799 72.2348 22.0016 71.0269 22.6343C68.5797 23.9151 65.9591 25.6224 64.6674 28.1601C64.2377 29.0038 63.8567 30.1962 64.1329 31.152C64.3206 31.8038 66.966 31.0855 66.7812 30.4442C66.5583 29.6708 66.7764 28.8993 67.0822 28.1601C68.0548 25.8029 70.3973 24.1982 72.5739 23.0581C73.356 22.6486 74.1562 22.2875 74.9678 21.955C75.1831 23.0239 75.3174 24.1269 75.3613 25.2566C75.3717 25.5302 75.3784 25.8048 75.3784 26.0813C75.3784 26.1687 75.3765 26.2552 75.3756 26.3416C75.3737 26.486 75.3708 26.6295 75.366 26.772C75.3422 27.516 75.2793 28.2485 75.1803 28.9668C75.066 29.7905 74.9031 30.5962 74.6964 31.381C74.5735 31.8674 74.4353 32.3197 74.2867 32.7396C74.1477 33.1463 73.9971 33.5463 73.8342 33.9387C73.8142 33.9795 73.7942 34.0204 73.7761 34.0631C72.8369 36.2664 70.9602 37.8635 68.7292 38.1989C68.4425 38.2417 68.1501 38.2654 67.8538 38.2654C64.2263 38.2654 61.2856 34.9477 61.2856 30.8546C61.2856 29.1321 61.8067 27.5473 62.6802 26.2894C63.0546 25.7497 63.4937 25.2709 63.9843 24.8661C64.1415 24.7369 64.1349 24.4965 63.9729 24.373C63.77 24.2191 63.5719 24.0585 63.3785 23.8932C60.6369 21.5417 58.8955 18.0311 58.8955 14.109C58.8955 11.7081 59.5481 9.46208 60.6836 7.54097C61.117 6.80654 61.6209 6.11867 62.1868 5.4897C64.5045 2.90827 67.849 1.28739 71.568 1.28739C73.3036 1.28739 74.9574 1.64083 76.4634 2.28025C77.2036 2.59473 77.9085 2.97763 78.5696 3.42227C78.603 3.44508 78.642 3.45838 78.683 3.45933C78.7097 3.45933 78.7354 3.46028 78.7621 3.46028C79.6432 3.46028 80.4158 3.11254 80.853 2.58903C80.9397 2.48547 80.9159 2.32775 80.7987 2.2603C79.5413 1.53157 78.1648 0.958655 76.7016 0.571962C75.2927 0.199522 73.8038 0 72.2634 0C67.3585 0 62.9717 2.02277 60.0425 5.20562C59.4118 5.89064 58.8479 6.62982 58.3621 7.41461C57.0465 9.53809 56.2949 11.9913 56.2949 14.6059C56.2949 18.8168 58.244 22.6115 61.3609 25.2766H61.3618Z" fill="url(#paint15_linear_14_104)"/>
</g>
<defs>
<linearGradient id="paint0_linear_14_104" x1="174.947" y1="22.5032" x2="2.01906" y2="113.245" gradientUnits="userSpaceOnUse">
<stop stop-color="#FDCD9F"/>
<stop offset="1" stop-color="#C07E4A"/>
</linearGradient>
<linearGradient id="paint1_linear_14_104" x1="174.031" y1="20.7559" x2="1.10262" y2="111.499" gradientUnits="userSpaceOnUse">
<stop stop-color="#FDCD9F"/>
<stop offset="1" stop-color="#C07E4A"/>
</linearGradient>
<linearGradient id="paint2_linear_14_104" x1="177.371" y1="27.1216" x2="4.44244" y2="117.864" gradientUnits="userSpaceOnUse">
<stop stop-color="#FDCD9F"/>
<stop offset="1" stop-color="#C07E4A"/>
</linearGradient>
<linearGradient id="paint3_linear_14_104" x1="180.655" y1="33.3819" x2="7.72701" y2="124.124" gradientUnits="userSpaceOnUse">
<stop stop-color="#FDCD9F"/>
<stop offset="1" stop-color="#C07E4A"/>
</linearGradient>
<linearGradient id="paint4_linear_14_104" x1="183.644" y1="39.0758" x2="10.7154" y2="129.819" gradientUnits="userSpaceOnUse">
<stop stop-color="#FDCD9F"/>
<stop offset="1" stop-color="#C07E4A"/>
</linearGradient>
<linearGradient id="paint5_linear_14_104" x1="185.09" y1="41.8312" x2="12.1616" y2="132.573" gradientUnits="userSpaceOnUse">
<stop stop-color="#FDCD9F"/>
<stop offset="1" stop-color="#C07E4A"/>
</linearGradient>
<linearGradient id="paint6_linear_14_104" x1="181.908" y1="35.7685" x2="8.97967" y2="126.511" gradientUnits="userSpaceOnUse">
<stop stop-color="#FDCD9F"/>
<stop offset="1" stop-color="#C07E4A"/>
</linearGradient>
<linearGradient id="paint7_linear_14_104" x1="185.958" y1="43.4881" x2="13.0302" y2="134.23" gradientUnits="userSpaceOnUse">
<stop stop-color="#FDCD9F"/>
<stop offset="1" stop-color="#C07E4A"/>
</linearGradient>
<linearGradient id="paint8_linear_14_104" x1="177.132" y1="26.6684" x2="4.2043" y2="117.411" gradientUnits="userSpaceOnUse">
<stop stop-color="#FDCD9F"/>
<stop offset="1" stop-color="#C07E4A"/>
</linearGradient>
<linearGradient id="paint9_linear_14_104" x1="172.952" y1="18.6999" x2="0.0233816" y2="109.442" gradientUnits="userSpaceOnUse">
<stop stop-color="#FDCD9F"/>
<stop offset="1" stop-color="#C07E4A"/>
</linearGradient>
<linearGradient id="paint10_linear_14_104" x1="158.528" y1="-8.7866" x2="-14.4" y2="81.9557" gradientUnits="userSpaceOnUse">
<stop stop-color="#FDCD9F"/>
<stop offset="1" stop-color="#C07E4A"/>
</linearGradient>
<linearGradient id="paint11_linear_14_104" x1="154.13" y1="-17.1694" x2="-18.7981" y2="73.5738" gradientUnits="userSpaceOnUse">
<stop stop-color="#FDCD9F"/>
<stop offset="1" stop-color="#C07E4A"/>
</linearGradient>
<linearGradient id="paint12_linear_14_104" x1="167.719" y1="8.72857" x2="-5.20927" y2="99.4708" gradientUnits="userSpaceOnUse">
<stop stop-color="#FDCD9F"/>
<stop offset="1" stop-color="#C07E4A"/>
</linearGradient>
<linearGradient id="paint13_linear_14_104" x1="160.58" y1="-4.87692" x2="-12.3481" y2="85.8653" gradientUnits="userSpaceOnUse">
<stop stop-color="#FDCD9F"/>
<stop offset="1" stop-color="#C07E4A"/>
</linearGradient>
<linearGradient id="paint14_linear_14_104" x1="164.012" y1="1.66554" x2="-8.91583" y2="92.4078" gradientUnits="userSpaceOnUse">
<stop stop-color="#FDCD9F"/>
<stop offset="1" stop-color="#C07E4A"/>
</linearGradient>
<linearGradient id="paint15_linear_14_104" x1="153.36" y1="-18.6344" x2="-19.5679" y2="72.1079" gradientUnits="userSpaceOnUse">
<stop stop-color="#FDCD9F"/>
<stop offset="1" stop-color="#C07E4A"/>
</linearGradient>
<clipPath id="clip0_14_104">
<rect width="160" height="89.8969" fill="white"/>
</clipPath>
</defs>
</svg>
