<?xml version="1.0" standalone="no"?>
<!DOCTYPE svg PUBLIC "-//W3C//DTD SVG 1.1//EN" "http://www.w3.org/Graphics/SVG/1.1/DTD/svg11.dtd" >
<svg xmlns="http://www.w3.org/2000/svg" xmlns:xlink="http://www.w3.org/1999/xlink" version="1.1">
<metadata>
Created by FontForge 20201107 at Wed Mar  6 16:29:35 2024
 By 
Copyright 2024 The Platypi Project Authors (https://github.com/d-sargent/platypi)
</metadata>
<defs>
<font id="Platypi-Regular" horiz-adv-x="0" >
  <font-face 
    font-family="Platypi"
    font-weight="400"
    font-stretch="normal"
    units-per-em="1000"
    panose-1="0 0 0 0 0 0 0 0 0 0"
    ascent="800"
    descent="-200"
    x-height="484"
    cap-height="690"
    bbox="-296 -301 1212 1042"
    underline-thickness="50"
    underline-position="-125"
    unicode-range="U+0020-FB03"
  />
<missing-glyph horiz-adv-x="606" 
d="M43 0v690h520v-690h-520zM111 63h383v564h-383v-564z" />
    <glyph glyph-name="fi" unicode="fi" horiz-adv-x="675" 
d="M43 0v15l87 71l-16 -28v393l43 -43h-125v17l82 81v28q0 68 31.5 123.5t85 87.5t120.5 32q89 0 143 -31.5t54 -82.5q0 -34 -24.5 -55.5t-63.5 -21.5h-10l-106 164h93l7 -86q-37 58 -93 58q-60 0 -95.5 -43.5t-35.5 -116.5v-506l-15 29l87 -70v-15h-249zM406 0v15l87 71
l-16 -28v393l43 -60l-331 26v52l370 23h25v-436l-16 29l87 -70v-15h-249z" />
    <glyph glyph-name="fl" unicode="fl" horiz-adv-x="675" 
d="M43 0v15l87 71l-16 -28v393l43 -43h-125v17l82 81v28q0 68 31.5 123.5t85 87.5t120.5 32q63 0 109 -21.5t71.5 -60t25.5 -91.5v-42h-61l-134 188h75l7 -86q-21 32 -42 45t-51 13q-60 0 -95.5 -43.5t-35.5 -116.5v-506l-15 29l87 -70v-15h-249zM363 399l-175 30v43l172 26
h14v-92zM406 0v15l87 71l-16 -28v638l82 69h25v-709l-16 29l87 -70v-15h-249z" />
    <glyph glyph-name="f_f_i" unicode="ffi" horiz-adv-x="1038" 
d="M43 0v15l87 71l-16 -28v393l43 -43h-125v17l82 81v13q0 70 32.5 124t89.5 84t131 30q59 0 103 -19.5t68.5 -54.5t24.5 -82q0 -4 -5 -19.5t-17.5 -29t-34.5 -13.5h-10l-126 192h90v-85q-19 30 -41 43.5t-52 13.5q-67 0 -107 -42.5t-40 -114.5v-490l-15 29l87 -70v-15h-249
zM502 398l-313 19v52l313 19v-90zM769 0v15l88 71l-16 -28v393l43 -60l-332 26v52l370 23h25v-436l-15 29l86 -70v-15h-249zM406 0v15l87 71l-16 -28v476q0 68 31.5 123.5t85 87.5t120.5 32q89 0 143.5 -31.5t54.5 -82.5q0 -34 -25 -55.5t-64 -21.5h-9l-107 164h94l6 -86
q-37 58 -93 58q-60 0 -95 -43.5t-35 -116.5v-506l-16 29l87 -70v-15h-249z" />
    <glyph glyph-name="f_f" unicode="ff" horiz-adv-x="759" 
d="M43 0v15l87 71l-16 -28v393l43 -43h-125v17l82 81v33q0 66 22.5 115t63 76t94.5 27q78 0 139 -41l-51 -112h-18l-99 127h93v-62q-14 19 -30 27t-39 8q-33 0 -51 -33.5t-18 -100.5v-514l-15 29l87 -70v-15h-249zM502 405l-313 17v52l313 17v-86zM398 0v15l87 71l-16 -28
v495q0 69 22.5 119t62.5 77.5t95 27.5q39 0 75.5 -10.5t66.5 -31.5l-51 -111h-19l-99 126h91v-62q-14 20 -30 27.5t-39 7.5q-33 0 -51 -33.5t-18 -100.5v-534l-15 27l118 -67v-15h-280zM728 399l-185 29v46l182 24h14v-92z" />
    <glyph glyph-name="f_f_l" unicode="ffl" horiz-adv-x="1038" 
d="M406 0v15l87 71l-16 -28v476q0 68 31.5 123.5t85 87.5t120.5 32q63 0 109.5 -21.5t71.5 -60t25 -91.5v-42h-60l-135 188h76l6 -86q-20 32 -41.5 45t-51.5 13q-60 0 -95 -43.5t-35 -116.5v-506l-16 29l87 -70v-15h-249zM43 0v15l87 71l-16 -28v393l43 -43h-125v17l82 81
v13q0 70 32.5 124t89.5 84t131 30q59 0 103 -19.5t68.5 -54.5t24.5 -82q0 -4 -5 -19.5t-17.5 -29t-34.5 -13.5h-10l-126 192h90v-85q-19 30 -41 43.5t-52 13.5q-67 0 -107 -42.5t-40 -114.5v-490l-15 29l87 -70v-15h-249zM502 398l-313 19v52l313 19v-90zM726 399l-175 30
v43l172 26h14v-92zM769 0v15l88 71l-16 -28v638l81 69h25v-709l-15 29l86 -70v-15h-249z" />
    <glyph glyph-name=".notdef" horiz-adv-x="606" 
d="M43 0v690h520v-690h-520zM111 63h383v564h-383v-564z" />
    <glyph glyph-name=".null" 
 />
    <glyph glyph-name="nonmarkingreturn" horiz-adv-x="333" 
 />
    <glyph glyph-name="space" unicode=" " horiz-adv-x="264" 
 />
    <glyph glyph-name="exclam" unicode="!" horiz-adv-x="252" 
d="M99 200l-48 467l139 39l14 -14l-51 -492h-54zM126 -13q-36 0 -59.5 22t-23.5 55q0 34 23.5 56t59.5 22q37 0 60 -22t23 -56q0 -33 -23 -55t-60 -22z" />
    <glyph glyph-name="quotedbl" unicode="&#x22;" horiz-adv-x="362" 
d="M242 439l-47 262l6 6h113l6 -6l-47 -262h-31zM89 439l-47 262l6 6h113l6 -6l-47 -262h-31z" />
    <glyph glyph-name="numbersign" unicode="#" horiz-adv-x="591" 
d="M299 0l136 592h52l-136 -592h-52zM42 156l18 77h442l-17 -77h-443zM104 0l136 592h52l-136 -592h-52zM89 359l17 77h443l-18 -77h-442z" />
    <glyph glyph-name="dollar" unicode="$" horiz-adv-x="578" 
d="M284 -16q-62 0 -126.5 20t-114.5 54l60 120h18l105 -157h-82v96q22 -34 61 -53.5t89 -19.5q65 0 101.5 32t36.5 92q0 35 -20.5 58t-54 38t-73.5 27t-80 26t-73.5 35.5t-54 55t-20.5 84.5q0 59 30 102.5t85.5 67.5t130.5 24q37 0 78 -9t79.5 -24.5t68.5 -37.5l-71 -114
h-18l-104 149h94l-4 -95q-22 35 -55 53t-76 18q-66 0 -100.5 -26.5t-34.5 -78.5q0 -35 20.5 -57t54 -36.5t74 -27t80 -26.5t73 -35t54 -55t20.5 -85q0 -65 -31 -113.5t-87 -75t-133 -26.5zM268 -107v884h48v-884h-48z" />
    <glyph glyph-name="percent" unicode="%" horiz-adv-x="861" 
d="M116 0l566 690h63l-566 -690h-63zM219 317q-52 0 -92 23t-62.5 63.5t-22.5 94.5q0 60 22.5 105.5t62.5 72t92 26.5t91.5 -23t62 -63.5t22.5 -94.5q0 -60 -22.5 -106t-62 -72t-91.5 -26zM219 355q44 0 68 39t24 112q0 74 -25 116t-67 42q-45 0 -69 -39t-24 -112t25 -115.5
t68 -42.5zM643 -12q-52 0 -92 23t-62 63.5t-22 94.5q0 60 22.5 106t62.5 72t91 26q53 0 92 -23t61.5 -63.5t22.5 -94.5q0 -60 -22.5 -105.5t-62 -72t-91.5 -26.5zM643 26q45 0 68.5 39t23.5 112q0 74 -24.5 116t-67.5 42q-45 0 -69 -39t-24 -112t25 -115.5t68 -42.5z" />
    <glyph glyph-name="ampersand" unicode="&#x26;" horiz-adv-x="807" 
d="M679 -16q-32 0 -62 10.5t-58.5 32.5t-59.5 57l-277 323q-35 40 -51 75.5t-16 73.5q0 45 23 79t64 52.5t96 18.5q48 0 107 -15.5t105 -41.5l-76 -125h-18l-105 148h98l11 -92q-13 22 -34 38t-47 25t-54 9q-35 0 -57 -19t-22 -50q0 -22 9.5 -41t33.5 -47l307 -359
q40 -44 72.5 -64.5t61.5 -20.5q32 0 58 15l17 -19q-14 -29 -48 -46t-78 -17zM301 -16q-77 0 -135 27.5t-90.5 76.5t-32.5 114q0 53 24 96.5t68 73.5t104 43l17 -27q-51 -29 -74.5 -67t-23.5 -92q0 -51 22 -91.5t61 -62.5t90 -22q96 0 156 84l40 -43q-46 -57 -101 -83.5
t-125 -26.5zM561 141l-38 36q20 35 29.5 78t11.5 111l-103 59v17h269v-17l-83 -61q-12 -67 -34.5 -123.5t-51.5 -99.5z" />
    <glyph glyph-name="quotesingle" unicode="'" horiz-adv-x="209" 
d="M89 439l-47 262l6 6h113l6 -6l-47 -262h-31z" />
    <glyph glyph-name="parenleft" unicode="(" horiz-adv-x="348" 
d="M313 -235q-84 52 -144.5 129.5t-93.5 172t-33 198.5t33 198.5t93.5 172.5t144.5 129l15 -19q-91 -84 -140 -208.5t-49 -272.5t49 -272.5t140 -208.5z" />
    <glyph glyph-name="parenright" unicode=")" horiz-adv-x="348" 
d="M35 -235l-15 19q91 84 140.5 208.5t49.5 272.5t-49.5 272.5t-140.5 208.5l15 19q85 -51 145.5 -129t93 -172.5t32.5 -198.5t-32.5 -198.5t-93 -172t-145.5 -129.5z" />
    <glyph glyph-name="asterisk" unicode="*" horiz-adv-x="390" 
d="M263 407l-11 3l-57 146l-57 -146l-11 -3l-83 61v11l121 100l-157 9l-6 9l31 98l12 3l132 -85l-40 153l7 9h103l7 -9l-41 -153l133 85l11 -3l31 -98l-6 -9l-157 -9l121 -100l1 -11z" />
    <glyph glyph-name="plus" unicode="+" horiz-adv-x="518" 
d="M231 126v432h56v-432h-56zM42 316v52h434v-52h-434z" />
    <glyph glyph-name="comma" unicode="," horiz-adv-x="293" 
d="M62 -142l-9 29q40 15 62.5 45.5t22.5 67.5l-74 51v12q0 35 23.5 57t59.5 22q37 0 60 -26t23 -67q0 -47 -21.5 -87t-59.5 -67.5t-87 -36.5z" />
    <glyph glyph-name="hyphen" unicode="-" horiz-adv-x="346" 
d="M23 208l10 83h285l-10 -83h-285z" />
    <glyph glyph-name="period" unicode="." horiz-adv-x="293" 
d="M146 -13q-36 0 -59.5 22t-23.5 55q0 34 23.5 56t59.5 22q37 0 60 -22t23 -56q0 -33 -23 -55t-60 -22z" />
    <glyph glyph-name="slash" unicode="/" horiz-adv-x="404" 
d="M6 -95l328 900h64l-328 -900h-64z" />
    <glyph glyph-name="zero" unicode="0" horiz-adv-x="665" 
d="M333 -16q-90 0 -155 42t-100.5 119t-35.5 182q0 117 35.5 201.5t100.5 131t155 46.5q89 0 154 -41.5t100.5 -119t35.5 -182.5q0 -117 -35.5 -201.5t-100.5 -131t-154 -46.5zM333 41q52 0 90 35t58 102t20 161q0 150 -43.5 230t-124.5 80q-53 0 -90.5 -35t-58 -102
t-20.5 -161q0 -150 43.5 -230t125.5 -80z" />
    <glyph glyph-name="one" unicode="1" horiz-adv-x="430" 
d="M44 0v18l120 55v494h-128l-5 15l226 123h18v-632l120 -55v-18h-351z" />
    <glyph glyph-name="two" unicode="2" horiz-adv-x="637" 
d="M74 0l-16 29l127 134q87 91 138 155.5t73 112t22 89.5q0 58 -38.5 94.5t-100.5 36.5q-42 0 -78.5 -20.5t-57.5 -55.5l18 95h95l-108 -153h-18l-71 120q30 21 69.5 36.5t81 24t81.5 8.5q123 0 188.5 -44.5t65.5 -127.5q0 -31 -12 -63.5t-40.5 -70.5t-75.5 -86t-115 -110
l-139 -137l1 27h289l103 89h18l-17 -183h-483z" />
    <glyph glyph-name="three" unicode="3" horiz-adv-x="616" 
d="M295 -16q-75 0 -135 18t-117 57l68 124h18l113 -165l-95 10l-19 93q24 -42 62.5 -61.5t98.5 -19.5q46 0 83 19.5t58.5 54t21.5 77.5q0 44 -24 77.5t-65 53t-95 19.5v49q149 0 227 -47.5t78 -137.5q0 -68 -33.5 -118t-96 -76.5t-148.5 -26.5zM346 366v28h46v-28h-46z
M268 368v28q47 0 83.5 18t58.5 48.5t22 68.5q0 53 -40 86.5t-102 33.5q-45 0 -82.5 -13.5t-71.5 -42.5l20 83l104 3l-113 -156h-18l-67 120q47 30 109.5 45.5t132.5 15.5q74 0 130 -21t87 -58t31 -86q0 -81 -75.5 -127t-208.5 -46z" />
    <glyph glyph-name="four" unicode="4" horiz-adv-x="655" 
d="M30 175l-15 29l299 486h146v-16l-395 -466l-5 -31zM30 175l29 59h567v-59h-596zM247 0v17l97 59v315l9 11h101v-326l97 -59v-17h-304z" />
    <glyph glyph-name="five" unicode="5" horiz-adv-x="635" 
d="M304 -16q-80 0 -142 18t-120 57l69 124h18l113 -165l-96 10l-18 93q23 -43 63 -62t108 -19q51 0 89.5 21t60.5 58t22 85q0 72 -48.5 115t-131.5 43q-51 0 -92 -12t-75 -37l-25 25l25 352h340l82 57h17l-15 -151h-399l56 36l-18 -267l-27 13q36 26 85.5 40.5t99.5 14.5
q74 0 130 -27t87 -75.5t31 -112.5q0 -69 -36.5 -122t-101.5 -82.5t-151 -29.5z" />
    <glyph glyph-name="six" unicode="6" horiz-adv-x="637" 
d="M326 -16q-136 0 -210 92.5t-74 264.5q0 107 40.5 189.5t111 129t161.5 46.5q61 0 119.5 -16t109.5 -47l-70 -123h-18l-101 145l86 5l21 -84q-65 63 -147 63q-57 0 -100.5 -38.5t-67.5 -106.5t-24 -159q0 -95 20.5 -164t58.5 -105.5t90 -36.5q66 0 104 42.5t38 114.5
q0 81 -39.5 124t-112.5 43q-56 0 -100.5 -30t-72.5 -88l-12 47q19 42 52.5 74t77 49.5t89.5 17.5q73 0 126.5 -26.5t83 -75t29.5 -115.5q0 -66 -35 -118.5t-96 -83t-138 -30.5z" />
    <glyph glyph-name="seven" unicode="7" horiz-adv-x="588" 
d="M310 0h-146v16l358 641l6 33h23l15 -28zM67 507l-24 183h507l-39 -94h-339l-87 -89h-18z" />
    <glyph glyph-name="eight" unicode="8" horiz-adv-x="643" 
d="M321 -16q-85 0 -147.5 23t-96.5 64.5t-34 99.5q0 70 60 120.5t175 77.5l6 -25q-55 -22 -89 -66.5t-34 -95.5q0 -65 44 -104.5t120 -39.5q70 0 114 37t44 95q0 39 -22.5 64t-59.5 42t-81.5 30.5t-89 29t-81.5 38t-59.5 56.5t-22.5 87q0 54 33.5 97t91 67.5t129.5 24.5
q75 0 131.5 -21t88 -59t31.5 -88q0 -65 -56.5 -111t-167.5 -68l-9 21q55 23 86.5 61.5t31.5 85.5q0 58 -38.5 92.5t-104.5 34.5q-36 0 -66 -15t-47 -40.5t-17 -56.5q0 -39 22.5 -64t59.5 -42t81.5 -30.5t89 -29t81.5 -38t59.5 -56.5t22.5 -87q0 -64 -34.5 -111.5t-97 -73.5
t-147.5 -26z" />
    <glyph glyph-name="nine" unicode="9" horiz-adv-x="637" 
d="M312 706q136 0 209.5 -92.5t73.5 -264.5q0 -107 -39.5 -189.5t-110.5 -129t-163 -46.5q-59 0 -118 16t-110 47l70 123h17l101 -145l-86 -5l-20 84q64 -63 146 -63q57 0 100.5 38.5t67.5 106.5t24 159q0 96 -20.5 164.5t-58 105t-90.5 36.5q-65 0 -103.5 -42.5
t-38.5 -114.5q0 -81 39.5 -124t112.5 -43q57 0 101 30t72 88l12 -47q-18 -41 -51.5 -73.5t-77 -50t-90.5 -17.5q-73 0 -126.5 26.5t-83 75.5t-29.5 115t35 118.5t96 83t139 30.5z" />
    <glyph glyph-name="colon" unicode=":" horiz-adv-x="293" 
d="M146 285q-36 0 -59.5 22t-23.5 55q0 34 23.5 56t59.5 22q37 0 60 -22t23 -56q0 -33 -23 -55t-60 -22zM146 -13q-36 0 -59.5 22t-23.5 55q0 34 23.5 56t59.5 22q37 0 60 -22t23 -56q0 -33 -23 -55t-60 -22z" />
    <glyph glyph-name="semicolon" unicode=";" horiz-adv-x="293" 
d="M62 -142l-9 29q40 15 62.5 45.5t22.5 67.5l-74 51v12q0 35 23.5 57t59.5 22q37 0 60 -26t23 -67q0 -47 -21.5 -87t-59.5 -67.5t-87 -36.5zM146 285q-36 0 -59.5 22t-23.5 55q0 34 23.5 56t59.5 22q37 0 60 -22t23 -56q0 -33 -23 -55t-60 -22z" />
    <glyph glyph-name="less" unicode="&#x3c;" horiz-adv-x="518" 
d="M476 86l-434 228v56l434 228v-57l-402 -211v24l402 -211v-57z" />
    <glyph glyph-name="equal" unicode="=" horiz-adv-x="518" 
d="M42 396v53h434v-53h-434zM42 235v53h434v-53h-434z" />
    <glyph glyph-name="greater" unicode="&#x3e;" horiz-adv-x="518" 
d="M42 86v57l402 211v-24l-402 211v57l434 -228v-56z" />
    <glyph glyph-name="question" unicode="?" horiz-adv-x="553" 
d="M209 200l-9 55q-8 55 2.5 90t33 57t49.5 35.5t52.5 26.5t41.5 31.5t16 48.5q0 46 -37.5 74t-97.5 28q-81 0 -125 -71v95h98l-112 -154h-18l-71 119q30 22 70.5 37.5t85 24.5t88.5 9q72 0 124.5 -21t81.5 -58t29 -89q0 -43 -16 -71t-42.5 -46.5t-56.5 -34.5t-58 -34.5
t-47.5 -46t-24.5 -70.5l-4 -35h-53zM239 -13q-37 0 -60 22t-23 55q0 34 23 56t60 22q36 0 59.5 -22t23.5 -56q0 -33 -23.5 -55t-59.5 -22z" />
    <glyph glyph-name="at" unicode="@" horiz-adv-x="1233" 
d="M606 -251q-115 0 -210.5 35t-165 99.5t-107.5 152.5t-38 194q0 92 29.5 174.5t83 150.5t127 118t162 77t187.5 27q103 0 190 -31t150.5 -87.5t98 -134t34.5 -169.5q0 -80 -23 -145.5t-66 -112.5t-102.5 -72t-133.5 -25q-83 0 -121.5 44t-21.5 120l72 313h18l77 46h19
l-82 -359q-13 -60 6.5 -92t69.5 -32q57 0 100 38t67 105t24 155q0 120 -46 208t-131 135.5t-202 47.5q-103 0 -192 -36.5t-155.5 -102.5t-103.5 -154t-37 -190q0 -99 31.5 -181.5t90 -142t139 -92t177.5 -32.5q76 0 151 18.5t144 55.5l16 -26q-41 -30 -95 -51.5
t-113.5 -33.5t-117.5 -12zM476 19q-49 0 -77.5 41t-28.5 111q0 75 24 139.5t66 113.5t98.5 76.5t121.5 27.5q40 0 74.5 -14t60.5 -41l-45 -131q0 68 -24.5 104t-71.5 36q-34 0 -64 -16.5t-54 -46t-41 -68.5t-26 -84t-9 -93q0 -77 46 -77q30 0 61 28.5t61.5 78.5t56 117.5
t44.5 147.5l48 -6l-41 -224h-61q-51 -118 -102 -169t-117 -51z" />
    <glyph glyph-name="A" unicode="A" horiz-adv-x="722" 
d="M2 0v17l84 79l-47 -83l287 677h70l288 -677l-48 84l84 -80v-17h-274v17l124 81l-5 -85l-261 618h40l-207 -618l-11 85l124 -81v-17h-248zM172 211v52h354v-52h-354zM306 603l-71 70v17h110z" />
    <glyph glyph-name="B" unicode="B" horiz-adv-x="661" 
d="M187 0v52h143q77 0 120.5 38.5t43.5 105.5q0 70 -39.5 106.5t-110.5 36.5h-152v50h172q120 0 187.5 -45.5t67.5 -125.5q0 -67 -34.5 -116t-99 -75.5t-154.5 -26.5h-144zM29 0v17l77 61v534l-77 61v17h191v-690h-191zM421 368v30h44v-30h-44zM217 366v23l126 3
q57 1 87.5 31.5t30.5 87.5q0 127 -148 127h-152v52h164q125 0 190.5 -39.5t65.5 -114.5q0 -82 -61 -126t-179 -44h-124z" />
    <glyph glyph-name="C" unicode="C" horiz-adv-x="695" 
d="M393 -16q-107 0 -186 42.5t-121.5 121t-42.5 184.5q0 80 27 148t75.5 119t113.5 79t141 28q44 0 89 -9t85.5 -24.5t69.5 -37.5l-71 -119h-18l-113 154h99v-95q-43 71 -144 71q-67 0 -119 -37t-81.5 -102.5t-29.5 -150.5q0 -89 31 -157.5t86 -106.5t128 -38q64 0 113.5 27
t91.5 85l36 -21q-41 -76 -108.5 -118.5t-151.5 -42.5z" />
    <glyph glyph-name="D" unicode="D" horiz-adv-x="748" 
d="M184 0v52h143q82 0 138 33.5t86 96t30 152.5q0 93 -30 161.5t-85 105.5t-130 37h-152v52h164q106 0 186.5 -42t125.5 -117.5t45 -174.5q0 -79 -27.5 -144t-77.5 -112.5t-119.5 -73.5t-152.5 -26h-144zM29 0v17l77 61v534l-77 61v17h191v-690h-191z" />
    <glyph glyph-name="E" unicode="E" horiz-adv-x="623" 
d="M29 0v17l77 61v534l-77 61v17h191v-690h-191zM195 0v44l340 18v-62h-340zM431 0v42l131 129h18l-6 -171h-143zM450 323l-262 11v43l262 12v-66zM464 258l-84 79v38l84 79h18v-196h-18zM535 628l-340 18v44h340v-62zM549 541l-121 104v45l121 9h13l5 -158h-18z" />
    <glyph glyph-name="F" unicode="F" horiz-adv-x="595" 
d="M29 0v17l77 61v534l-77 61v17h191v-612l106 -61v-17h-297zM452 311l-261 11v43l261 12v-66zM457 246l-83 79v38l83 79h18v-196h-18zM525 628l-330 18v44h330v-62zM535 541l-121 104v45l121 9h13l5 -158h-18z" />
    <glyph glyph-name="G" unicode="G" horiz-adv-x="762" 
d="M393 -16q-107 0 -186 42.5t-121.5 121t-42.5 184.5q0 80 27 148t75.5 119t113.5 79t141 28q48 0 97 -8.5t92 -24t71 -35.5l-72 -120h-18l-121 155h102l4 -89q-28 32 -66.5 47t-91.5 15q-67 0 -119 -37t-81.5 -102.5t-29.5 -150.5q0 -90 31 -159t86 -107.5t128 -38.5
q83 0 129 34.5t51 99.5l36 -20q-16 -89 -75.5 -135t-159.5 -46zM655 -16l-101 80v187l-87 65v18h266v-18l-65 -59v-273h-13z" />
    <glyph glyph-name="H" unicode="H" horiz-adv-x="770" 
d="M473 0v17l76 61v534l-76 61v17h267v-17l-77 -61v-534l77 -61v-17h-267zM29 0v17l77 61v534l-77 61v17h267v-17l-76 -61v-534l76 -61v-17h-267zM180 329v57h410v-57h-410z" />
    <glyph glyph-name="I" unicode="I" horiz-adv-x="327" 
d="M29 0v17l77 61v534l-77 61v17h269v-17l-78 -61v-534l78 -61v-17h-269z" />
    <glyph glyph-name="J" unicode="J" horiz-adv-x="608" 
d="M253 -16q-40 0 -82.5 12.5t-81 35t-66.5 51.5l72 123h18l84 -165h-88v114q35 -62 69 -87t84 -25q59 0 92.5 41t33.5 112v416l-78 61v17h269v-17l-77 -61v-407q0 -102 -66.5 -161.5t-182.5 -59.5z" />
    <glyph glyph-name="K" unicode="K" horiz-adv-x="725" 
d="M175 238l1 53l346 386l-19 -96l-86 92v17h278v-17l-144 -84l83 61zM29 0v17l77 61v534l-77 61v17h269v-17l-78 -61v-534l78 -61v-17h-269zM460 0v17l80 81l18 -83l-253 364l84 71l303 -437l-91 105l122 -101v-17h-263z" />
    <glyph glyph-name="L" unicode="L" horiz-adv-x="602" 
d="M29 0v17l77 61v534l-77 61v17h277v-17l-86 -61v-612h-191zM195 0v44l347 18v-62h-347zM411 0v42l130 148h18l-4 -190h-144z" />
    <glyph glyph-name="M" unicode="M" horiz-adv-x="945" 
d="M425 0l-292 690h118l252 -596h-35l202 596h88l-285 -690h-48zM2 0v17l77 61l57 550l6 -23l-85 68v17h128l-29 -612l78 -61v-17h-232zM678 0v17l77 61l-54 612h195v-17l-77 -61l47 -534l77 -61v-17h-265z" />
    <glyph glyph-name="N" unicode="N" horiz-adv-x="740" 
d="M589 -5l-455 582v113h47l433 -553l-24 -9l-43 484l-77 61v17h241v-17l-77 -61v-617h-45zM29 0v17l77 61l14 514l-71 81v17h108l37 -612l77 -61v-17h-242z" />
    <glyph glyph-name="O" unicode="O" horiz-adv-x="785" 
d="M386 -16q-101 0 -179 44.5t-121 124.5t-43 185q0 109 45 192t125 129.5t186 46.5q102 0 179.5 -44.5t120.5 -124t43 -185.5q0 -109 -45 -192t-125 -129.5t-186 -46.5zM403 44q66 0 114 35t74 99t26 153q0 97 -29 167.5t-81.5 109t-124.5 38.5q-66 0 -114.5 -34.5
t-74.5 -99t-26 -153.5q0 -96 29 -167t82 -109.5t125 -38.5z" />
    <glyph glyph-name="P" unicode="P" horiz-adv-x="619" 
d="M29 0v17l77 61v534l-77 61v17h191v-612l90 -61v-17h-281zM292 278h-124v52h133q67 0 109.5 43t42.5 112q0 71 -41 112t-111 41h-151v52h173q78 0 134.5 -24t88 -67.5t31.5 -102.5q0 -66 -35.5 -115t-99 -76t-150.5 -27z" />
    <glyph glyph-name="Q" unicode="Q" horiz-adv-x="785" 
d="M725 -202l-140 39q-88 25 -143.5 65.5t-69.5 90.5l83 23v-30l320 -88v-16l-39 -79zM386 -16q-101 0 -179 44.5t-121 124.5t-43 185q0 109 45 192t125 129.5t186 46.5q102 0 179.5 -44.5t120.5 -124t43 -185.5q0 -109 -45 -192t-125 -129.5t-186 -46.5zM403 44
q66 0 114 35t74 99t26 153q0 97 -29 167.5t-81.5 109t-124.5 38.5q-66 0 -114.5 -34.5t-74.5 -99t-26 -153.5q0 -96 29 -167t82 -109.5t125 -38.5z" />
    <glyph glyph-name="R" unicode="R" horiz-adv-x="667" 
d="M29 0v17l77 61v534l-77 61v17h191v-612l78 -61v-17h-269zM494 0l-216 325l118 20l219 -332l-87 101l127 -97v-17h-161zM168 299v51h133q69 0 110.5 39.5t41.5 106.5q0 65 -41 103.5t-111 38.5h-151v52h173q119 0 186.5 -49t67.5 -136q0 -89 -65.5 -141.5t-180.5 -52.5h-5
v-12h-158z" />
    <glyph glyph-name="S" unicode="S" horiz-adv-x="615" 
d="M304 -16q-46 0 -94.5 9.5t-91.5 26t-75 38.5l60 125h18l121 -162h-96v96q22 -36 65 -54.5t103 -18.5q71 0 112 36t41 97q0 47 -44.5 77.5t-137.5 52.5q-76 19 -126.5 46.5t-75.5 64.5t-25 85q0 94 71 148.5t193 54.5q43 0 87 -9t85 -24.5t70 -37.5l-71 -119h-18l-112 154
h104l-6 -95q-23 37 -59 54t-88 17q-66 0 -108.5 -31.5t-42.5 -80.5q0 -47 44.5 -77.5t138.5 -52.5q76 -19 126 -46.5t75 -64t25 -85.5q0 -68 -33 -118.5t-93 -78t-142 -27.5z" />
    <glyph glyph-name="T" unicode="T" horiz-adv-x="698" 
d="M205 0v17l87 61v604l47 -35l-267 -21v64h553v-64l-267 21l48 35v-604l86 -61v-17h-287zM43 525l3 174h13l126 -9l2 -45l-126 -120h-18zM637 525l-127 120l2 45l126 9h14l3 -174h-18z" />
    <glyph glyph-name="U" unicode="U" horiz-adv-x="708" 
d="M549 607l-89 66v17h246v-17l-78 -66v-326q0 -94 -31.5 -160.5t-90.5 -101.5t-142 -35q-141 0 -213 69t-72 206v353l-77 61v17h268v-17l-77 -61v-325q0 -121 43 -177.5t135 -56.5t135 56.5t43 177.5v320z" />
    <glyph glyph-name="V" unicode="V" horiz-adv-x="704" 
d="M331 -10l-293 687l47 -84l-83 80v17h268v-17l-123 -83l10 85l250 -585h-36l190 587l16 -87l-122 83v17h247v-17l-83 -78l47 82l-294 -687h-41z" />
    <glyph glyph-name="W" unicode="W" horiz-adv-x="1092" 
d="M741 -10l-224 563l1 48l-112 72v17h294v-17l-121 -77l8 79l232 -585h-40l170 587l17 -84l-122 80v17h246v-17l-83 -83l47 87l-272 -687h-41zM306 -10l-271 683l43 -81l-76 81v17h260v-17l-122 -81l12 83l232 -585h-39l171 587h103l-272 -687h-41z" />
    <glyph glyph-name="X" unicode="X" horiz-adv-x="733" 
d="M438 0v17l130 89v-93l-519 664l74 -84l-101 80v17h293v-17l-131 -89v93l520 -664l-74 84l101 -80v-17h-293zM2 0v17l96 79l-73 -83l294 374l36 -13l-205 -361v84l118 -80v-17h-266zM353 316l202 361v-84l-119 80v17h266v-17l-96 -79l74 83l-286 -361h-41z" />
    <glyph glyph-name="Y" unicode="Y" horiz-adv-x="686" 
d="M315 206l-288 471l58 -82l-83 78v17h268v-17l-134 -95l17 99l229 -374h-6l169 374l16 -92l-122 88v17h245v-17l-80 -75l56 79l-295 -471h-50zM210 0v17l77 61v208h114v-208l78 -61v-17h-269z" />
    <glyph glyph-name="Z" unicode="Z" horiz-adv-x="638" 
d="M43 0v17l425 667l21 -36l-350 -18v60h445v-17l-424 -665l-21 36l363 18v-62h-459zM443 0v47l134 137h18l-9 -184h-143zM72 523l-18 176h17l144 -9l-9 -33l-116 -134h-18z" />
    <glyph glyph-name="bracketleft" unicode="[" horiz-adv-x="277" 
d="M42 -204v938h215v-21l-161 -31l31 33v-900l-31 33l161 -31v-21h-215z" />
    <glyph glyph-name="backslash" unicode="\" horiz-adv-x="403" 
d="M334 -95l-328 900h63l328 -900h-63z" />
    <glyph glyph-name="bracketright" unicode="]" horiz-adv-x="277" 
d="M235 -204h-215v21l161 31l-31 -33v900l31 -33l-161 31v21h215v-938z" />
    <glyph glyph-name="asciicircum" unicode="^" horiz-adv-x="518" 
d="M42 345l189 345h56l189 -345h-58l-170 313h22l-170 -313h-58z" />
    <glyph glyph-name="underscore" unicode="_" horiz-adv-x="531" 
d="M20 -108v64h491v-64h-491z" />
    <glyph glyph-name="grave" unicode="`" horiz-adv-x="275" 
d="M216 552l-174 153v3l102 67h3l86 -212z" />
    <glyph glyph-name="a" unicode="a" horiz-adv-x="565" 
d="M412 -12l-27 78h-10v237q0 67 -30 101t-89 34q-31 0 -59.5 -13t-46.5 -35l5 83h83l-107 -140h-18l-53 114q26 15 59 26t70 17.5t74 6.5q109 0 163.5 -43.5t54.5 -130.5v-238l-41 61l106 -80v-17l-115 -61h-19zM196 -13q-66 0 -107.5 36.5t-41.5 94.5q0 134 210 169
l152 24v-43l-107 -26q-81 -19 -113.5 -42.5t-32.5 -64.5q0 -33 22 -52t61 -19q92 0 151 62v-60h-14q-38 -40 -82 -59.5t-98 -19.5z" />
    <glyph glyph-name="b" unicode="b" horiz-adv-x="608" 
d="M298 -13q-89 0 -144 42v93q23 -39 61 -59t87 -20q46 0 80.5 24.5t53.5 68t19 101.5q0 86 -34.5 133.5t-98.5 47.5q-42 0 -76.5 -17t-66.5 -55v64h14q30 40 75 63t91 23q64 0 110.5 -29t71.5 -82.5t25 -126.5q0 -79 -34 -140t-94.5 -96t-139.5 -35zM88 -13v680l43 -67
l-115 89v17l154 59h24v-714l-90 -64h-16z" />
    <glyph glyph-name="c" unicode="c" horiz-adv-x="510" 
d="M283 -13q-70 0 -124.5 30.5t-85.5 84t-31 122.5q0 80 34.5 141.5t94.5 96t139 34.5q48 0 92 -12.5t82 -37.5l-49 -115h-18l-107 138h81v-71q-35 41 -94 41q-43 0 -75.5 -23t-50.5 -64.5t-18 -98.5q0 -91 44.5 -141.5t124.5 -50.5q84 0 139 53l24 -24q-31 -49 -84 -76
t-118 -27z" />
    <glyph glyph-name="d" unicode="d" horiz-adv-x="605" 
d="M451 -12l-27 85h-10v594l43 -67l-115 89v17l153 59h25v-680l-41 61l106 -80v-17l-116 -61h-18zM249 -13q-63 0 -109.5 29.5t-72 83t-25.5 125.5q0 80 34.5 141t95 95.5t139.5 34.5q88 0 144 -41v-94q-24 39 -61.5 59.5t-87.5 20.5q-45 0 -79.5 -24t-54 -68t-19.5 -102
q0 -87 35 -134.5t98 -47.5q44 0 78 17.5t65 55.5v-65h-14q-30 -40 -74.5 -63t-91.5 -23z" />
    <glyph glyph-name="e" unicode="e" horiz-adv-x="540" 
d="M283 -13q-70 0 -124.5 30.5t-85.5 84t-31 122.5q0 80 33 141.5t90.5 96t132.5 34.5q61 0 106 -29.5t69.5 -84t24.5 -129.5h-383v39l263 25q0 57 -27.5 89.5t-73.5 32.5q-36 0 -64.5 -23.5t-44 -65.5t-15.5 -97q0 -91 44 -141.5t124 -50.5q86 0 142 53l24 -24
q-32 -49 -85 -76t-119 -27z" />
    <glyph glyph-name="f" unicode="f" horiz-adv-x="404" 
d="M43 0v15l87 71l-16 -28v393l43 -43h-125v17l82 81v53q0 66 22.5 115t63 76t94.5 27q38 0 75 -10.5t67 -31.5l-51 -111h-19l-99 126h91v-62q-14 20 -30 27.5t-39 7.5q-33 0 -51 -33.5t-18 -100.5v-534l-15 27l118 -67v-15h-280zM373 399l-185 29v46l182 24h14v-92z" />
    <glyph glyph-name="g" unicode="g" horiz-adv-x="582" 
d="M281 -251q-74 0 -130 17.5t-86.5 49t-30.5 72.5q0 34 23.5 61t61.5 36v30h66v-35q-46 -27 -46 -82q0 -46 45.5 -73t122.5 -27q74 0 117.5 27t43.5 73q0 37 -26 59.5t-71 22.5h-203q-51 0 -82 28t-31 75q0 30 12.5 53.5t34.5 37.5t50 15l33 -28q-24 0 -37 -11.5t-13 -31.5
q0 -22 16.5 -32t52.5 -10h181q80 0 128.5 -39.5t48.5 -105.5q0 -53 -36 -94.5t-99 -64.5t-146 -23zM271 143q-61 0 -108.5 22t-74.5 60.5t-27 88.5q0 55 29 96t80 63.5t119 22.5q62 0 109.5 -22t74 -60.5t26.5 -88.5q0 -54 -28.5 -95.5t-79.5 -64t-120 -22.5zM284 194
q50 0 78 29.5t28 81.5q0 65 -30.5 102.5t-83.5 37.5q-49 0 -77.5 -29.5t-28.5 -81.5q0 -64 31 -102t83 -38zM320 457l226 123h16v-112l-7 -6l-135 3v-8h-100z" />
    <glyph glyph-name="h" unicode="h" horiz-adv-x="648" 
d="M381 0v15l86 71l-16 -28v232q0 67 -24 96t-80 29q-44 0 -80 -18t-71 -57v64h14q92 93 184 93q81 0 122 -45.5t41 -134.5v-261l-16 29l87 -70v-15h-247zM34 0v15l87 71l-16 -28v609l43 -67l-115 89v17l153 59h25v-709l-15 29l85 -70v-15h-247z" />
    <glyph glyph-name="i" unicode="i" horiz-adv-x="302" 
d="M34 0v15l87 71l-16 -28v332l43 -65l-115 89v17l153 58h25v-433l-15 29l86 -70v-15h-248zM160 560q-35 0 -56 20t-21 52q0 31 21 51t56 20q34 0 55 -20t21 -51q0 -32 -21 -52t-55 -20z" />
    <glyph glyph-name="j" unicode="j" horiz-adv-x="301" 
d="M27 -238l-46 121l10 17l138 -33l-24 -26v549l43 -65l-115 89v17l153 58h25v-481q0 -82 -42 -142t-131 -104h-11zM160 560q-35 0 -56 20t-21 52q0 31 21 51t56 20q34 0 55 -20t21 -51q0 -32 -21 -52t-55 -20z" />
    <glyph glyph-name="k" unicode="k" horiz-adv-x="640" 
d="M34 0v15l87 71l-16 -28v609l43 -67l-115 89v17l153 59h25v-712l-15 32l86 -70v-15h-248zM472 0l-212 298l87 60l220 -310l-65 4v64l118 -101v-15h-148zM193 202v49l236 198l13 -51h-15l-68 71v15h254v-15z" />
    <glyph glyph-name="l" unicode="l" horiz-adv-x="302" 
d="M34 0v15l87 71l-16 -28v609l43 -67l-115 89v17l153 59h25v-709l-15 29l86 -70v-15h-248z" />
    <glyph glyph-name="m" unicode="m" horiz-adv-x="973" 
d="M708 0v15l84 68l-16 -28v235q0 65 -24 95t-75 30q-44 0 -84 -19.5t-71 -55.5v64h16q46 50 89.5 71.5t96.5 21.5q76 0 117 -46t41 -131v-267l-16 29l87 -67v-15h-245zM34 0v15l87 68l-16 -28v336l43 -77l-115 95v17l153 63h25l-6 -85h6v-351l-15 29l84 -67v-15h-246z
M373 0v15l83 68l-16 -28v235q0 65 -22.5 95t-72.5 30q-85 0 -149 -75v64h14q47 51 88.5 72t93.5 21q74 0 114.5 -46t40.5 -131v-267l-16 29l84 -67v-15h-242zM494 292v86h53v-86h-53z" />
    <glyph glyph-name="n" unicode="n" horiz-adv-x="648" 
d="M381 0v15l86 71l-16 -28v232q0 67 -24 96t-80 29q-44 0 -80 -18t-71 -57v64h14q92 93 184 93q81 0 122 -45.5t41 -134.5v-261l-16 29l87 -70v-15h-247zM34 0v15l87 71l-16 -30v340l43 -72l-115 90v17l153 58h25l-6 -85h6v-348l-15 29l85 -70v-15h-247z" />
    <glyph glyph-name="o" unicode="o" horiz-adv-x="604" 
d="M297 -13q-75 0 -132.5 31.5t-90 88t-32.5 129.5q0 77 34 135.5t93.5 91.5t137.5 33q76 0 133 -31.5t89.5 -87t32.5 -129.5q0 -76 -34 -135t-93 -92.5t-138 -33.5zM309 44q42 0 73.5 23t49.5 64.5t18 96.5q0 64 -19.5 111.5t-54 73.5t-81.5 26q-41 0 -73 -23t-50 -64.5
t-18 -95.5q0 -64 19.5 -111.5t54 -74t81.5 -26.5z" />
    <glyph glyph-name="p" unicode="p" horiz-adv-x="625" 
d="M315 -13q-89 0 -145 42v93q24 -39 62 -59t87 -20q46 0 80 24.5t53.5 68t19.5 101.5q0 86 -34.5 133.5t-98.5 47.5q-43 0 -77 -17t-66 -55v64h14q30 40 75 63t91 23q64 0 110 -29t71.5 -82.5t25.5 -126.5q0 -79 -34 -140t-95 -96t-139 -35zM34 -235v15l87 71l-16 -28v567
l43 -66l-115 90v17l153 58h25l-6 -79h6v-589l-15 26l110 -67v-15h-272z" />
    <glyph glyph-name="q" unicode="q" horiz-adv-x="595" 
d="M249 -13q-63 0 -109.5 29.5t-72 83t-25.5 125.5q0 80 34.5 141t95 95.5t139.5 34.5q88 0 144 -41v-94q-24 39 -61.5 59.5t-87.5 20.5q-45 0 -79.5 -24t-54 -68t-19.5 -102q0 -87 35 -134.5t98 -47.5q44 0 78 17.5t65 55.5v-65h-14q-30 -40 -74.5 -63t-91.5 -23zM319 -235
v15l110 67l-15 -26v607l91 72h15v-677l-16 28l88 -71v-15h-273z" />
    <glyph glyph-name="r" unicode="r" horiz-adv-x="449" 
d="M34 0v15l87 71l-16 -28v332l43 -66l-115 90v17l153 58h25l-6 -102h6v-331l-15 27l116 -68v-15h-278zM203 322l-7 65h14q28 51 72 80.5t91 29.5q36 0 67 -12l-57 -152h-18l-92 95l88 -25q-51 0 -93 -21.5t-65 -59.5z" />
    <glyph glyph-name="s" unicode="s" horiz-adv-x="510" 
d="M248 -13q-38 0 -77 7.5t-74.5 20.5t-62.5 31l52 110h18l98 -137h-74l-5 78q24 -30 56 -43.5t75 -13.5q51 0 82.5 22t31.5 56q0 30 -22.5 46.5t-57.5 27t-74.5 20.5t-74 26t-57 42.5t-22.5 70.5q0 68 56 106.5t152 38.5q34 0 69 -6t67.5 -17t58.5 -27l-53 -109h-18
l-105 136h81l5 -78q-18 23 -49 36t-64 13q-46 0 -73.5 -17.5t-27.5 -47.5q0 -29 22.5 -45t57.5 -26.5t74.5 -20.5t74.5 -26t57.5 -43t22.5 -72q0 -76 -57 -117.5t-163 -41.5z" />
    <glyph glyph-name="t" unicode="t" horiz-adv-x="453" 
d="M269 -13q-52 0 -91 22t-60 61.5t-21 93.5v303l43 -59h-127v17l166 188h24v-420q0 -64 23.5 -96.5t72.5 -32.5q67 0 113 55l28 -19q-23 -51 -68.5 -82t-102.5 -31zM391 399l-210 27v48l207 24h14v-92z" />
    <glyph glyph-name="u" unicode="u" horiz-adv-x="604" 
d="M241 -13q-77 0 -116 44.5t-39 132.5v237l43 -69l-109 86v17l148 53h25v-294q0 -67 21.5 -96t73.5 -29q41 0 75 18t67 55v-64h-15q-48 -50 -87 -70.5t-87 -20.5zM452 -12l-29 90h-9v324l43 -69l-114 86v16l152 54h25v-404l-41 61l106 -80v-17l-114 -61h-19z" />
    <glyph glyph-name="v" unicode="v" horiz-adv-x="562" 
d="M267 -10l-225 459h36v-61l-76 81v15h236v-15l-71 -74h-11v53l173 -352h-24l122 364v-60h-10l-68 69v15h211v-15l-76 -81v61h36l-226 -459h-27z" />
    <glyph glyph-name="w" unicode="w" horiz-adv-x="874" 
d="M267 -10l-225 459h36v-62l-76 82v15h236v-15l-71 -75h-11v54l173 -352h-27l113 388h44l19 -86l-184 -408h-27zM578 -10l-158 373l16 121h44l165 -387h-26l119 363l1 -60h-10l-69 69v15h212v-15l-77 -81v61h37l-226 -459h-28z" />
    <glyph glyph-name="x" unicode="x" horiz-adv-x="612" 
d="M343 0v15l68 72h11v-54l-341 414h51v-55l-95 77v15h253v-15l-68 -73h-11v54l341 -413h-52v55l96 -77v-15h-253zM16 0v15l113 87v-68h-76l212 230l25 -26l-134 -213v58h10l69 -68v-15h-219zM327 219l-19 27l128 213v-58h-10l-68 68v15h218v-15l-113 -87v68h76z" />
    <glyph glyph-name="y" unicode="y" horiz-adv-x="571" 
d="M264 -61l-226 510h36v-64l-72 84v15h228v-15l-69 -68h-11v47l176 -397l-33 -3l149 412v-56h-11l-72 65v15h210v-15l-71 -81v61h37l-356 -700h-18l-94 88v14l199 144z" />
    <glyph glyph-name="z" unicode="z" horiz-adv-x="524" 
d="M59 0v19l306 465h105v-20l-307 -464h-104zM137 0v40l291 28l-89 -28l110 120h19v-160h-331zM105 333l-50 151h351v-37l-285 -27l85 24l-82 -111h-19z" />
    <glyph glyph-name="braceleft" unicode="{" horiz-adv-x="308" 
d="M288 -212q-93 0 -144.5 37t-51.5 105q0 42 9 73.5t17.5 61.5t8.5 66q0 42 -14.5 67.5t-51.5 45.5q-19 11 -19 21t19 21q37 20 51.5 45.5t14.5 67.5q0 37 -8.5 66.5t-17.5 61t-9 73.5q0 68 51.5 105t144.5 37v-21q-57 0 -84.5 -30t-27.5 -91q0 -42 10 -73.5t19.5 -61
t9.5 -66.5q0 -50 -27.5 -81.5t-86.5 -50.5v-4q59 -18 86.5 -49.5t27.5 -82.5q0 -36 -9.5 -66t-19.5 -61.5t-10 -73.5q0 -61 27.5 -91t84.5 -30v-21z" />
    <glyph glyph-name="bar" unicode="|" horiz-adv-x="203" 
d="M76 -275v1080h51v-1080h-51z" />
    <glyph glyph-name="braceright" unicode="}" horiz-adv-x="308" 
d="M20 -212v21q57 0 84.5 30t27.5 91q0 42 -9.5 73.5t-19.5 61.5t-10 66q0 51 27.5 82.5t86.5 49.5v4q-59 19 -86.5 50.5t-27.5 81.5q0 37 10 66.5t19.5 61t9.5 73.5q0 61 -27.5 91t-84.5 30v21q93 0 144.5 -37t51.5 -105q0 -42 -9 -73.5t-17.5 -61t-8.5 -66.5
q0 -42 14.5 -67.5t51.5 -45.5q19 -11 19 -21t-19 -21q-37 -20 -51.5 -45.5t-14.5 -67.5q0 -36 8.5 -66t17.5 -61.5t9 -73.5q0 -68 -51.5 -105t-144.5 -37z" />
    <glyph glyph-name="asciitilde" unicode="~" horiz-adv-x="518" 
d="M359 287q-37 0 -71.5 14.5t-67 28.5t-65.5 14q-30 0 -49 -12.5t-33 -40.5l-31 15q11 42 42.5 65.5t74.5 23.5q38 0 72 -14t66.5 -28.5t65.5 -14.5q30 0 49.5 12.5t32.5 40.5l31 -15q-10 -40 -42 -64.5t-75 -24.5z" />
    <glyph glyph-name="uni00A0" unicode="&#xa0;" horiz-adv-x="264" 
 />
    <glyph glyph-name="exclamdown" unicode="&#xa1;" horiz-adv-x="252" 
d="M153 284l48 -467l-139 -39l-13 13l51 493h53zM126 496q37 0 60 -21.5t23 -55.5q0 -33 -23 -55t-60 -22q-36 0 -59.5 22t-23.5 55q0 34 23.5 55.5t59.5 21.5z" />
    <glyph glyph-name="cent" unicode="&#xa2;" horiz-adv-x="510" 
d="M283 92q-70 0 -124.5 30t-85.5 83.5t-31 122.5q0 81 34.5 142t94.5 96t139 35q48 0 92 -12.5t82 -37.5l-49 -116h-18l-107 139h81v-72q-35 42 -94 42q-43 0 -75.5 -23.5t-50.5 -65t-18 -97.5q0 -92 44.5 -142.5t124.5 -50.5q84 0 139 53l24 -24q-31 -48 -84 -75t-118 -27
zM260 552v138h48v-138h-48zM260 0v118h48v-118h-48z" />
    <glyph glyph-name="sterling" unicode="&#xa3;" horiz-adv-x="586" 
d="M201 518q0 -45 10 -79.5t22.5 -63t21 -57t6 -59t-22.5 -69t-65 -89.5l-33 -37l6 24h281l89 93h18v-181h-472l-16 29l68 77q34 38 41 71.5t-1.5 67t-24 70t-28.5 80.5t-13 100q0 57 29 100t80 67t117 24q58 0 118.5 -15t110.5 -42l-76 -126h-18l-90 149h83v-82
q-40 60 -133 60q-46 0 -77 -32.5t-31 -79.5zM54 322v46h364v-46h-364z" />
    <glyph glyph-name="currency" unicode="&#xa4;" horiz-adv-x="449" 
d="M225 207q-44 0 -77.5 17.5t-52 48.5t-18.5 71t18.5 71t52 48.5t77.5 17.5q43 0 76.5 -17.5t52 -48.5t18.5 -71t-18.5 -71t-52 -48.5t-76.5 -17.5zM74 162l-31 32l85 85l32 -32zM128 409l-85 85l31 32l86 -85zM225 254q42 0 66.5 24.5t24.5 65.5t-24.5 65.5t-66.5 24.5
q-43 0 -67 -24.5t-24 -65.5t24 -65.5t67 -24.5zM375 162l-86 85l32 32l86 -85zM321 409l-32 32l86 85l32 -32z" />
    <glyph glyph-name="yen" unicode="&#xa5;" horiz-adv-x="612" 
d="M279 276l-249 381l73 -97l-101 93v17h268v-17l-102 -97l-9 101l186 -286h-5l123 286l10 -106l-102 102v17h239v-17l-107 -96l79 100l-256 -381h-47zM172 0v17l77 61v274h114v-274l77 -61v-17h-268zM118 288v46h375v-46h-375zM118 183v46h375v-46h-375z" />
    <glyph glyph-name="brokenbar" unicode="&#xa6;" horiz-adv-x="203" 
d="M76 313v492h51v-492h-51zM76 -275v492h51v-492h-51z" />
    <glyph glyph-name="section" unicode="&#xa7;" horiz-adv-x="600" 
d="M340 88l-9 24q62 23 91 56.5t29 79.5q0 43 -44.5 74t-137.5 55q-118 30 -172 76t-54 117q0 64 32 110t91 71.5t140 25.5q43 0 87.5 -9t85 -24.5t70.5 -37.5l-72 -119h-18l-112 154h104l-6 -95q-22 37 -58.5 54t-87.5 17q-70 0 -110.5 -31t-40.5 -84q0 -42 44.5 -73
t137.5 -56q118 -30 172 -76t54 -117q0 -147 -216 -192zM294 -251q-42 0 -86.5 9t-85 25t-71.5 37l72 119h18l112 -154h-104l6 95q22 -36 58.5 -53.5t88.5 -17.5q69 0 109.5 31t40.5 84q0 43 -44.5 74t-137.5 55q-118 30 -172 76.5t-54 116.5q0 147 216 192l9 -24
q-61 -23 -90.5 -56.5t-29.5 -79.5q0 -42 44.5 -73.5t137.5 -55.5q118 -29 172 -75.5t54 -117.5q0 -63 -32 -109.5t-91 -72t-140 -25.5z" />
    <glyph glyph-name="dieresis" unicode="&#xa8;" horiz-adv-x="416" 
d="M110 567q-30 0 -49 18t-19 46q0 27 19 45t49 18q29 0 48.5 -18t19.5 -45q0 -28 -19.5 -46t-48.5 -18zM319 567q-29 0 -48.5 18t-19.5 46q0 27 19.5 45t48.5 18q31 0 50 -18t19 -45q0 -28 -19 -46t-50 -18z" />
    <glyph glyph-name="copyright" unicode="&#xa9;" horiz-adv-x="849" 
d="M425 -16q-80 0 -149.5 27.5t-121.5 76.5t-81.5 114.5t-29.5 141.5t29.5 142t81.5 115.5t121.5 77t149.5 27.5t149.5 -27.5t121.5 -76.5t81.5 -114.5t29.5 -141.5t-29.5 -142t-81.5 -115.5t-121.5 -77t-149.5 -27.5zM425 37q69 0 128.5 24t104.5 66t70 98t25 121
q0 64 -25 120t-70 98t-104.5 65.5t-128.5 23.5q-70 0 -129 -24t-104 -66t-70.5 -98t-25.5 -121q0 -64 25.5 -120t70.5 -98t104 -65.5t129 -23.5zM424 127q-61 0 -107.5 25.5t-73 71.5t-26.5 104q0 69 29.5 121.5t81 82t118.5 29.5q41 0 78.5 -10.5t70.5 -31.5l-42 -98h-15
l-91 117h69v-61q-30 36 -81 36q-56 0 -90 -43.5t-34 -115.5q0 -79 38 -122t107 -43q72 0 119 45l21 -21q-27 -41 -72 -63.5t-100 -22.5z" />
    <glyph glyph-name="ordfeminine" unicode="&#xaa;" horiz-adv-x="458" 
d="M316 324l-20 59h-11v176q0 51 -21 76t-65 25q-24 0 -45 -9t-34 -27l3 65h62l-80 -106h-13l-41 86q20 12 45 20.5t53 12.5t55 4q79 0 121 -33.5t42 -96.5v-178l-31 46l80 -61v-13l-86 -46h-14zM154 324q-49 0 -80.5 27.5t-31.5 70.5q0 101 158 127l113 18v-33l-77 -19
q-61 -15 -85 -32.5t-24 -47.5q0 -25 16.5 -39t44.5 -14q34 0 61.5 12.5t49.5 35.5v-47h-11q-55 -59 -134 -59zM69 230v50h311v-50h-311z" />
    <glyph glyph-name="guillemotleft" unicode="&#xab;" horiz-adv-x="461" 
d="M217 136l-197 215v8l197 215l21 -14l-98 -205l98 -205zM398 136l-197 215v8l197 215l21 -14l-99 -205l99 -205z" />
    <glyph glyph-name="logicalnot" unicode="&#xac;" horiz-adv-x="518" 
d="M421 126v190h-379v52h434v-242h-55z" />
    <glyph glyph-name="registered" unicode="&#xae;" horiz-adv-x="558" 
d="M279 341q-66 0 -120 30t-85.5 81t-31.5 113q0 63 31.5 113.5t85.5 80.5t120 30q67 0 120.5 -30t85 -80.5t31.5 -113.5q0 -62 -31.5 -113t-85 -81t-120.5 -30zM279 381q56 0 100.5 25t70.5 66.5t26 92.5t-26 93t-70.5 66.5t-100.5 24.5q-54 0 -99 -24.5t-71.5 -66.5
t-26.5 -93t26.5 -92.5t71.5 -66.5t99 -25zM172 448v7l26 24v178l-26 24v7h115q44 0 68 -16.5t24 -48.5q0 -47 -54 -61l50 -81l28 -26v-7h-68l-64 104h-20v-73l25 -24v-7h-104zM251 570h18q23 0 37 14t14 36q0 23 -13.5 35.5t-37.5 12.5h-18v-98z" />
    <glyph glyph-name="macron" unicode="&#xaf;" horiz-adv-x="403" 
d="M42 586v71h319v-71h-319z" />
    <glyph glyph-name="degree" unicode="&#xb0;" horiz-adv-x="412" 
d="M206 398q-48 0 -85 19.5t-58 54.5t-21 80t21 79.5t58 54.5t85 20q49 0 85.5 -20t57.5 -54.5t21 -79.5t-21 -80t-57.5 -54.5t-85.5 -19.5zM206 441q47 0 79.5 32.5t32.5 78.5q0 47 -32.5 78.5t-79.5 31.5t-80 -31.5t-33 -78.5q0 -46 33 -78.5t80 -32.5z" />
    <glyph glyph-name="plusminus" unicode="&#xb1;" horiz-adv-x="518" 
d="M42 0v52h434v-52h-434zM231 126v432h56v-432h-56zM42 316v52h434v-52h-434z" />
    <glyph glyph-name="uni00B2" unicode="&#xb2;" horiz-adv-x="365" 
d="M55 404l-11 19l69 68q43 42 69 74.5t38 58.5t12 49q0 31 -18.5 50t-46.5 19q-24 0 -45 -9.5t-35 -26.5l10 52h51l-59 -89h-10l-37 71q23 17 59.5 27t71.5 10q64 0 102 -25.5t38 -66.5q0 -22 -12 -46t-40.5 -54t-77.5 -73l-77 -72l1 24h151l55 55h10l-9 -115h-259z" />
    <glyph glyph-name="uni00B3" unicode="&#xb3;" horiz-adv-x="377" 
d="M177 392q-36 0 -72 11t-63 30l37 69h9l62 -92l-52 6l-10 54q23 -43 86 -43q33 0 56 22t23 54q0 34 -25.5 56t-65.5 22v28q84 0 128.5 -25.5t44.5 -73.5q0 -52 -44 -85t-114 -33zM162 598v16q35 0 58 20t23 51q0 26 -18.5 41.5t-49.5 15.5q-45 0 -78 -30l5 52l58 1
l-62 -88h-9l-36 68q48 32 129 32q62 0 100 -24.5t38 -62.5q0 -44 -41.5 -68t-116.5 -24z" />
    <glyph glyph-name="acute" unicode="&#xb4;" horiz-adv-x="275" 
d="M59 552l-17 11l86 212h4l101 -67v-3z" />
    <glyph glyph-name="uni00B5" unicode="&#xb5;" horiz-adv-x="604" 
d="M86 189h27v-112l100 -267v-16l-121 -34h-6v429zM241 -13q-77 0 -116 44.5t-39 132.5v237l43 -69l-109 86v17l148 53h25v-294q0 -67 21.5 -96t73.5 -29q41 0 75 18t67 55v-64h-15q-48 -50 -87 -70.5t-87 -20.5zM452 -12l-29 90h-9v324l43 -69l-114 86v16l152 54h25v-404
l-41 61l106 -80v-17l-114 -61h-19z" />
    <glyph glyph-name="paragraph" unicode="&#xb6;" horiz-adv-x="588" 
d="M293 314q-73 0 -130 25t-88.5 70t-31.5 103q0 82 62.5 130t168.5 48h55v-376h-36zM295 -107v797h50v-797h-50zM436 -107v797h122v-17l-93 -74l21 50v-756h-50zM331 638v52h121v-52h-121z" />
    <glyph glyph-name="periodcentered" unicode="&#xb7;" horiz-adv-x="293" 
d="M146 268q-36 0 -59.5 22t-23.5 55q0 34 23.5 56t59.5 22q37 0 60 -22t23 -56q0 -33 -23 -55t-60 -22z" />
    <glyph glyph-name="cedilla" unicode="&#xb8;" horiz-adv-x="291" 
d="M42 -244l14 33q51 -7 85 5.5t34 38.5q0 20 -21 34.5t-59 18.5l52 128h41l-25 -61q49 -7 78 -33.5t29 -63.5q0 -41 -29 -67.5t-80.5 -35t-118.5 2.5z" />
    <glyph glyph-name="uni00B9" unicode="&#xb9;" horiz-adv-x="274" 
d="M37 404v9l66 34v244h-71l-2 8l138 78h8v-330l68 -34v-9h-207z" />
    <glyph glyph-name="ordmasculine" unicode="&#xba;" horiz-adv-x="474" 
d="M233 324q-56 0 -99 24t-67.5 66t-24.5 96q0 58 25.5 102t70.5 69t103 25q57 0 100 -23.5t67 -65.5t24 -97q0 -57 -25.5 -101.5t-70 -69.5t-103.5 -25zM242 369q46 0 75 38t29 98q0 74 -30.5 115.5t-83.5 41.5q-46 0 -75 -38t-29 -99q0 -73 30.5 -114.5t83.5 -41.5z
M74 230v50h326v-50h-326z" />
    <glyph glyph-name="guillemotright" unicode="&#xbb;" horiz-adv-x="461" 
d="M244 136l-21 14l98 205l-98 205l21 14l197 -215v-8zM63 136l-21 14l98 205l-98 205l21 14l197 -215v-8z" />
    <glyph glyph-name="onequarter" unicode="&#xbc;" horiz-adv-x="730" 
d="M68 329v9l66 34v244h-71l-2 8l138 78h8v-330l68 -34v-9h-207zM49 0l566 690h63l-566 -690h-63zM369 94l-10 15l147 252h94v-8l-209 -242l-3 -16zM369 94l18 35h301v-35h-319zM472 0v9l57 33v173h73v-173l57 -33v-9h-187z" />
    <glyph glyph-name="onehalf" unicode="&#xbd;" horiz-adv-x="757" 
d="M68 329v9l66 34v244h-71l-2 8l138 78h8v-330l68 -34v-9h-207zM49 0l566 690h63l-566 -690h-63zM447 0l-10 19l68 68q44 42 70 74.5t37.5 58.5t11.5 49q0 31 -18 50t-47 19q-24 0 -45 -9.5t-35 -26.5l10 52h51l-59 -89h-10l-37 71q23 17 59.5 27t72.5 10q63 0 101 -25.5
t38 -66.5q0 -22 -12 -46t-40.5 -54t-77.5 -73l-77 -72l2 24h150l56 55h9l-8 -115h-260z" />
    <glyph glyph-name="threequarters" unicode="&#xbe;" horiz-adv-x="773" 
d="M177 317q-36 0 -72 11t-63 30l37 69h9l62 -92l-52 6l-10 54q23 -43 86 -43q33 0 56 22t23 54q0 34 -25.5 56t-65.5 22v28q84 0 128.5 -25.5t44.5 -73.5q0 -52 -44 -85t-114 -33zM162 523v16q35 0 58 20t23 51q0 26 -18.5 41.5t-49.5 15.5q-45 0 -78 -30l5 52l58 1
l-62 -88h-9l-36 68q48 32 129 32q62 0 100 -24.5t38 -62.5q0 -44 -41.5 -68t-116.5 -24zM93 0l566 690h63l-566 -690h-63zM402 94l-11 15l147 252h95v-8l-210 -242l-3 -16zM402 94l17 35h301v-35h-318zM504 0v9l57 33v173h73v-173l57 -33v-9h-187z" />
    <glyph glyph-name="questiondown" unicode="&#xbf;" horiz-adv-x="541" 
d="M345 284l8 -55q10 -56 -1 -91t-33.5 -56.5t-50 -35.5t-52.5 -27t-41.5 -30.5t-16.5 -48.5q0 -46 38 -74.5t98 -28.5q81 0 124 72v-96h-97l111 155h18l72 -120q-31 -20 -71 -36.5t-85 -25t-88 -8.5q-72 0 -125 20.5t-82 58.5t-29 88q0 44 16.5 72t42.5 46.5t56 34.5
t58 34.5t47.5 46t25.5 70.5l3 35h54zM315 496q36 0 59.5 -21.5t23.5 -55.5q0 -33 -23.5 -55t-59.5 -22q-37 0 -60 22t-23 55q0 34 23 55.5t60 21.5z" />
    <glyph glyph-name="Agrave" unicode="&#xc0;" horiz-adv-x="722" 
d="M2 0v17l84 79l-47 -83l287 677h70l288 -677l-48 84l84 -80v-17h-274v17l124 81l-5 -85l-261 618h40l-207 -618l-11 85l124 -81v-17h-248zM172 211v52h354v-52h-354zM306 603l-71 70v17h110zM415 738l-224 103v3l78 93h3l156 -185z" />
    <glyph glyph-name="Aacute" unicode="&#xc1;" horiz-adv-x="722" 
d="M2 0v17l84 79l-47 -83l287 677h70l288 -677l-48 84l84 -80v-17h-274v17l124 81l-5 -85l-261 618h40l-207 -618l-11 85l124 -81v-17h-248zM172 211v52h354v-52h-354zM306 603l-71 70v17h110zM281 738l-13 14l157 185h3l77 -93v-3z" />
    <glyph glyph-name="Acircumflex" unicode="&#xc2;" horiz-adv-x="722" 
d="M2 0v17l84 79l-47 -83l287 677h70l288 -677l-48 84l84 -80v-17h-274v17l124 81l-5 -85l-261 618h40l-207 -618l-11 85l124 -81v-17h-248zM172 211v52h354v-52h-354zM306 603l-71 70v17h110zM190 738l-13 13l146 167h50l146 -167l-12 -13l-165 87h12z" />
    <glyph glyph-name="Atilde" unicode="&#xc3;" horiz-adv-x="722" 
d="M2 0v17l84 79l-47 -83l287 677h70l288 -677l-48 84l84 -80v-17h-274v17l124 81l-5 -85l-261 618h40l-207 -618l-11 85l124 -81v-17h-248zM172 211v52h354v-52h-354zM306 603l-71 70v17h110zM424 751q-34 0 -61 9t-52.5 18.5t-54.5 9.5q-53 0 -76 -35l-22 6
q12 53 41.5 81.5t70.5 28.5q35 0 61.5 -9t52 -18.5t54.5 -9.5q54 0 77 35l21 -6q-11 -52 -41 -81t-71 -29z" />
    <glyph glyph-name="Adieresis" unicode="&#xc4;" horiz-adv-x="722" 
d="M2 0v17l84 79l-47 -83l287 677h70l288 -677l-48 84l84 -80v-17h-274v17l124 81l-5 -85l-261 618h40l-207 -618l-11 85l124 -81v-17h-248zM172 211v52h354v-52h-354zM306 603l-71 70v17h110zM242 748q-30 0 -49 17.5t-19 44.5q0 28 19 45t49 17q29 0 48.5 -17t19.5 -45
q0 -27 -19.5 -44.5t-48.5 -17.5zM454 748q-30 0 -49 17.5t-19 44.5q0 28 19 45t49 17t49 -17t19 -45q0 -27 -19 -44.5t-49 -17.5z" />
    <glyph glyph-name="Aring" unicode="&#xc5;" horiz-adv-x="722" 
d="M2 0v17l84 79l-47 -83l287 677h70l288 -677l-48 84l84 -80v-17h-274v17l124 81l-5 -85l-261 618h40l-207 -618l-11 85l124 -81v-17h-248zM172 211v52h354v-52h-354zM306 603l-71 70v17h110zM348 730q-50 0 -81.5 30t-31.5 76t31.5 76t81.5 30q49 0 80.5 -30t31.5 -76
t-31.5 -76t-80.5 -30zM348 773q27 0 45 18t18 45t-18 45t-45 18q-28 0 -45.5 -18t-17.5 -45t18 -45t45 -18z" />
    <glyph glyph-name="AE" unicode="&#xc6;" horiz-adv-x="941" 
d="M2 0v17l73 77l-52 -81l373 677h91l132 -690h-217v17l123 81l-20 -85l-119 618h25l-283 -618l-8 89l121 -84v-18h-239zM195 215v52h315v-52h-315zM569 0v41l285 21v-62h-285zM749 0v42l131 129h18l-6 -171h-143zM770 325l-263 11v44l263 12v-67zM376 602l-94 71v17h133z
M783 260l-83 79v39l83 78h18v-196h-18zM838 628l-412 16v46h412v-62zM851 541l-120 104v45l120 9h13l5 -158h-18z" />
    <glyph glyph-name="Ccedilla" unicode="&#xc7;" horiz-adv-x="695" 
d="M393 -16q-107 0 -186 42.5t-121.5 121t-42.5 184.5q0 80 27 148t75.5 119t113.5 79t141 28q44 0 89 -9t85.5 -24.5t69.5 -37.5l-71 -119h-18l-113 154h99v-95q-43 71 -144 71q-67 0 -119 -37t-81.5 -102.5t-29.5 -150.5q0 -89 31 -157.5t86 -106.5t128 -38q64 0 113.5 27
t91.5 85l36 -21q-41 -76 -108.5 -118.5t-151.5 -42.5zM273 -244l14 33q51 -7 85 5.5t34 38.5q0 20 -21 34.5t-59 18.5l52 128h41l-25 -61q49 -7 78 -33.5t29 -63.5q0 -41 -29 -67.5t-80.5 -35t-118.5 2.5z" />
    <glyph glyph-name="Egrave" unicode="&#xc8;" horiz-adv-x="623" 
d="M29 0v17l77 61v534l-77 61v17h191v-690h-191zM195 0v44l340 18v-62h-340zM431 0v42l131 129h18l-6 -171h-143zM450 323l-262 11v43l262 12v-66zM464 258l-84 79v38l84 79h18v-196h-18zM535 628l-340 18v44h340v-62zM549 541l-121 104v45l121 9h13l5 -158h-18zM379 738
l-224 103v3l77 93h3l157 -185z" />
    <glyph glyph-name="Eacute" unicode="&#xc9;" horiz-adv-x="623" 
d="M29 0v17l77 61v534l-77 61v17h191v-690h-191zM195 0v44l340 18v-62h-340zM431 0v42l131 129h18l-6 -171h-143zM450 323l-262 11v43l262 12v-66zM464 258l-84 79v38l84 79h18v-196h-18zM535 628l-340 18v44h340v-62zM549 541l-121 104v45l121 9h13l5 -158h-18zM245 738
l-13 14l157 185h3l77 -93v-3z" />
    <glyph glyph-name="Ecircumflex" unicode="&#xca;" horiz-adv-x="623" 
d="M29 0v17l77 61v534l-77 61v17h191v-690h-191zM195 0v44l340 18v-62h-340zM431 0v42l131 129h18l-6 -171h-143zM450 323l-262 11v43l262 12v-66zM464 258l-84 79v38l84 79h18v-196h-18zM535 628l-340 18v44h340v-62zM549 541l-121 104v45l121 9h13l5 -158h-18zM154 738
l-13 13l146 167h50l146 -167l-12 -13l-165 87h12z" />
    <glyph glyph-name="Edieresis" unicode="&#xcb;" horiz-adv-x="623" 
d="M29 0v17l77 61v534l-77 61v17h191v-690h-191zM195 0v44l340 18v-62h-340zM431 0v42l131 129h18l-6 -171h-143zM450 323l-262 11v43l262 12v-66zM464 258l-84 79v38l84 79h18v-196h-18zM535 628l-340 18v44h340v-62zM549 541l-121 104v45l121 9h13l5 -158h-18zM206 748
q-30 0 -49 17.5t-19 44.5q0 28 19 45t49 17q29 0 48.5 -17t19.5 -45q0 -27 -19.5 -44.5t-48.5 -17.5zM418 748q-30 0 -49 17.5t-19 44.5q0 28 19 45t49 17t49 -17t19 -45q0 -27 -19 -44.5t-49 -17.5z" />
    <glyph glyph-name="Igrave" unicode="&#xcc;" horiz-adv-x="327" 
d="M29 0v17l77 61v534l-77 61v17h269v-17l-78 -61v-534l78 -61v-17h-269zM231 738l-224 103v3l77 93h3l157 -185z" />
    <glyph glyph-name="Iacute" unicode="&#xcd;" horiz-adv-x="327" 
d="M29 0v17l77 61v534l-77 61v17h269v-17l-78 -61v-534l78 -61v-17h-269zM97 738l-13 14l157 185h3l77 -93v-3z" />
    <glyph glyph-name="Icircumflex" unicode="&#xce;" horiz-adv-x="327" 
d="M29 0v17l77 61v534l-77 61v17h269v-17l-78 -61v-534l78 -61v-17h-269zM5 738l-13 13l146 167h50l146 -167l-12 -13l-165 87h12z" />
    <glyph glyph-name="Idieresis" unicode="&#xcf;" horiz-adv-x="327" 
d="M29 0v17l77 61v534l-77 61v17h269v-17l-78 -61v-534l78 -61v-17h-269zM57 748q-30 0 -49 17.5t-19 44.5q0 28 19 45t49 17q29 0 48.5 -17t19.5 -45q0 -27 -19.5 -44.5t-48.5 -17.5zM269 748q-30 0 -49 17.5t-19 44.5q0 28 19 45t49 17t49 -17t19 -45q0 -27 -19 -44.5
t-49 -17.5z" />
    <glyph glyph-name="Eth" unicode="&#xd0;" horiz-adv-x="748" 
d="M184 0v52h143q82 0 138 33.5t86 96t30 152.5q0 93 -30 161.5t-85 105.5t-130 37h-152v52h164q106 0 186.5 -42t125.5 -117.5t45 -174.5q0 -79 -27.5 -144t-77.5 -112.5t-119.5 -73.5t-152.5 -26h-144zM29 0v17l77 61v534l-77 61v17h191v-690h-191zM29 324v57h347v-57
h-347z" />
    <glyph glyph-name="Ntilde" unicode="&#xd1;" horiz-adv-x="740" 
d="M589 -5l-455 582v113h47l433 -553l-24 -9l-43 484l-77 61v17h241v-17l-77 -61v-617h-45zM29 0v17l77 61l14 514l-71 81v17h108l37 -612l77 -61v-17h-242zM445 751q-34 0 -61 9t-52.5 18.5t-54.5 9.5q-53 0 -76 -35l-22 6q12 53 41.5 81.5t70.5 28.5q35 0 61.5 -9
t52 -18.5t54.5 -9.5q54 0 77 35l21 -6q-11 -52 -41 -81t-71 -29z" />
    <glyph glyph-name="Ograve" unicode="&#xd2;" horiz-adv-x="785" 
d="M386 -16q-101 0 -179 44.5t-121 124.5t-43 185q0 109 45 192t125 129.5t186 46.5q102 0 179.5 -44.5t120.5 -124t43 -185.5q0 -109 -45 -192t-125 -129.5t-186 -46.5zM403 44q66 0 114 35t74 99t26 153q0 97 -29 167.5t-81.5 109t-124.5 38.5q-66 0 -114.5 -34.5
t-74.5 -99t-26 -153.5q0 -96 29 -167t82 -109.5t125 -38.5zM460 738l-224 103v3l77 93h4l156 -185z" />
    <glyph glyph-name="Oacute" unicode="&#xd3;" horiz-adv-x="785" 
d="M386 -16q-101 0 -179 44.5t-121 124.5t-43 185q0 109 45 192t125 129.5t186 46.5q102 0 179.5 -44.5t120.5 -124t43 -185.5q0 -109 -45 -192t-125 -129.5t-186 -46.5zM403 44q66 0 114 35t74 99t26 153q0 97 -29 167.5t-81.5 109t-124.5 38.5q-66 0 -114.5 -34.5
t-74.5 -99t-26 -153.5q0 -96 29 -167t82 -109.5t125 -38.5zM326 738l-13 14l157 185h3l77 -93v-3z" />
    <glyph glyph-name="Ocircumflex" unicode="&#xd4;" horiz-adv-x="785" 
d="M386 -16q-101 0 -179 44.5t-121 124.5t-43 185q0 109 45 192t125 129.5t186 46.5q102 0 179.5 -44.5t120.5 -124t43 -185.5q0 -109 -45 -192t-125 -129.5t-186 -46.5zM403 44q66 0 114 35t74 99t26 153q0 97 -29 167.5t-81.5 109t-124.5 38.5q-66 0 -114.5 -34.5
t-74.5 -99t-26 -153.5q0 -96 29 -167t82 -109.5t125 -38.5zM235 738l-13 13l146 167h50l146 -167l-12 -13l-165 87h12z" />
    <glyph glyph-name="Otilde" unicode="&#xd5;" horiz-adv-x="785" 
d="M386 -16q-101 0 -179 44.5t-121 124.5t-43 185q0 109 45 192t125 129.5t186 46.5q102 0 179.5 -44.5t120.5 -124t43 -185.5q0 -109 -45 -192t-125 -129.5t-186 -46.5zM403 44q66 0 114 35t74 99t26 153q0 97 -29 167.5t-81.5 109t-124.5 38.5q-66 0 -114.5 -34.5
t-74.5 -99t-26 -153.5q0 -96 29 -167t82 -109.5t125 -38.5zM469 751q-34 0 -61 9t-52.5 18.5t-54.5 9.5q-53 0 -76 -35l-22 6q12 53 41.5 81.5t70.5 28.5q35 0 61.5 -9t52 -18.5t54.5 -9.5q54 0 77 35l21 -6q-11 -52 -41 -81t-71 -29z" />
    <glyph glyph-name="Odieresis" unicode="&#xd6;" horiz-adv-x="785" 
d="M386 -16q-101 0 -179 44.5t-121 124.5t-43 185q0 109 45 192t125 129.5t186 46.5q102 0 179.5 -44.5t120.5 -124t43 -185.5q0 -109 -45 -192t-125 -129.5t-186 -46.5zM403 44q66 0 114 35t74 99t26 153q0 97 -29 167.5t-81.5 109t-124.5 38.5q-66 0 -114.5 -34.5
t-74.5 -99t-26 -153.5q0 -96 29 -167t82 -109.5t125 -38.5zM287 748q-30 0 -49 17.5t-19 44.5q0 28 19 45t49 17q29 0 48.5 -17t19.5 -45q0 -27 -19.5 -44.5t-48.5 -17.5zM499 748q-30 0 -49 17.5t-19 44.5q0 28 19 45t49 17t49 -17t19 -45q0 -27 -19 -44.5t-49 -17.5z" />
    <glyph glyph-name="multiply" unicode="&#xd7;" horiz-adv-x="518" 
d="M440 124l36 36l-398 398l-36 -36zM78 124l398 398l-36 36l-398 -398z" />
    <glyph glyph-name="Oslash" unicode="&#xd8;" horiz-adv-x="785" 
d="M386 -16q-101 0 -179 44.5t-121 124.5t-43 185q0 109 45 192t125 129.5t186 46.5q102 0 179.5 -44.5t120.5 -124t43 -185.5q0 -109 -45 -192t-125 -129.5t-186 -46.5zM403 44q66 0 114 35t74 99t26 153q0 97 -29 167.5t-81.5 109t-124.5 38.5q-66 0 -114.5 -34.5
t-74.5 -99t-26 -153.5q0 -96 29 -167t82 -109.5t125 -38.5zM108 -17l528 753l42 -30l-528 -753z" />
    <glyph glyph-name="Ugrave" unicode="&#xd9;" horiz-adv-x="708" 
d="M549 607l-89 66v17h246v-17l-78 -66v-326q0 -94 -31.5 -160.5t-90.5 -101.5t-142 -35q-141 0 -213 69t-72 206v353l-77 61v17h268v-17l-77 -61v-325q0 -121 43 -177.5t135 -56.5t135 56.5t43 177.5v320zM435 738l-224 103v3l77 93h3l157 -185z" />
    <glyph glyph-name="Uacute" unicode="&#xda;" horiz-adv-x="708" 
d="M549 607l-89 66v17h246v-17l-78 -66v-326q0 -94 -31.5 -160.5t-90.5 -101.5t-142 -35q-141 0 -213 69t-72 206v353l-77 61v17h268v-17l-77 -61v-325q0 -121 43 -177.5t135 -56.5t135 56.5t43 177.5v320zM301 738l-13 14l157 185h3l77 -93v-3z" />
    <glyph glyph-name="Ucircumflex" unicode="&#xdb;" horiz-adv-x="708" 
d="M549 607l-89 66v17h246v-17l-78 -66v-326q0 -94 -31.5 -160.5t-90.5 -101.5t-142 -35q-141 0 -213 69t-72 206v353l-77 61v17h268v-17l-77 -61v-325q0 -121 43 -177.5t135 -56.5t135 56.5t43 177.5v320zM209 738l-13 13l146 167h50l146 -167l-12 -13l-165 87h12z" />
    <glyph glyph-name="Udieresis" unicode="&#xdc;" horiz-adv-x="708" 
d="M549 607l-89 66v17h246v-17l-78 -66v-326q0 -94 -31.5 -160.5t-90.5 -101.5t-142 -35q-141 0 -213 69t-72 206v353l-77 61v17h268v-17l-77 -61v-325q0 -121 43 -177.5t135 -56.5t135 56.5t43 177.5v320zM261 748q-30 0 -49 17.5t-19 44.5q0 28 19 45t49 17q29 0 48.5 -17
t19.5 -45q0 -27 -19.5 -44.5t-48.5 -17.5zM473 748q-30 0 -49 17.5t-19 44.5q0 28 19 45t49 17t49 -17t19 -45q0 -27 -19 -44.5t-49 -17.5z" />
    <glyph glyph-name="Yacute" unicode="&#xdd;" horiz-adv-x="686" 
d="M315 206l-288 471l58 -82l-83 78v17h268v-17l-134 -95l17 99l229 -374h-6l169 374l16 -92l-122 88v17h245v-17l-80 -75l56 79l-295 -471h-50zM210 0v17l77 61v208h114v-208l78 -61v-17h-269zM287 738l-13 14l157 185h3l77 -93v-3z" />
    <glyph glyph-name="Thorn" unicode="&#xde;" horiz-adv-x="619" 
d="M29 0v17l77 61v534l-77 61v17h269v-17l-78 -61v-534l78 -61v-17h-269zM168 144v51h133q67 0 109.5 43.5t42.5 112.5q0 71 -41 112t-111 41h-151v52h173q78 0 134.5 -24t88 -67.5t31.5 -103.5q0 -65 -35.5 -114t-99 -76t-150.5 -27h-124z" />
    <glyph glyph-name="germandbls" unicode="&#xdf;" horiz-adv-x="662" 
d="M34 0v15l87 71l-16 -28v338l43 -72l-115 90v17l106 40l-34 -39v102q0 72 28.5 127t79 85.5t117.5 30.5q66 0 115 -23t76 -64t27 -95q0 -53 -30.5 -94.5t-84 -64.5t-124.5 -23v32q65 0 97.5 37.5t32.5 110.5q0 60 -29 94.5t-80 34.5q-56 0 -87.5 -42t-31.5 -118v-562h-177
zM402 -13q-44 0 -85 11.5t-73 33.5l52 109h18l107 -127h-97v60q13 -19 29.5 -28t37.5 -9q54 0 86 43t32 116q0 57 -24.5 99t-69.5 65.5t-106 23.5v56q97 0 166.5 -27.5t107 -78t37.5 -121.5q0 -66 -28 -117t-77 -80t-113 -29zM374 414v28h46v-28h-46z" />
    <glyph glyph-name="agrave" unicode="&#xe0;" horiz-adv-x="565" 
d="M412 -12l-27 78h-10v237q0 67 -30 101t-89 34q-31 0 -59.5 -13t-46.5 -35l5 83h83l-107 -140h-18l-53 114q26 15 59 26t70 17.5t74 6.5q109 0 163.5 -43.5t54.5 -130.5v-238l-41 61l106 -80v-17l-115 -61h-19zM196 -13q-66 0 -107.5 36.5t-41.5 94.5q0 134 210 169
l152 24v-43l-107 -26q-81 -19 -113.5 -42.5t-32.5 -64.5q0 -33 22 -52t61 -19q92 0 151 62v-60h-14q-38 -40 -82 -59.5t-98 -19.5zM318 552l-174 153v3l102 67h3l86 -212z" />
    <glyph glyph-name="aacute" unicode="&#xe1;" horiz-adv-x="565" 
d="M412 -12l-27 78h-10v237q0 67 -30 101t-89 34q-31 0 -59.5 -13t-46.5 -35l5 83h83l-107 -140h-18l-53 114q26 15 59 26t70 17.5t74 6.5q109 0 163.5 -43.5t54.5 -130.5v-238l-41 61l106 -80v-17l-115 -61h-19zM196 -13q-66 0 -107.5 36.5t-41.5 94.5q0 134 210 169
l152 24v-43l-107 -26q-81 -19 -113.5 -42.5t-32.5 -64.5q0 -33 22 -52t61 -19q92 0 151 62v-60h-14q-38 -40 -82 -59.5t-98 -19.5zM248 552l-17 11l86 212h4l101 -67v-3z" />
    <glyph glyph-name="acircumflex" unicode="&#xe2;" horiz-adv-x="565" 
d="M412 -12l-27 78h-10v237q0 67 -30 101t-89 34q-31 0 -59.5 -13t-46.5 -35l5 83h83l-107 -140h-18l-53 114q26 15 59 26t70 17.5t74 6.5q109 0 163.5 -43.5t54.5 -130.5v-238l-41 61l106 -80v-17l-115 -61h-19zM196 -13q-66 0 -107.5 36.5t-41.5 94.5q0 134 210 169
l152 24v-43l-107 -26q-81 -19 -113.5 -42.5t-32.5 -64.5q0 -33 22 -52t61 -19q92 0 151 62v-60h-14q-38 -40 -82 -59.5t-98 -19.5zM152 553l-17 11l129 209h37l129 -209l-17 -11l-136 107h12z" />
    <glyph glyph-name="atilde" unicode="&#xe3;" horiz-adv-x="565" 
d="M412 -12l-27 78h-10v237q0 67 -30 101t-89 34q-31 0 -59.5 -13t-46.5 -35l5 83h83l-107 -140h-18l-53 114q26 15 59 26t70 17.5t74 6.5q109 0 163.5 -43.5t54.5 -130.5v-238l-41 61l106 -80v-17l-115 -61h-19zM196 -13q-66 0 -107.5 36.5t-41.5 94.5q0 134 210 169
l152 24v-43l-107 -26q-81 -19 -113.5 -42.5t-32.5 -64.5q0 -33 22 -52t61 -19q92 0 151 62v-60h-14q-38 -40 -82 -59.5t-98 -19.5zM364 559q-34 0 -61 12.5t-52 25.5t-53 13t-47.5 -12.5t-30.5 -36.5l-22 6q13 57 42.5 89.5t69.5 32.5q35 0 61.5 -13t51.5 -25.5t53 -12.5
t48 12.5t30 36.5l22 -6q-12 -57 -42 -89.5t-70 -32.5z" />
    <glyph glyph-name="adieresis" unicode="&#xe4;" horiz-adv-x="565" 
d="M412 -12l-27 78h-10v237q0 67 -30 101t-89 34q-31 0 -59.5 -13t-46.5 -35l5 83h83l-107 -140h-18l-53 114q26 15 59 26t70 17.5t74 6.5q109 0 163.5 -43.5t54.5 -130.5v-238l-41 61l106 -80v-17l-115 -61h-19zM196 -13q-66 0 -107.5 36.5t-41.5 94.5q0 134 210 169
l152 24v-43l-107 -26q-81 -19 -113.5 -42.5t-32.5 -64.5q0 -33 22 -52t61 -19q92 0 151 62v-60h-14q-38 -40 -82 -59.5t-98 -19.5zM177 567q-30 0 -49 18t-19 46q0 27 19 45t49 18q29 0 48.5 -18t19.5 -45q0 -28 -19.5 -46t-48.5 -18zM386 567q-29 0 -48.5 18t-19.5 46
q0 27 19.5 45t48.5 18q31 0 50 -18t19 -45q0 -28 -19 -46t-50 -18z" />
    <glyph glyph-name="aring" unicode="&#xe5;" horiz-adv-x="565" 
d="M412 -12l-27 78h-10v237q0 67 -30 101t-89 34q-31 0 -59.5 -13t-46.5 -35l5 83h83l-107 -140h-18l-53 114q26 15 59 26t70 17.5t74 6.5q109 0 163.5 -43.5t54.5 -130.5v-238l-41 61l106 -80v-17l-115 -61h-19zM196 -13q-66 0 -107.5 36.5t-41.5 94.5q0 134 210 169
l152 24v-43l-107 -26q-81 -19 -113.5 -42.5t-32.5 -64.5q0 -33 22 -52t61 -19q92 0 151 62v-60h-14q-38 -40 -82 -59.5t-98 -19.5zM282 555q-54 0 -89 32.5t-35 83.5q0 52 35 84.5t89 32.5q55 0 89.5 -32.5t34.5 -84.5q0 -51 -34.5 -83.5t-89.5 -32.5zM282 599q32 0 52 20.5
t20 51.5q0 33 -20 52.5t-52 19.5q-31 0 -51.5 -19.5t-20.5 -52.5q0 -31 20.5 -51.5t51.5 -20.5z" />
    <glyph glyph-name="ae" unicode="&#xe6;" horiz-adv-x="873" 
d="M375 268v35q0 67 -30 101t-89 34q-31 0 -59.5 -13t-46.5 -35l5 83h83l-107 -140h-18l-53 114q26 15 59 26t70 17.5t74 6.5q66 0 115 -21.5t76 -60.5t27 -92v-55h-106zM196 -13q-66 0 -107.5 36.5t-41.5 94.5q0 62 55 102t155 52l152 18v-48l-107 -15q-78 -12 -112 -33.5
t-34 -60.5q0 -32 22 -50.5t61 -18.5q53 0 103 22t84 60l3 -65h-14q-43 -46 -99 -70t-120 -24zM616 -13q-70 0 -124.5 30.5t-85 84t-30.5 122.5q0 60 18.5 110t52.5 86t81 56t103 20q61 0 105.5 -27t69 -77t24.5 -117l-382 -30v45l265 36q0 52 -28 82.5t-75 30.5
q-37 0 -65 -23.5t-43.5 -65.5t-15.5 -97q0 -91 44 -141.5t123 -50.5q87 0 142 53l24 -24q-31 -49 -84.5 -76t-118.5 -27z" />
    <glyph glyph-name="ccedilla" unicode="&#xe7;" horiz-adv-x="510" 
d="M283 -13q-70 0 -124.5 30.5t-85.5 84t-31 122.5q0 80 34.5 141.5t94.5 96t139 34.5q48 0 92 -12.5t82 -37.5l-49 -115h-18l-107 138h81v-71q-35 41 -94 41q-43 0 -75.5 -23t-50.5 -64.5t-18 -98.5q0 -91 44.5 -141.5t124.5 -50.5q84 0 139 53l24 -24q-31 -49 -84 -76
t-118 -27zM170 -244l14 33q51 -7 85 5.5t34 38.5q0 20 -21 34.5t-59 18.5l52 128h41l-25 -61q49 -7 78 -33.5t29 -63.5q0 -41 -29 -67.5t-80.5 -35t-118.5 2.5z" />
    <glyph glyph-name="egrave" unicode="&#xe8;" horiz-adv-x="540" 
d="M283 -13q-70 0 -124.5 30.5t-85.5 84t-31 122.5q0 80 33 141.5t90.5 96t132.5 34.5q61 0 106 -29.5t69.5 -84t24.5 -129.5h-383v39l263 25q0 57 -27.5 89.5t-73.5 32.5q-36 0 -64.5 -23.5t-44 -65.5t-15.5 -97q0 -91 44 -141.5t124 -50.5q86 0 142 53l24 -24
q-32 -49 -85 -76t-119 -27zM323 552l-174 153v3l102 67h3l86 -212z" />
    <glyph glyph-name="eacute" unicode="&#xe9;" horiz-adv-x="540" 
d="M283 -13q-70 0 -124.5 30.5t-85.5 84t-31 122.5q0 80 33 141.5t90.5 96t132.5 34.5q61 0 106 -29.5t69.5 -84t24.5 -129.5h-383v39l263 25q0 57 -27.5 89.5t-73.5 32.5q-36 0 -64.5 -23.5t-44 -65.5t-15.5 -97q0 -91 44 -141.5t124 -50.5q86 0 142 53l24 -24
q-32 -49 -85 -76t-119 -27zM253 552l-17 11l86 212h4l101 -67v-3z" />
    <glyph glyph-name="ecircumflex" unicode="&#xea;" horiz-adv-x="540" 
d="M283 -13q-70 0 -124.5 30.5t-85.5 84t-31 122.5q0 80 33 141.5t90.5 96t132.5 34.5q61 0 106 -29.5t69.5 -84t24.5 -129.5h-383v39l263 25q0 57 -27.5 89.5t-73.5 32.5q-36 0 -64.5 -23.5t-44 -65.5t-15.5 -97q0 -91 44 -141.5t124 -50.5q86 0 142 53l24 -24
q-32 -49 -85 -76t-119 -27zM157 553l-17 11l129 209h37l129 -209l-17 -11l-136 107h12z" />
    <glyph glyph-name="edieresis" unicode="&#xeb;" horiz-adv-x="540" 
d="M283 -13q-70 0 -124.5 30.5t-85.5 84t-31 122.5q0 80 33 141.5t90.5 96t132.5 34.5q61 0 106 -29.5t69.5 -84t24.5 -129.5h-383v39l263 25q0 57 -27.5 89.5t-73.5 32.5q-36 0 -64.5 -23.5t-44 -65.5t-15.5 -97q0 -91 44 -141.5t124 -50.5q86 0 142 53l24 -24
q-32 -49 -85 -76t-119 -27zM183 567q-30 0 -49 18t-19 46q0 27 19 45t49 18q29 0 48.5 -18t19.5 -45q0 -28 -19.5 -46t-48.5 -18zM392 567q-29 0 -48.5 18t-19.5 46q0 27 19.5 45t48.5 18q31 0 50 -18t19 -45q0 -28 -19 -46t-50 -18z" />
    <glyph glyph-name="igrave" unicode="&#xec;" horiz-adv-x="302" 
d="M34 0v15l87 71l-16 -28v332l43 -65l-115 89v17l153 58h25v-433l-15 29l86 -70v-15h-248zM195 552l-174 153v3l102 67h3l86 -212z" />
    <glyph glyph-name="iacute" unicode="&#xed;" horiz-adv-x="302" 
d="M34 0v15l87 71l-16 -28v332l43 -65l-115 89v17l153 58h25v-433l-15 29l86 -70v-15h-248zM125 552l-17 11l86 212h4l101 -67v-3z" />
    <glyph glyph-name="icircumflex" unicode="&#xee;" horiz-adv-x="302" 
d="M34 0v15l87 71l-16 -28v332l43 -65l-115 89v17l153 58h25v-433l-15 29l86 -70v-15h-248zM52 553l-17 11l106 209h36l106 -209l-17 -11l-113 101h12z" />
    <glyph glyph-name="idieresis" unicode="&#xef;" horiz-adv-x="302" 
d="M34 0v15l87 71l-16 -28v332l43 -65l-115 89v17l153 58h25v-433l-15 29l86 -70v-15h-248zM228 567q-28 0 -45.5 18t-17.5 46q0 29 17.5 46.5t45.5 17.5q27 0 45 -17.5t18 -46.5q0 -28 -18 -46t-45 -18zM72 567q-27 0 -45 18t-18 46q0 29 18 46.5t45 17.5t44.5 -17.5
t17.5 -46.5q0 -28 -17.5 -46t-44.5 -18z" />
    <glyph glyph-name="eth" unicode="&#xf0;" horiz-adv-x="604" 
d="M297 -13q-75 0 -132.5 31.5t-90 88t-32.5 129.5q0 77 34 135.5t93.5 91.5t137.5 33q45 0 80 -13.5t64 -44.5h47v-182h-48q0 88 -40 135.5t-115 47.5q-41 0 -73 -23t-50 -64.5t-18 -95.5q0 -64 19.5 -111.5t54 -74t81.5 -26.5q67 0 104 55.5t37 156.5v104q0 118 -78 210
t-229 148v9l16 41h4q192 -61 295 -188t103 -300q0 -90 -32 -155.5t-91 -101.5t-141 -36zM168 535v52l301 157v-52z" />
    <glyph glyph-name="ntilde" unicode="&#xf1;" horiz-adv-x="648" 
d="M381 0v15l86 71l-16 -28v232q0 67 -24 96t-80 29q-44 0 -80 -18t-71 -57v64h14q92 93 184 93q81 0 122 -45.5t41 -134.5v-261l-16 29l87 -70v-15h-247zM34 0v15l87 71l-16 -30v340l43 -72l-115 90v17l153 58h25l-6 -85h6v-348l-15 29l85 -70v-15h-247zM415 559
q-34 0 -61 12.5t-52 25.5t-53 13t-47.5 -12.5t-30.5 -36.5l-22 6q13 57 42.5 89.5t69.5 32.5q35 0 61.5 -13t51.5 -25.5t53 -12.5t48 12.5t30 36.5l22 -6q-12 -57 -42 -89.5t-70 -32.5z" />
    <glyph glyph-name="ograve" unicode="&#xf2;" horiz-adv-x="604" 
d="M297 -13q-75 0 -132.5 31.5t-90 88t-32.5 129.5q0 77 34 135.5t93.5 91.5t137.5 33q76 0 133 -31.5t89.5 -87t32.5 -129.5q0 -76 -34 -135t-93 -92.5t-138 -33.5zM309 44q42 0 73.5 23t49.5 64.5t18 96.5q0 64 -19.5 111.5t-54 73.5t-81.5 26q-41 0 -73 -23t-50 -64.5
t-18 -95.5q0 -64 19.5 -111.5t54 -74t81.5 -26.5zM338 552l-174 153v3l101 67h4l86 -212z" />
    <glyph glyph-name="oacute" unicode="&#xf3;" horiz-adv-x="604" 
d="M297 -13q-75 0 -132.5 31.5t-90 88t-32.5 129.5q0 77 34 135.5t93.5 91.5t137.5 33q76 0 133 -31.5t89.5 -87t32.5 -129.5q0 -76 -34 -135t-93 -92.5t-138 -33.5zM309 44q42 0 73.5 23t49.5 64.5t18 96.5q0 64 -19.5 111.5t-54 73.5t-81.5 26q-41 0 -73 -23t-50 -64.5
t-18 -95.5q0 -64 19.5 -111.5t54 -74t81.5 -26.5zM268 552l-17 11l86 212h4l101 -67v-3z" />
    <glyph glyph-name="ocircumflex" unicode="&#xf4;" horiz-adv-x="604" 
d="M297 -13q-75 0 -132.5 31.5t-90 88t-32.5 129.5q0 77 34 135.5t93.5 91.5t137.5 33q76 0 133 -31.5t89.5 -87t32.5 -129.5q0 -76 -34 -135t-93 -92.5t-138 -33.5zM309 44q42 0 73.5 23t49.5 64.5t18 96.5q0 64 -19.5 111.5t-54 73.5t-81.5 26q-41 0 -73 -23t-50 -64.5
t-18 -95.5q0 -64 19.5 -111.5t54 -74t81.5 -26.5zM172 553l-17 11l129 209h37l129 -209l-17 -11l-136 107h12z" />
    <glyph glyph-name="otilde" unicode="&#xf5;" horiz-adv-x="604" 
d="M297 -13q-75 0 -132.5 31.5t-90 88t-32.5 129.5q0 77 34 135.5t93.5 91.5t137.5 33q76 0 133 -31.5t89.5 -87t32.5 -129.5q0 -76 -34 -135t-93 -92.5t-138 -33.5zM309 44q42 0 73.5 23t49.5 64.5t18 96.5q0 64 -19.5 111.5t-54 73.5t-81.5 26q-41 0 -73 -23t-50 -64.5
t-18 -95.5q0 -64 19.5 -111.5t54 -74t81.5 -26.5zM384 559q-34 0 -61 12.5t-52 25.5t-53 13t-47.5 -12.5t-30.5 -36.5l-22 6q13 57 42.5 89.5t69.5 32.5q35 0 61.5 -13t51.5 -25.5t53 -12.5t48 12.5t30 36.5l22 -6q-12 -57 -42 -89.5t-70 -32.5z" />
    <glyph glyph-name="odieresis" unicode="&#xf6;" horiz-adv-x="604" 
d="M297 -13q-75 0 -132.5 31.5t-90 88t-32.5 129.5q0 77 34 135.5t93.5 91.5t137.5 33q76 0 133 -31.5t89.5 -87t32.5 -129.5q0 -76 -34 -135t-93 -92.5t-138 -33.5zM309 44q42 0 73.5 23t49.5 64.5t18 96.5q0 64 -19.5 111.5t-54 73.5t-81.5 26q-41 0 -73 -23t-50 -64.5
t-18 -95.5q0 -64 19.5 -111.5t54 -74t81.5 -26.5zM197 567q-30 0 -49 18t-19 46q0 27 19 45t49 18q29 0 48.5 -18t19.5 -45q0 -28 -19.5 -46t-48.5 -18zM406 567q-29 0 -48.5 18t-19.5 46q0 27 19.5 45t48.5 18q31 0 50 -18t19 -45q0 -28 -19 -46t-50 -18z" />
    <glyph glyph-name="divide" unicode="&#xf7;" horiz-adv-x="518" 
d="M42 316v52h434v-52h-434zM259 137q-21 0 -34.5 13t-13.5 33t13.5 33t34.5 13t34.5 -13t13.5 -33t-13.5 -33t-34.5 -13zM259 455q-21 0 -34.5 13t-13.5 32q0 21 13.5 34t34.5 13t34.5 -13t13.5 -34q0 -19 -13.5 -32t-34.5 -13z" />
    <glyph glyph-name="oslash" unicode="&#xf8;" horiz-adv-x="604" 
d="M297 -13q-75 0 -132.5 31.5t-90 88t-32.5 129.5q0 77 34 135.5t93.5 91.5t137.5 33q76 0 133 -31.5t89.5 -87t32.5 -129.5q0 -76 -34 -135t-93 -92.5t-138 -33.5zM309 44q42 0 73.5 23t49.5 64.5t18 96.5q0 64 -19.5 111.5t-54 73.5t-81.5 26q-41 0 -73 -23t-50 -64.5
t-18 -95.5q0 -64 19.5 -111.5t54 -74t81.5 -26.5zM130 -43l-36 25l380 544l36 -25z" />
    <glyph glyph-name="ugrave" unicode="&#xf9;" horiz-adv-x="604" 
d="M241 -13q-77 0 -116 44.5t-39 132.5v237l43 -69l-109 86v17l148 53h25v-294q0 -67 21.5 -96t73.5 -29q41 0 75 18t67 55v-64h-15q-48 -50 -87 -70.5t-87 -20.5zM452 -12l-29 90h-9v324l43 -69l-114 86v16l152 54h25v-404l-41 61l106 -80v-17l-114 -61h-19zM338 552
l-173 153v3l101 67h3l86 -212z" />
    <glyph glyph-name="uacute" unicode="&#xfa;" horiz-adv-x="604" 
d="M241 -13q-77 0 -116 44.5t-39 132.5v237l43 -69l-109 86v17l148 53h25v-294q0 -67 21.5 -96t73.5 -29q41 0 75 18t67 55v-64h-15q-48 -50 -87 -70.5t-87 -20.5zM452 -12l-29 90h-9v324l43 -69l-114 86v16l152 54h25v-404l-41 61l106 -80v-17l-114 -61h-19zM268 552
l-17 11l86 212h4l101 -67v-3z" />
    <glyph glyph-name="ucircumflex" unicode="&#xfb;" horiz-adv-x="604" 
d="M241 -13q-77 0 -116 44.5t-39 132.5v237l43 -69l-109 86v17l148 53h25v-294q0 -67 21.5 -96t73.5 -29q41 0 75 18t67 55v-64h-15q-48 -50 -87 -70.5t-87 -20.5zM452 -12l-29 90h-9v324l43 -69l-114 86v16l152 54h25v-404l-41 61l106 -80v-17l-114 -61h-19zM172 553
l-17 11l129 209h37l129 -209l-17 -11l-136 107h12z" />
    <glyph glyph-name="udieresis" unicode="&#xfc;" horiz-adv-x="604" 
d="M241 -13q-77 0 -116 44.5t-39 132.5v237l43 -69l-109 86v17l148 53h25v-294q0 -67 21.5 -96t73.5 -29q41 0 75 18t67 55v-64h-15q-48 -50 -87 -70.5t-87 -20.5zM452 -12l-29 90h-9v324l43 -69l-114 86v16l152 54h25v-404l-41 61l106 -80v-17l-114 -61h-19zM198 567
q-30 0 -49 18t-19 46q0 27 19 45t49 18q29 0 48.5 -18t19.5 -45q0 -28 -19.5 -46t-48.5 -18zM407 567q-29 0 -48.5 18t-19.5 46q0 27 19.5 45t48.5 18q31 0 50 -18t19 -45q0 -28 -19 -46t-50 -18z" />
    <glyph glyph-name="yacute" unicode="&#xfd;" horiz-adv-x="571" 
d="M264 -61l-226 510h36v-64l-72 84v15h228v-15l-69 -68h-11v47l176 -397l-33 -3l149 412v-56h-11l-72 65v15h210v-15l-71 -81v61h37l-356 -700h-18l-94 88v14l199 144zM263 552l-17 11l86 212h4l101 -67v-3z" />
    <glyph glyph-name="thorn" unicode="&#xfe;" horiz-adv-x="625" 
d="M34 -235v15l87 71l-16 -28v844l43 -67l-115 89v17l153 59h25v-944l-15 26l110 -67v-15h-272zM315 -13q-89 0 -145 42v93q24 -39 62 -59t87 -20q46 0 80 24.5t53.5 68t19.5 101.5q0 86 -34.5 133.5t-98.5 47.5q-43 0 -77 -17t-66 -55v64h14q30 40 75 63t91 23
q64 0 110 -29t71.5 -82.5t25.5 -126.5q0 -79 -34 -140t-95 -96t-139 -35z" />
    <glyph glyph-name="ydieresis" unicode="&#xff;" horiz-adv-x="571" 
d="M264 -61l-226 510h36v-64l-72 84v15h228v-15l-69 -68h-11v47l176 -397l-33 -3l149 412v-56h-11l-72 65v15h210v-15l-71 -81v61h37l-356 -700h-18l-94 88v14l199 144zM193 567q-30 0 -49 18t-19 46q0 27 19 45t49 18q29 0 48.5 -18t19.5 -45q0 -28 -19.5 -46t-48.5 -18z
M402 567q-29 0 -48.5 18t-19.5 46q0 27 19.5 45t48.5 18q31 0 50 -18t19 -45q0 -28 -19 -46t-50 -18z" />
    <glyph glyph-name="Amacron" unicode="&#x100;" horiz-adv-x="722" 
d="M2 0v17l84 79l-47 -83l287 677h70l288 -677l-48 84l84 -80v-17h-274v17l124 81l-5 -85l-261 618h40l-207 -618l-11 85l124 -81v-17h-248zM172 211v52h354v-52h-354zM306 603l-71 70v17h110zM177 772v71h342v-71h-342z" />
    <glyph glyph-name="amacron" unicode="&#x101;" horiz-adv-x="565" 
d="M412 -12l-27 78h-10v237q0 67 -30 101t-89 34q-31 0 -59.5 -13t-46.5 -35l5 83h83l-107 -140h-18l-53 114q26 15 59 26t70 17.5t74 6.5q109 0 163.5 -43.5t54.5 -130.5v-238l-41 61l106 -80v-17l-115 -61h-19zM196 -13q-66 0 -107.5 36.5t-41.5 94.5q0 134 210 169
l152 24v-43l-107 -26q-81 -19 -113.5 -42.5t-32.5 -64.5q0 -33 22 -52t61 -19q92 0 151 62v-60h-14q-38 -40 -82 -59.5t-98 -19.5zM123 586v71h319v-71h-319z" />
    <glyph glyph-name="Abreve" unicode="&#x102;" horiz-adv-x="722" 
d="M2 0v17l84 79l-47 -83l287 677h70l288 -677l-48 84l84 -80v-17h-274v17l124 81l-5 -85l-261 618h40l-207 -618l-11 85l124 -81v-17h-248zM172 211v52h354v-52h-354zM306 603l-71 70v17h110zM348 747q-66 0 -108.5 41.5t-44.5 107.5l17 4q15 -33 52.5 -53t83.5 -20
q47 0 84.5 20t51.5 53l17 -4q-2 -66 -44.5 -107.5t-108.5 -41.5z" />
    <glyph glyph-name="abreve" unicode="&#x103;" horiz-adv-x="565" 
d="M412 -12l-27 78h-10v237q0 67 -30 101t-89 34q-31 0 -59.5 -13t-46.5 -35l5 83h83l-107 -140h-18l-53 114q26 15 59 26t70 17.5t74 6.5q109 0 163.5 -43.5t54.5 -130.5v-238l-41 61l106 -80v-17l-115 -61h-19zM196 -13q-66 0 -107.5 36.5t-41.5 94.5q0 134 210 169
l152 24v-43l-107 -26q-81 -19 -113.5 -42.5t-32.5 -64.5q0 -33 22 -52t61 -19q92 0 151 62v-60h-14q-38 -40 -82 -59.5t-98 -19.5zM283 560q-70 0 -111 48t-41 131l17 2q17 -48 52 -74t82 -26q49 0 83.5 26t51.5 74l17 -2q0 -83 -41 -131t-110 -48z" />
    <glyph glyph-name="Aogonek" unicode="&#x104;" horiz-adv-x="722" 
d="M2 0v17l84 79l-47 -83l287 677h70l288 -677l-48 84l84 -80v-17h-274v17l124 81l-5 -85l-261 618h40l-207 -618l-11 85l124 -81v-17h-248zM172 211v52h354v-52h-354zM306 603l-71 70v17h110zM584 -251q-49 0 -79.5 29.5t-30.5 77.5q0 46 23 83t64 59v22h50v-20
q-23 -18 -36.5 -47.5t-13.5 -62.5q0 -69 65 -69q21 0 41.5 9t34.5 25l15 -10q-13 -46 -48.5 -71t-84.5 -25z" />
    <glyph glyph-name="aogonek" unicode="&#x105;" horiz-adv-x="565" 
d="M412 -12l-27 78h-10v237q0 67 -30 101t-89 34q-31 0 -59.5 -13t-46.5 -35l5 83h83l-107 -140h-18l-53 114q26 15 59 26t70 17.5t74 6.5q109 0 163.5 -43.5t54.5 -130.5v-238l-41 61l106 -80v-17l-115 -61h-19zM196 -13q-66 0 -107.5 36.5t-41.5 94.5q0 134 210 169
l152 24v-43l-107 -26q-81 -19 -113.5 -42.5t-32.5 -64.5q0 -33 22 -52t61 -19q92 0 151 62v-60h-14q-38 -40 -82 -59.5t-98 -19.5zM404 -251q-48 0 -76.5 28t-28.5 73q0 56 36.5 101.5t95.5 62.5v-26q-22 -16 -34 -41t-12 -59q0 -67 62 -67q20 0 40.5 9t35.5 25l14 -10
q-13 -44 -48.5 -70t-84.5 -26z" />
    <glyph glyph-name="Cacute" unicode="&#x106;" horiz-adv-x="695" 
d="M393 -16q-107 0 -186 42.5t-121.5 121t-42.5 184.5q0 80 27 148t75.5 119t113.5 79t141 28q44 0 89 -9t85.5 -24.5t69.5 -37.5l-71 -119h-18l-113 154h99v-95q-43 71 -144 71q-67 0 -119 -37t-81.5 -102.5t-29.5 -150.5q0 -89 31 -157.5t86 -106.5t128 -38q64 0 113.5 27
t91.5 85l36 -21q-41 -76 -108.5 -118.5t-151.5 -42.5zM335 738l-13 14l157 185h3l77 -93v-3z" />
    <glyph glyph-name="cacute" unicode="&#x107;" horiz-adv-x="510" 
d="M283 -13q-70 0 -124.5 30.5t-85.5 84t-31 122.5q0 80 34.5 141.5t94.5 96t139 34.5q48 0 92 -12.5t82 -37.5l-49 -115h-18l-107 138h81v-71q-35 41 -94 41q-43 0 -75.5 -23t-50.5 -64.5t-18 -98.5q0 -91 44.5 -141.5t124.5 -50.5q84 0 139 53l24 -24q-31 -49 -84 -76
t-118 -27zM257 552l-17 11l86 212h4l101 -67v-3z" />
    <glyph glyph-name="Ccircumflex" unicode="&#x108;" horiz-adv-x="695" 
d="M393 -16q-107 0 -186 42.5t-121.5 121t-42.5 184.5q0 80 27 148t75.5 119t113.5 79t141 28q44 0 89 -9t85.5 -24.5t69.5 -37.5l-71 -119h-18l-113 154h99v-95q-43 71 -144 71q-67 0 -119 -37t-81.5 -102.5t-29.5 -150.5q0 -89 31 -157.5t86 -106.5t128 -38q64 0 113.5 27
t91.5 85l36 -21q-41 -76 -108.5 -118.5t-151.5 -42.5zM243 738l-13 13l146 167h50l146 -167l-12 -13l-165 87h12z" />
    <glyph glyph-name="ccircumflex" unicode="&#x109;" horiz-adv-x="510" 
d="M283 -13q-70 0 -124.5 30.5t-85.5 84t-31 122.5q0 80 34.5 141.5t94.5 96t139 34.5q48 0 92 -12.5t82 -37.5l-49 -115h-18l-107 138h81v-71q-35 41 -94 41q-43 0 -75.5 -23t-50.5 -64.5t-18 -98.5q0 -91 44.5 -141.5t124.5 -50.5q84 0 139 53l24 -24q-31 -49 -84 -76
t-118 -27zM161 553l-17 11l129 209h37l129 -209l-17 -11l-136 107h12z" />
    <glyph glyph-name="Cdotaccent" unicode="&#x10a;" horiz-adv-x="695" 
d="M393 -16q-107 0 -186 42.5t-121.5 121t-42.5 184.5q0 80 27 148t75.5 119t113.5 79t141 28q44 0 89 -9t85.5 -24.5t69.5 -37.5l-71 -119h-18l-113 154h99v-95q-43 71 -144 71q-67 0 -119 -37t-81.5 -102.5t-29.5 -150.5q0 -89 31 -157.5t86 -106.5t128 -38q64 0 113.5 27
t91.5 85l36 -21q-41 -76 -108.5 -118.5t-151.5 -42.5zM401 747q-34 0 -55.5 20t-21.5 52q0 31 21.5 51.5t55.5 20.5t55 -20.5t21 -51.5q0 -32 -21 -52t-55 -20z" />
    <glyph glyph-name="cdotaccent" unicode="&#x10b;" horiz-adv-x="510" 
d="M283 -13q-70 0 -124.5 30.5t-85.5 84t-31 122.5q0 80 34.5 141.5t94.5 96t139 34.5q48 0 92 -12.5t82 -37.5l-49 -115h-18l-107 138h81v-71q-35 41 -94 41q-43 0 -75.5 -23t-50.5 -64.5t-18 -98.5q0 -91 44.5 -141.5t124.5 -50.5q84 0 139 53l24 -24q-31 -49 -84 -76
t-118 -27zM292 560q-35 0 -56 20t-21 52q0 31 21 51t56 20q34 0 55 -20t21 -51q0 -32 -21 -52t-55 -20z" />
    <glyph glyph-name="Ccaron" unicode="&#x10c;" horiz-adv-x="695" 
d="M393 -16q-107 0 -186 42.5t-121.5 121t-42.5 184.5q0 80 27 148t75.5 119t113.5 79t141 28q44 0 89 -9t85.5 -24.5t69.5 -37.5l-71 -119h-18l-113 154h99v-95q-43 71 -144 71q-67 0 -119 -37t-81.5 -102.5t-29.5 -150.5q0 -89 31 -157.5t86 -106.5t128 -38q64 0 113.5 27
t91.5 85l36 -21q-41 -76 -108.5 -118.5t-151.5 -42.5zM247 927l165 -87h-12l164 87l13 -13l-146 -167h-50l-146 167z" />
    <glyph glyph-name="ccaron" unicode="&#x10d;" horiz-adv-x="510" 
d="M283 -13q-70 0 -124.5 30.5t-85.5 84t-31 122.5q0 80 34.5 141.5t94.5 96t139 34.5q48 0 92 -12.5t82 -37.5l-49 -115h-18l-107 138h81v-71q-35 41 -94 41q-43 0 -75.5 -23t-50.5 -64.5t-18 -98.5q0 -91 44.5 -141.5t124.5 -50.5q84 0 139 53l24 -24q-31 -49 -84 -76
t-118 -27zM162 780l136 -107h-12l136 107l17 -11l-129 -209h-37l-129 209z" />
    <glyph glyph-name="Dcaron" unicode="&#x10e;" horiz-adv-x="748" 
d="M184 0v52h143q82 0 138 33.5t86 96t30 152.5q0 93 -30 161.5t-85 105.5t-130 37h-152v52h164q106 0 186.5 -42t125.5 -117.5t45 -174.5q0 -79 -27.5 -144t-77.5 -112.5t-119.5 -73.5t-152.5 -26h-144zM29 0v17l77 61v534l-77 61v17h191v-690h-191zM193 927l165 -87h-12
l164 87l13 -13l-146 -167h-50l-146 167z" />
    <glyph glyph-name="dcaron" unicode="&#x10f;" horiz-adv-x="605" 
d="M451 -12l-27 85h-10v594l43 -67l-115 89v17l153 59h25v-680l-41 61l106 -80v-17l-116 -61h-18zM249 -13q-63 0 -109.5 29.5t-72 83t-25.5 125.5q0 80 34.5 141t95 95.5t139.5 34.5q88 0 144 -41v-94q-24 39 -61.5 59.5t-87.5 20.5q-45 0 -79.5 -24t-54 -68t-19.5 -102
q0 -87 35 -134.5t98 -47.5q44 0 78 17.5t65 55.5v-65h-14q-30 -40 -74.5 -63t-91.5 -23zM585 552l-20 4l17 209l2 3l111 -30l1 -3z" />
    <glyph glyph-name="Dcroat" unicode="&#x110;" horiz-adv-x="748" 
d="M184 0v52h143q82 0 138 33.5t86 96t30 152.5q0 93 -30 161.5t-85 105.5t-130 37h-152v52h164q106 0 186.5 -42t125.5 -117.5t45 -174.5q0 -79 -27.5 -144t-77.5 -112.5t-119.5 -73.5t-152.5 -26h-144zM29 0v17l77 61v534l-77 61v17h191v-690h-191zM29 324v57h347v-57
h-347z" />
    <glyph glyph-name="dcroat" unicode="&#x111;" horiz-adv-x="605" 
d="M451 -12l-27 85h-10v594l43 -67l-115 89v17l153 59h25v-680l-41 61l106 -80v-17l-116 -61h-18zM249 -13q-63 0 -109.5 29.5t-72 83t-25.5 125.5q0 80 34.5 141t95 95.5t139.5 34.5q88 0 144 -41v-94q-24 39 -61.5 59.5t-87.5 20.5q-45 0 -79.5 -24t-54 -68t-19.5 -102
q0 -87 35 -134.5t98 -47.5q44 0 78 17.5t65 55.5v-65h-14q-30 -40 -74.5 -63t-91.5 -23zM262 538v48h323v-48h-323z" />
    <glyph glyph-name="Emacron" unicode="&#x112;" horiz-adv-x="623" 
d="M29 0v17l77 61v534l-77 61v17h191v-690h-191zM195 0v44l340 18v-62h-340zM431 0v42l131 129h18l-6 -171h-143zM450 323l-262 11v43l262 12v-66zM464 258l-84 79v38l84 79h18v-196h-18zM535 628l-340 18v44h340v-62zM549 541l-121 104v45l121 9h13l5 -158h-18zM141 772v71
h342v-71h-342z" />
    <glyph glyph-name="emacron" unicode="&#x113;" horiz-adv-x="540" 
d="M283 -13q-70 0 -124.5 30.5t-85.5 84t-31 122.5q0 80 33 141.5t90.5 96t132.5 34.5q61 0 106 -29.5t69.5 -84t24.5 -129.5h-383v39l263 25q0 57 -27.5 89.5t-73.5 32.5q-36 0 -64.5 -23.5t-44 -65.5t-15.5 -97q0 -91 44 -141.5t124 -50.5q86 0 142 53l24 -24
q-32 -49 -85 -76t-119 -27zM128 586v71h319v-71h-319z" />
    <glyph glyph-name="Ebreve" unicode="&#x114;" horiz-adv-x="623" 
d="M29 0v17l77 61v534l-77 61v17h191v-690h-191zM195 0v44l340 18v-62h-340zM431 0v42l131 129h18l-6 -171h-143zM450 323l-262 11v43l262 12v-66zM464 258l-84 79v38l84 79h18v-196h-18zM535 628l-340 18v44h340v-62zM549 541l-121 104v45l121 9h13l5 -158h-18zM312 747
q-66 0 -108.5 41.5t-44.5 107.5l17 4q15 -33 52.5 -53t83.5 -20q47 0 84.5 20t51.5 53l17 -4q-2 -66 -44.5 -107.5t-108.5 -41.5z" />
    <glyph glyph-name="ebreve" unicode="&#x115;" horiz-adv-x="540" 
d="M283 -13q-70 0 -124.5 30.5t-85.5 84t-31 122.5q0 80 33 141.5t90.5 96t132.5 34.5q61 0 106 -29.5t69.5 -84t24.5 -129.5h-383v39l263 25q0 57 -27.5 89.5t-73.5 32.5q-36 0 -64.5 -23.5t-44 -65.5t-15.5 -97q0 -91 44 -141.5t124 -50.5q86 0 142 53l24 -24
q-32 -49 -85 -76t-119 -27zM288 560q-70 0 -111 48t-41 131l17 2q17 -48 52 -74t82 -26q49 0 83.5 26t51.5 74l17 -2q0 -83 -41 -131t-110 -48z" />
    <glyph glyph-name="Edotaccent" unicode="&#x116;" horiz-adv-x="623" 
d="M29 0v17l77 61v534l-77 61v17h191v-690h-191zM195 0v44l340 18v-62h-340zM431 0v42l131 129h18l-6 -171h-143zM450 323l-262 11v43l262 12v-66zM464 258l-84 79v38l84 79h18v-196h-18zM535 628l-340 18v44h340v-62zM549 541l-121 104v45l121 9h13l5 -158h-18zM311 747
q-34 0 -55.5 20t-21.5 52q0 31 21.5 51.5t55.5 20.5t55 -20.5t21 -51.5q0 -32 -21 -52t-55 -20z" />
    <glyph glyph-name="edotaccent" unicode="&#x117;" horiz-adv-x="540" 
d="M283 -13q-70 0 -124.5 30.5t-85.5 84t-31 122.5q0 80 33 141.5t90.5 96t132.5 34.5q61 0 106 -29.5t69.5 -84t24.5 -129.5h-383v39l263 25q0 57 -27.5 89.5t-73.5 32.5q-36 0 -64.5 -23.5t-44 -65.5t-15.5 -97q0 -91 44 -141.5t124 -50.5q86 0 142 53l24 -24
q-32 -49 -85 -76t-119 -27zM288 560q-35 0 -56 20t-21 52q0 31 21 51t56 20q34 0 55 -20t21 -51q0 -32 -21 -52t-55 -20z" />
    <glyph glyph-name="Eogonek" unicode="&#x118;" horiz-adv-x="623" 
d="M29 0v17l77 61v534l-77 61v17h191v-690h-191zM195 0v44l340 18v-62h-340zM431 0v42l131 129h18l-6 -171h-143zM450 323l-262 11v43l262 12v-66zM464 258l-84 79v38l84 79h18v-196h-18zM535 628l-340 18v44h340v-62zM549 541l-121 104v45l121 9h13l5 -158h-18zM430 -251
q-49 0 -79.5 29.5t-30.5 77.5q0 46 23 83t64 59v22h50v-20q-23 -18 -36.5 -47.5t-13.5 -62.5q0 -69 65 -69q21 0 41.5 9t34.5 25l15 -10q-13 -46 -48.5 -71t-84.5 -25z" />
    <glyph glyph-name="eogonek" unicode="&#x119;" horiz-adv-x="540" 
d="M283 -13q-70 0 -124.5 30.5t-85.5 84t-31 122.5q0 80 33 141.5t90.5 96t132.5 34.5q61 0 106 -29.5t69.5 -84t24.5 -129.5h-383v39l263 25q0 57 -27.5 89.5t-73.5 32.5q-36 0 -64.5 -23.5t-44 -65.5t-15.5 -97q0 -91 44 -141.5t124 -50.5q86 0 142 53l24 -24
q-32 -49 -85 -76t-119 -27zM343 -251q-48 0 -76.5 28t-28.5 73q0 36 22.5 73t62.5 64v42h78v-16q-36 -20 -56.5 -54t-20.5 -71q0 -67 61 -67q21 0 41.5 9t34.5 25l15 -10q-13 -44 -49 -70t-84 -26z" />
    <glyph glyph-name="Ecaron" unicode="&#x11a;" horiz-adv-x="623" 
d="M29 0v17l77 61v534l-77 61v17h191v-690h-191zM195 0v44l340 18v-62h-340zM431 0v42l131 129h18l-6 -171h-143zM450 323l-262 11v43l262 12v-66zM464 258l-84 79v38l84 79h18v-196h-18zM535 628l-340 18v44h340v-62zM549 541l-121 104v45l121 9h13l5 -158h-18zM157 927
l165 -87h-12l164 87l13 -13l-146 -167h-50l-146 167z" />
    <glyph glyph-name="ecaron" unicode="&#x11b;" horiz-adv-x="540" 
d="M283 -13q-70 0 -124.5 30.5t-85.5 84t-31 122.5q0 80 33 141.5t90.5 96t132.5 34.5q61 0 106 -29.5t69.5 -84t24.5 -129.5h-383v39l263 25q0 57 -27.5 89.5t-73.5 32.5q-36 0 -64.5 -23.5t-44 -65.5t-15.5 -97q0 -91 44 -141.5t124 -50.5q86 0 142 53l24 -24
q-32 -49 -85 -76t-119 -27zM157 780l136 -107h-12l137 107l17 -11l-129 -209h-37l-129 209z" />
    <glyph glyph-name="Gcircumflex" unicode="&#x11c;" horiz-adv-x="762" 
d="M393 -16q-107 0 -186 42.5t-121.5 121t-42.5 184.5q0 80 27 148t75.5 119t113.5 79t141 28q48 0 97 -8.5t92 -24t71 -35.5l-72 -120h-18l-121 155h102l4 -89q-28 32 -66.5 47t-91.5 15q-67 0 -119 -37t-81.5 -102.5t-29.5 -150.5q0 -90 31 -159t86 -107.5t128 -38.5
q83 0 129 34.5t51 99.5l36 -20q-16 -89 -75.5 -135t-159.5 -46zM655 -16l-101 80v187l-87 65v18h266v-18l-65 -59v-273h-13zM240 738l-13 13l146 167h50l146 -167l-12 -13l-165 87h12z" />
    <glyph glyph-name="gcircumflex" unicode="&#x11d;" horiz-adv-x="582" 
d="M281 -251q-74 0 -130 17.5t-86.5 49t-30.5 72.5q0 34 23.5 61t61.5 36v30h66v-35q-46 -27 -46 -82q0 -46 45.5 -73t122.5 -27q74 0 117.5 27t43.5 73q0 37 -26 59.5t-71 22.5h-203q-51 0 -82 28t-31 75q0 30 12.5 53.5t34.5 37.5t50 15l33 -28q-24 0 -37 -11.5t-13 -31.5
q0 -22 16.5 -32t52.5 -10h181q80 0 128.5 -39.5t48.5 -105.5q0 -53 -36 -94.5t-99 -64.5t-146 -23zM271 143q-61 0 -108.5 22t-74.5 60.5t-27 88.5q0 55 29 96t80 63.5t119 22.5q25 0 49.5 -4t44.5 -12v-15q59 -32 86 -66.5t27 -78.5q0 -52 -29 -92t-79.5 -62.5
t-116.5 -22.5zM284 194q50 0 78 29.5t28 81.5q0 65 -30.5 102.5t-83.5 37.5q-49 0 -77.5 -29.5t-28.5 -81.5q0 -64 31 -102t83 -38zM545 427l-148 34l-7 -14l-74 36l241 57l5 -5v-108h-17zM145 553l-17 11l129 209h37l129 -209l-17 -11l-136 107h12z" />
    <glyph glyph-name="Gbreve" unicode="&#x11e;" horiz-adv-x="762" 
d="M393 -16q-107 0 -186 42.5t-121.5 121t-42.5 184.5q0 80 27 148t75.5 119t113.5 79t141 28q48 0 97 -8.5t92 -24t71 -35.5l-72 -120h-18l-121 155h102l4 -89q-28 32 -66.5 47t-91.5 15q-67 0 -119 -37t-81.5 -102.5t-29.5 -150.5q0 -90 31 -159t86 -107.5t128 -38.5
q83 0 129 34.5t51 99.5l36 -20q-16 -89 -75.5 -135t-159.5 -46zM655 -16l-101 80v187l-87 65v18h266v-18l-65 -59v-273h-13zM399 747q-66 0 -108.5 41.5t-44.5 107.5l17 4q15 -33 52.5 -53t83.5 -20q47 0 84.5 20t51.5 53l17 -4q-2 -66 -44.5 -107.5t-108.5 -41.5z" />
    <glyph glyph-name="gbreve" unicode="&#x11f;" horiz-adv-x="582" 
d="M281 -251q-74 0 -130 17.5t-86.5 49t-30.5 72.5q0 34 23.5 61t61.5 36v30h66v-35q-46 -27 -46 -82q0 -46 45.5 -73t122.5 -27q74 0 117.5 27t43.5 73q0 37 -26 59.5t-71 22.5h-203q-51 0 -82 28t-31 75q0 30 12.5 53.5t34.5 37.5t50 15l33 -28q-24 0 -37 -11.5t-13 -31.5
q0 -22 16.5 -32t52.5 -10h181q80 0 128.5 -39.5t48.5 -105.5q0 -53 -36 -94.5t-99 -64.5t-146 -23zM271 143q-61 0 -108.5 22t-74.5 60.5t-27 88.5q0 55 29 96t80 63.5t119 22.5q25 0 49.5 -4t44.5 -12v-15q59 -32 86 -66.5t27 -78.5q0 -52 -29 -92t-79.5 -62.5
t-116.5 -22.5zM284 194q50 0 78 29.5t28 81.5q0 65 -30.5 102.5t-83.5 37.5q-49 0 -77.5 -29.5t-28.5 -81.5q0 -64 31 -102t83 -38zM545 427l-148 34l-7 -14l-74 36l241 57l5 -5v-108h-17zM276 560q-70 0 -111 48t-41 131l17 2q17 -48 52 -74t82 -26q49 0 83.5 26t51.5 74
l17 -2q0 -83 -41 -131t-110 -48z" />
    <glyph glyph-name="Gdotaccent" unicode="&#x120;" horiz-adv-x="762" 
d="M393 -16q-107 0 -186 42.5t-121.5 121t-42.5 184.5q0 80 27 148t75.5 119t113.5 79t141 28q48 0 97 -8.5t92 -24t71 -35.5l-72 -120h-18l-121 155h102l4 -89q-28 32 -66.5 47t-91.5 15q-67 0 -119 -37t-81.5 -102.5t-29.5 -150.5q0 -90 31 -159t86 -107.5t128 -38.5
q83 0 129 34.5t51 99.5l36 -20q-16 -89 -75.5 -135t-159.5 -46zM655 -16l-101 80v187l-87 65v18h266v-18l-65 -59v-273h-13zM398 747q-34 0 -55.5 20t-21.5 52q0 31 21.5 51.5t55.5 20.5t55 -20.5t21 -51.5q0 -32 -21 -52t-55 -20z" />
    <glyph glyph-name="gdotaccent" unicode="&#x121;" horiz-adv-x="582" 
d="M281 -251q-74 0 -130 17.5t-86.5 49t-30.5 72.5q0 34 23.5 61t61.5 36v30h66v-35q-46 -27 -46 -82q0 -46 45.5 -73t122.5 -27q74 0 117.5 27t43.5 73q0 37 -26 59.5t-71 22.5h-203q-51 0 -82 28t-31 75q0 30 12.5 53.5t34.5 37.5t50 15l33 -28q-24 0 -37 -11.5t-13 -31.5
q0 -22 16.5 -32t52.5 -10h181q80 0 128.5 -39.5t48.5 -105.5q0 -53 -36 -94.5t-99 -64.5t-146 -23zM271 143q-61 0 -108.5 22t-74.5 60.5t-27 88.5q0 55 29 96t80 63.5t119 22.5q25 0 49.5 -4t44.5 -12v-15q59 -32 86 -66.5t27 -78.5q0 -52 -29 -92t-79.5 -62.5
t-116.5 -22.5zM284 194q50 0 78 29.5t28 81.5q0 65 -30.5 102.5t-83.5 37.5q-49 0 -77.5 -29.5t-28.5 -81.5q0 -64 31 -102t83 -38zM545 427l-148 34l-7 -14l-74 36l241 57l5 -5v-108h-17zM276 560q-35 0 -56 20t-21 52q0 31 21 51t56 20q34 0 55 -20t21 -51q0 -32 -21 -52
t-55 -20z" />
    <glyph glyph-name="uni0122" unicode="&#x122;" horiz-adv-x="762" 
d="M393 -16q-107 0 -186 42.5t-121.5 121t-42.5 184.5q0 80 27 148t75.5 119t113.5 79t141 28q48 0 97 -8.5t92 -24t71 -35.5l-72 -120h-18l-121 155h102l4 -89q-28 32 -66.5 47t-91.5 15q-67 0 -119 -37t-81.5 -102.5t-29.5 -150.5q0 -90 31 -159t86 -107.5t128 -38.5
q83 0 129 34.5t51 99.5l36 -20q-16 -89 -75.5 -135t-159.5 -46zM655 -16l-101 80v187l-87 65v18h266v-18l-65 -59v-273h-13zM299 -301l-6 29q35 6 55.5 25t20.5 46l-65 42v5q0 31 22.5 53.5t54.5 22.5q37 0 59.5 -24t22.5 -64q0 -38 -20.5 -67.5t-57 -47.5t-86.5 -20z" />
    <glyph glyph-name="uni0123" unicode="&#x123;" horiz-adv-x="582" 
d="M281 -251q-74 0 -130 17.5t-86.5 49t-30.5 72.5q0 34 23.5 61t61.5 36v30h66v-35q-46 -27 -46 -82q0 -46 45.5 -73t122.5 -27q74 0 117.5 27t43.5 73q0 37 -26 59.5t-71 22.5h-203q-51 0 -82 28t-31 75q0 30 12.5 53.5t34.5 37.5t50 15l33 -28q-24 0 -37 -11.5t-13 -31.5
q0 -22 16.5 -32t52.5 -10h181q80 0 128.5 -39.5t48.5 -105.5q0 -53 -36 -94.5t-99 -64.5t-146 -23zM271 143q-61 0 -108.5 22t-74.5 60.5t-27 88.5q0 55 29 96t80 63.5t119 22.5q25 0 49.5 -4t44.5 -12v-15q59 -32 86 -66.5t27 -78.5q0 -52 -29 -92t-79.5 -62.5
t-116.5 -22.5zM284 194q50 0 78 29.5t28 81.5q0 65 -30.5 102.5t-83.5 37.5q-49 0 -77.5 -29.5t-28.5 -81.5q0 -64 31 -102t83 -38zM545 427l-148 34l-7 -14l-74 36l241 57l5 -5v-108h-17zM361 781l5 -29q-34 -5 -55 -24t-21 -46l65 -43v-5q0 -31 -22.5 -53t-54.5 -22
q-37 0 -59.5 24t-22.5 63t20.5 68.5t57.5 47t87 19.5z" />
    <glyph glyph-name="Hcircumflex" unicode="&#x124;" horiz-adv-x="770" 
d="M473 0v17l76 61v534l-76 61v17h267v-17l-77 -61v-534l77 -61v-17h-267zM29 0v17l77 61v534l-77 61v17h267v-17l-76 -61v-534l76 -61v-17h-267zM180 329v57h410v-57h-410zM227 738l-13 13l146 167h50l146 -167l-12 -13l-165 87h12z" />
    <glyph glyph-name="hcircumflex" unicode="&#x125;" horiz-adv-x="648" 
d="M381 0v15l86 71l-16 -28v232q0 67 -24 96t-80 29q-44 0 -80 -18t-71 -57v64h14q92 93 184 93q81 0 122 -45.5t41 -134.5v-261l-16 29l87 -70v-15h-247zM34 0v15l87 71l-16 -28v609l43 -67l-115 89v17l153 59h25v-709l-15 29l85 -70v-15h-247zM3 793l-13 13l146 167h50
l146 -167l-12 -13l-165 87h12z" />
    <glyph glyph-name="Hbar" unicode="&#x126;" horiz-adv-x="770" 
d="M473 0v17l76 61v534l-76 61v17h267v-17l-77 -61v-534l77 -61v-17h-267zM29 0v17l77 61v534l-77 61v17h267v-17l-76 -61v-534l76 -61v-17h-267zM180 329v57h410v-57h-410zM30 485v55h710v-55h-710z" />
    <glyph glyph-name="hbar" unicode="&#x127;" horiz-adv-x="648" 
d="M381 0v15l86 71l-16 -28v232q0 67 -24 96t-80 29q-44 0 -80 -18t-71 -57v64h14q92 93 184 93q81 0 122 -45.5t41 -134.5v-261l-16 29l87 -70v-15h-247zM34 0v15l87 71l-16 -28v609l43 -67l-115 89v17l153 59h25v-709l-15 29l85 -70v-15h-247zM32 538v48h323v-48h-323z
" />
    <glyph glyph-name="Itilde" unicode="&#x128;" horiz-adv-x="327" 
d="M29 0v17l77 61v534l-77 61v17h269v-17l-78 -61v-534l78 -61v-17h-269zM240 751q-34 0 -61 9t-52.5 18.5t-54.5 9.5q-53 0 -76 -35l-22 6q12 53 41.5 81.5t70.5 28.5q35 0 61.5 -9t52 -18.5t54.5 -9.5q54 0 77 35l21 -6q-11 -52 -41 -81t-71 -29z" />
    <glyph glyph-name="itilde" unicode="&#x129;" horiz-adv-x="302" 
d="M34 0v15l87 71l-16 -28v332l43 -65l-115 89v17l153 58h25v-433l-15 29l86 -70v-15h-248zM230 557q-25 0 -51.5 13.5t-51.5 27t-48 13.5q-41 0 -59 -43l-20 5q14 121 85 121q26 0 52.5 -13.5t51.5 -27t47 -13.5q41 0 59 43l21 -5q-14 -121 -86 -121z" />
    <glyph glyph-name="Imacron" unicode="&#x12a;" horiz-adv-x="327" 
d="M29 0v17l77 61v534l-77 61v17h269v-17l-78 -61v-534l78 -61v-17h-269zM-8 772v71h342v-71h-342z" />
    <glyph glyph-name="imacron" unicode="&#x12b;" horiz-adv-x="302" 
d="M34 0v15l87 71l-16 -28v332l43 -65l-115 89v17l153 58h25v-433l-15 29l86 -70v-15h-248zM27 586v71h263v-71h-263z" />
    <glyph glyph-name="Ibreve" unicode="&#x12c;" horiz-adv-x="327" 
d="M29 0v17l77 61v534l-77 61v17h269v-17l-78 -61v-534l78 -61v-17h-269zM163 747q-66 0 -108.5 41.5t-44.5 107.5l17 4q15 -33 52.5 -53t83.5 -20q47 0 84.5 20t51.5 53l17 -4q-2 -66 -44.5 -107.5t-108.5 -41.5z" />
    <glyph glyph-name="ibreve" unicode="&#x12d;" horiz-adv-x="302" 
d="M34 0v15l87 71l-16 -28v332l43 -65l-115 89v17l153 58h25v-433l-15 29l86 -70v-15h-248zM159 560q-65 0 -98 45t-33 134l17 2q35 -100 114 -100q80 0 114 100l17 -2q0 -89 -32.5 -134t-98.5 -45z" />
    <glyph glyph-name="Iogonek" unicode="&#x12e;" horiz-adv-x="327" 
d="M29 0v17l77 61v534l-77 61v17h269v-17l-78 -61v-534l78 -61v-17h-269zM160 -251q-49 0 -79.5 29.5t-30.5 77.5q0 46 23 83t64 59v22h50v-20q-23 -18 -36.5 -47.5t-13.5 -62.5q0 -69 65 -69q21 0 41.5 9t34.5 25l15 -10q-13 -46 -48.5 -71t-84.5 -25z" />
    <glyph glyph-name="iogonek" unicode="&#x12f;" horiz-adv-x="302" 
d="M147 -251q-49 0 -77 27.5t-28 73.5q0 48 23.5 87.5t66.5 60.5v28h45v-26q-23 -15 -36 -44t-13 -68q0 -67 61 -67q21 0 41.5 9t34.5 25l15 -10q-13 -44 -49 -70t-84 -26zM34 0v15l87 71l-16 -28v332l43 -65l-115 89v17l153 58h25v-433l-15 29l86 -70v-15h-248zM159 560
q-34 0 -55 20t-21 52q0 31 21 51t55 20q35 0 56 -20t21 -51q0 -32 -21 -52t-56 -20z" />
    <glyph glyph-name="Idotaccent" unicode="&#x130;" horiz-adv-x="327" 
d="M29 0v17l77 61v534l-77 61v17h269v-17l-78 -61v-534l78 -61v-17h-269zM163 747q-34 0 -55.5 20t-21.5 52q0 31 21.5 51.5t55.5 20.5t55 -20.5t21 -51.5q0 -32 -21 -52t-55 -20z" />
    <glyph glyph-name="dotlessi" unicode="&#x131;" horiz-adv-x="302" 
d="M34 0v15l87 71l-16 -28v332l43 -65l-115 89v17l153 58h25v-433l-15 29l86 -70v-15h-248z" />
    <glyph glyph-name="IJ" unicode="&#x132;" horiz-adv-x="917" 
d="M29 0v17l77 61v534l-77 61v17h269v-17l-78 -61v-534l78 -61v-17h-269zM561 -16q-40 0 -82.5 12.5t-81 35t-66.5 51.5l72 123h18l84 -165h-88v114q35 -62 69 -87t84 -25q59 0 92.5 41t33.5 112v416l-78 61v17h269v-17l-77 -61v-407q0 -102 -66.5 -161.5t-182.5 -59.5z" />
    <glyph glyph-name="ij" unicode="&#x133;" horiz-adv-x="604" 
d="M34 0v15l87 71l-16 -28v332l43 -65l-115 89v17l153 58h25v-433l-15 29l86 -70v-15h-248zM160 560q-35 0 -56 20t-21 52q0 31 21 51t56 20q34 0 55 -20t21 -51q0 -32 -21 -52t-55 -20zM311 -238l-46 121l10 17l138 -33l-24 -26v549l43 -65l-115 89v17l153 58h25v-481
q0 -82 -42 -142t-131 -104h-11zM444 560q-35 0 -56 20t-21 52q0 31 21 51t56 20q34 0 55 -20t21 -51q0 -32 -21 -52t-55 -20z" />
    <glyph glyph-name="Jcircumflex" unicode="&#x134;" horiz-adv-x="608" 
d="M253 -16q-40 0 -82.5 12.5t-81 35t-66.5 51.5l72 123h18l84 -165h-88v114q35 -62 69 -87t84 -25q59 0 92.5 41t33.5 112v416l-78 61v17h269v-17l-77 -61v-407q0 -102 -66.5 -161.5t-182.5 -59.5zM288 738l-13 13l146 167h50l146 -167l-12 -13l-165 87h12z" />
    <glyph glyph-name="jcircumflex" unicode="&#x135;" horiz-adv-x="301" 
d="M27 -238l-46 121l10 17l138 -33l-24 -26v549l43 -65l-115 89v17l153 58h25v-481q0 -82 -42 -142t-131 -104h-11zM29 553l-17 11l129 209h37l129 -209l-17 -11l-136 107h12z" />
    <glyph glyph-name="uni0136" unicode="&#x136;" horiz-adv-x="725" 
d="M175 238l1 53l346 386l-19 -96l-86 92v17h278v-17l-144 -84l83 61zM29 0v17l77 61v534l-77 61v17h269v-17l-78 -61v-534l78 -61v-17h-269zM460 0v17l80 81l18 -83l-253 364l84 71l303 -437l-91 105l122 -101v-17h-263zM280 -301l-6 29q35 6 55.5 25t20.5 46l-65 42v5
q0 31 22.5 53.5t54.5 22.5q37 0 59.5 -24t22.5 -64q0 -38 -20.5 -67.5t-57 -47.5t-86.5 -20z" />
    <glyph glyph-name="uni0137" unicode="&#x137;" horiz-adv-x="640" 
d="M34 0v15l87 71l-16 -28v609l43 -67l-115 89v17l153 59h25v-712l-15 32l86 -70v-15h-248zM472 0l-212 298l87 60l220 -310l-65 4v64l118 -101v-15h-148zM193 202v49l236 198l13 -51h-15l-68 71v15h254v-15zM260 -301l-6 29q35 6 55.5 25t20.5 46l-65 42v5q0 31 22.5 53.5
t54.5 22.5q37 0 59.5 -24t22.5 -64q0 -38 -20.5 -67.5t-57 -47.5t-86.5 -20z" />
    <glyph glyph-name="kgreenlandic" unicode="&#x138;" horiz-adv-x="638" 
d="M470 0l-212 298l87 60l220 -310l-65 4v64l119 -101v-15h-149zM32 0v15l87 71l-16 -28v368l16 -28l-87 71v15h177v-431l-15 32l86 -70v-15h-248zM191 202v49l236 198l13 -51h-15l-68 71v15h254v-15z" />
    <glyph glyph-name="Lacute" unicode="&#x139;" horiz-adv-x="602" 
d="M29 0v17l77 61v534l-77 61v17h277v-17l-86 -61v-612h-191zM195 0v44l347 18v-62h-347zM411 0v42l130 148h18l-4 -190h-144zM97 738l-13 14l157 185h3l77 -93v-3z" />
    <glyph glyph-name="lacute" unicode="&#x13a;" horiz-adv-x="302" 
d="M34 0v15l87 71l-16 -28v609l43 -67l-115 89v17l153 59h25v-709l-15 29l86 -70v-15h-248zM90 783l-13 14l157 185h3l77 -93v-3z" />
    <glyph glyph-name="uni013B" unicode="&#x13b;" horiz-adv-x="602" 
d="M29 0v17l77 61v534l-77 61v17h277v-17l-86 -61v-612h-191zM195 0v44l347 18v-62h-347zM411 0v42l130 148h18l-4 -190h-144zM219 -301l-6 29q35 6 55.5 25t20.5 46l-65 42v5q0 31 22.5 53.5t54.5 22.5q37 0 59.5 -24t22.5 -64q0 -38 -20.5 -67.5t-57 -47.5t-86.5 -20z" />
    <glyph glyph-name="uni013C" unicode="&#x13c;" horiz-adv-x="302" 
d="M34 0v15l87 71l-16 -28v609l43 -67l-115 89v17l153 59h25v-709l-15 29l86 -70v-15h-248zM69 -301l-6 29q35 6 55.5 25t20.5 46l-65 42v5q0 31 22.5 53.5t54.5 22.5q37 0 59.5 -24t22.5 -64q0 -38 -20.5 -67.5t-57 -47.5t-86.5 -20z" />
    <glyph glyph-name="Lcaron" unicode="&#x13d;" horiz-adv-x="602" 
d="M29 0v17l77 61v534l-77 61v17h277v-17l-86 -61v-612h-191zM195 0v44l347 18v-62h-347zM411 0v42l130 148h18l-4 -190h-144zM379 481l-20 4l17 209l2 3l111 -30l1 -3z" />
    <glyph glyph-name="lcaron" unicode="&#x13e;" horiz-adv-x="302" 
d="M34 0v15l87 71l-16 -28v609l43 -67l-115 89v17l153 59h25v-709l-15 29l86 -70v-15h-248zM276 552l-20 4l17 209l2 3l111 -30l1 -3z" />
    <glyph glyph-name="Ldot" unicode="&#x13f;" horiz-adv-x="602" 
d="M463 268q-37 0 -60 22t-23 55q0 34 23 55.5t60 21.5q36 0 59.5 -21.5t23.5 -55.5q0 -33 -23.5 -55t-59.5 -22zM29 0v17l77 61v534l-77 61v17h277v-17l-86 -61v-612h-191zM195 0v44l347 18v-62h-347zM411 0v42l130 148h18l-4 -190h-144z" />
    <glyph glyph-name="ldot" unicode="&#x140;" horiz-adv-x="342" 
d="M34 0v15l87 71l-16 -28v609l43 -67l-115 89v17l153 59h25v-709l-15 29l86 -70v-15h-248zM329 279q-37 0 -60 22t-23 55q0 34 23 55.5t60 21.5q36 0 59.5 -21.5t23.5 -55.5q0 -33 -23.5 -55t-59.5 -22z" />
    <glyph glyph-name="Lslash" unicode="&#x141;" horiz-adv-x="602" 
d="M29 0v17l77 61v534l-77 61v17h277v-17l-86 -61v-612h-191zM195 0v44l347 18v-62h-347zM411 0v42l130 148h18l-4 -190h-144zM29 242v57l363 153v-57z" />
    <glyph glyph-name="lslash" unicode="&#x142;" horiz-adv-x="302" 
d="M34 0v15l87 71l-16 -28v609l43 -67l-115 89v17l153 59h25v-709l-15 29l86 -70v-15h-248zM33 294v54l250 115v-53z" />
    <glyph glyph-name="Nacute" unicode="&#x143;" horiz-adv-x="740" 
d="M589 -5l-455 582v113h47l433 -553l-24 -9l-43 484l-77 61v17h241v-17l-77 -61v-617h-45zM29 0v17l77 61l14 514l-71 81v17h108l37 -612l77 -61v-17h-242zM302 738l-13 14l157 185h3l77 -93v-3z" />
    <glyph glyph-name="nacute" unicode="&#x144;" horiz-adv-x="648" 
d="M381 0v15l86 71l-16 -28v232q0 67 -24 96t-80 29q-44 0 -80 -18t-71 -57v64h14q92 93 184 93q81 0 122 -45.5t41 -134.5v-261l-16 29l87 -70v-15h-247zM34 0v15l87 71l-16 -30v340l43 -72l-115 90v17l153 58h25l-6 -85h6v-348l-15 29l85 -70v-15h-247zM299 552l-17 11
l86 212h4l101 -67v-3z" />
    <glyph glyph-name="uni0145" unicode="&#x145;" horiz-adv-x="740" 
d="M589 -5l-455 582v113h47l433 -553l-24 -9l-43 484l-77 61v17h241v-17l-77 -61v-617h-45zM29 0v17l77 61l14 514l-71 81v17h108l37 -612l77 -61v-17h-242zM287 -301l-6 29q35 6 55.5 25t20.5 46l-65 42v5q0 31 22.5 53.5t54.5 22.5q37 0 59.5 -24t22.5 -64
q0 -38 -20.5 -67.5t-57 -47.5t-86.5 -20z" />
    <glyph glyph-name="uni0146" unicode="&#x146;" horiz-adv-x="648" 
d="M381 0v15l86 71l-16 -28v232q0 67 -24 96t-80 29q-44 0 -80 -18t-71 -57v64h14q92 93 184 93q81 0 122 -45.5t41 -134.5v-261l-16 29l87 -70v-15h-247zM34 0v15l87 71l-16 -30v340l43 -72l-115 90v17l153 58h25l-6 -85h6v-348l-15 29l85 -70v-15h-247zM241 -301l-6 29
q35 6 55.5 25t20.5 46l-65 42v5q0 31 22.5 53.5t54.5 22.5q37 0 59.5 -24t22.5 -64q0 -38 -20.5 -67.5t-57 -47.5t-86.5 -20z" />
    <glyph glyph-name="Ncaron" unicode="&#x147;" horiz-adv-x="740" 
d="M589 -5l-455 582v113h47l433 -553l-24 -9l-43 484l-77 61v17h241v-17l-77 -61v-617h-45zM29 0v17l77 61l14 514l-71 81v17h108l37 -612l77 -61v-17h-242zM215 927l164 -87h-12l165 87l12 -13l-146 -167h-50l-146 167z" />
    <glyph glyph-name="ncaron" unicode="&#x148;" horiz-adv-x="648" 
d="M381 0v15l86 71l-16 -28v232q0 67 -24 96t-80 29q-44 0 -80 -18t-71 -57v64h14q92 93 184 93q81 0 122 -45.5t41 -134.5v-261l-16 29l87 -70v-15h-247zM34 0v15l87 71l-16 -30v340l43 -72l-115 90v17l153 58h25l-6 -85h6v-348l-15 29l85 -70v-15h-247zM203 780l136 -107
h-12l137 107l17 -11l-129 -209h-37l-129 209z" />
    <glyph glyph-name="napostrophe" unicode="&#x149;" horiz-adv-x="648" 
d="M381 0v15l86 71l-16 -28v232q0 67 -24 96t-80 29q-44 0 -80 -18t-71 -57v64h14q92 93 184 93q81 0 122 -45.5t41 -134.5v-261l-16 29l87 -70v-15h-247zM34 0v15l87 71l-16 -30v340l43 -72l-115 90v17l153 58h25l-6 -85h6v-348l-15 29l85 -70v-15h-247zM61 557l-6 29
q35 6 55.5 25t20.5 46l-65 42v5q0 31 22.5 53.5t54.5 22.5q37 0 59.5 -24t22.5 -64q0 -38 -20.5 -67.5t-57 -47.5t-86.5 -20z" />
    <glyph glyph-name="Eng" unicode="&#x14a;" horiz-adv-x="740" 
d="M422 -251q-54 0 -107 22.5t-93 62.5l70 123h18l86 -163h-88v85q32 -40 59.5 -56.5t64.5 -16.5q50 0 80 42t30 114v160h92v-160q0 -62 -27 -110.5t-75 -75.5t-110 -27zM589 -5l-455 582v113h47l433 -553l-24 -9l-43 484l-77 61v17h241v-17l-77 -61v-617h-45zM29 0v17
l77 61l14 514l-71 81v17h108l37 -612l77 -61v-17h-242z" />
    <glyph glyph-name="eng" unicode="&#x14b;" horiz-adv-x="648" 
d="M373 -238l-46 121l9 16l139 -27l-24 -31v449q0 67 -24 96t-80 29q-44 0 -80 -18t-71 -57v64h14q92 93 184 93q81 0 122 -45.5t41 -134.5v-312q0 -80 -42 -139.5t-131 -103.5h-11zM34 0v15l87 71l-16 -30v340l43 -72l-115 90v17l153 58h25l-6 -85h6v-348l-15 29l86 -70
v-15h-248z" />
    <glyph glyph-name="Omacron" unicode="&#x14c;" horiz-adv-x="785" 
d="M386 -16q-101 0 -179 44.5t-121 124.5t-43 185q0 109 45 192t125 129.5t186 46.5q102 0 179.5 -44.5t120.5 -124t43 -185.5q0 -109 -45 -192t-125 -129.5t-186 -46.5zM403 44q66 0 114 35t74 99t26 153q0 97 -29 167.5t-81.5 109t-124.5 38.5q-66 0 -114.5 -34.5
t-74.5 -99t-26 -153.5q0 -96 29 -167t82 -109.5t125 -38.5zM222 772v71h342v-71h-342z" />
    <glyph glyph-name="omacron" unicode="&#x14d;" horiz-adv-x="604" 
d="M297 -13q-75 0 -132.5 31.5t-90 88t-32.5 129.5q0 77 34 135.5t93.5 91.5t137.5 33q76 0 133 -31.5t89.5 -87t32.5 -129.5q0 -76 -34 -135t-93 -92.5t-138 -33.5zM309 44q42 0 73.5 23t49.5 64.5t18 96.5q0 64 -19.5 111.5t-54 73.5t-81.5 26q-41 0 -73 -23t-50 -64.5
t-18 -95.5q0 -64 19.5 -111.5t54 -74t81.5 -26.5zM143 586v71h319v-71h-319z" />
    <glyph glyph-name="Obreve" unicode="&#x14e;" horiz-adv-x="785" 
d="M386 -16q-101 0 -179 44.5t-121 124.5t-43 185q0 109 45 192t125 129.5t186 46.5q102 0 179.5 -44.5t120.5 -124t43 -185.5q0 -109 -45 -192t-125 -129.5t-186 -46.5zM403 44q66 0 114 35t74 99t26 153q0 97 -29 167.5t-81.5 109t-124.5 38.5q-66 0 -114.5 -34.5
t-74.5 -99t-26 -153.5q0 -96 29 -167t82 -109.5t125 -38.5zM393 747q-66 0 -108.5 41.5t-44.5 107.5l17 4q15 -33 52.5 -53t83.5 -20q47 0 84.5 20t51.5 53l17 -4q-2 -66 -44.5 -107.5t-108.5 -41.5z" />
    <glyph glyph-name="obreve" unicode="&#x14f;" horiz-adv-x="604" 
d="M297 -13q-75 0 -132.5 31.5t-90 88t-32.5 129.5q0 77 34 135.5t93.5 91.5t137.5 33q76 0 133 -31.5t89.5 -87t32.5 -129.5q0 -76 -34 -135t-93 -92.5t-138 -33.5zM309 44q42 0 73.5 23t49.5 64.5t18 96.5q0 64 -19.5 111.5t-54 73.5t-81.5 26q-41 0 -73 -23t-50 -64.5
t-18 -95.5q0 -64 19.5 -111.5t54 -74t81.5 -26.5zM303 560q-70 0 -111 48t-41 131l17 2q17 -48 52 -74t82 -26q49 0 83.5 26t51.5 74l17 -2q0 -83 -41 -131t-110 -48z" />
    <glyph glyph-name="Ohungarumlaut" unicode="&#x150;" horiz-adv-x="785" 
d="M386 -16q-101 0 -179 44.5t-121 124.5t-43 185q0 109 45 192t125 129.5t186 46.5q102 0 179.5 -44.5t120.5 -124t43 -185.5q0 -109 -45 -192t-125 -129.5t-186 -46.5zM403 44q66 0 114 35t74 99t26 153q0 97 -29 167.5t-81.5 109t-124.5 38.5q-66 0 -114.5 -34.5
t-74.5 -99t-26 -153.5q0 -96 29 -167t82 -109.5t125 -38.5zM348 741l-19 7l32 193l3 1l101 -41v-3zM461 740l-19 7l56 186l3 1l95 -42v-3z" />
    <glyph glyph-name="ohungarumlaut" unicode="&#x151;" horiz-adv-x="604" 
d="M297 -13q-75 0 -132.5 31.5t-90 88t-32.5 129.5q0 77 34 135.5t93.5 91.5t137.5 33q76 0 133 -31.5t89.5 -87t32.5 -129.5q0 -76 -34 -135t-93 -92.5t-138 -33.5zM309 44q42 0 73.5 23t49.5 64.5t18 96.5q0 64 -19.5 111.5t-54 73.5t-81.5 26q-41 0 -73 -23t-50 -64.5
t-18 -95.5q0 -64 19.5 -111.5t54 -74t81.5 -26.5zM247 553l-20 5l-4 214l3 2l106 -26v-4zM364 553l-20 5l24 213l3 2l107 -28v-3z" />
    <glyph glyph-name="OE" unicode="&#x152;" horiz-adv-x="996" 
d="M400 0q-105 0 -186 42t-126 117.5t-45 174.5q0 79 27.5 144t77.5 112.5t119.5 73.5t152.5 26h144v-52h-143q-81 0 -138 -33t-86.5 -96t-29.5 -153q0 -93 30 -161.5t85.5 -105.5t129.5 -37h152v-52h-164zM588 0v44l320 18v-62h-320zM500 0v690h114v-690h-114zM804 0v42
l131 129h18l-6 -171h-143zM825 323l-244 11v43l244 12v-66zM838 258l-83 79v38l83 79h18v-196h-18zM908 628l-320 18v44h320v-62zM922 541l-121 104v45l121 9h13l5 -158h-18z" />
    <glyph glyph-name="oe" unicode="&#x153;" horiz-adv-x="948" 
d="M297 -13q-75 0 -132.5 31.5t-90 88t-32.5 129.5q0 77 34 135.5t93.5 91.5t136.5 33q76 0 133.5 -31.5t89.5 -87t32 -129.5q0 -76 -33.5 -135t-93 -92.5t-137.5 -33.5zM308 44q42 0 74 23t50 64.5t18 96.5q0 64 -19.5 111.5t-54 73.5t-81.5 26q-42 0 -73.5 -23
t-49.5 -64.5t-18 -95.5q0 -64 19 -111.5t54 -74t81 -26.5zM692 -13q-71 0 -125 30.5t-84.5 84t-30.5 122.5q0 80 32 141.5t89.5 96t132.5 34.5q62 0 106.5 -29.5t69 -84t24.5 -129.5h-383v39l264 25q0 57 -27.5 89.5t-73.5 32.5q-37 0 -65 -23.5t-44 -65.5t-16 -97
q0 -91 44 -141.5t124 -50.5q87 0 142 53l24 -24q-31 -49 -84.5 -76t-118.5 -27z" />
    <glyph glyph-name="Racute" unicode="&#x154;" horiz-adv-x="667" 
d="M29 0v17l77 61v534l-77 61v17h191v-612l78 -61v-17h-269zM494 0l-216 325l118 20l219 -332l-87 101l127 -97v-17h-161zM168 299v51h133q69 0 110.5 39.5t41.5 106.5q0 65 -41 103.5t-111 38.5h-151v52h173q119 0 186.5 -49t67.5 -136q0 -89 -65.5 -141.5t-180.5 -52.5h-5
v-12h-158zM248 738l-13 14l157 185h3l77 -93v-3z" />
    <glyph glyph-name="racute" unicode="&#x155;" horiz-adv-x="449" 
d="M34 0v15l87 71l-16 -28v332l43 -66l-115 90v17l153 58h25l-6 -102h6v-331l-15 27l116 -68v-15h-278zM203 322l-7 65h14q28 51 72 80.5t91 29.5q36 0 67 -12l-57 -152h-18l-92 95l88 -25q-51 0 -93 -21.5t-65 -59.5zM190 552l-17 11l86 212h4l101 -67v-3z" />
    <glyph glyph-name="uni0156" unicode="&#x156;" horiz-adv-x="667" 
d="M29 0v17l77 61v534l-77 61v17h191v-612l78 -61v-17h-269zM494 0l-216 325l118 20l219 -332l-87 101l127 -97v-17h-161zM168 299v51h133q69 0 110.5 39.5t41.5 106.5q0 65 -41 103.5t-111 38.5h-151v52h173q119 0 186.5 -49t67.5 -136q0 -89 -65.5 -141.5t-180.5 -52.5h-5
v-12h-158zM251 -301l-6 29q35 6 55.5 25t20.5 46l-65 42v5q0 31 22.5 53.5t54.5 22.5q37 0 59.5 -24t22.5 -64q0 -38 -20.5 -67.5t-57 -47.5t-86.5 -20z" />
    <glyph glyph-name="uni0157" unicode="&#x157;" horiz-adv-x="449" 
d="M34 0v15l87 71l-16 -28v332l43 -66l-115 90v17l153 58h25l-6 -102h6v-331l-15 27l116 -68v-15h-278zM203 322l-7 65h14q28 51 72 80.5t91 29.5q36 0 67 -12l-57 -152h-18l-92 95l88 -25q-51 0 -93 -21.5t-65 -59.5zM93 -301l-6 29q35 6 55.5 25t20.5 46l-65 42v5
q0 31 22.5 53.5t54.5 22.5q37 0 59.5 -24t22.5 -64q0 -38 -20.5 -67.5t-57 -47.5t-86.5 -20z" />
    <glyph glyph-name="Rcaron" unicode="&#x158;" horiz-adv-x="667" 
d="M29 0v17l77 61v534l-77 61v17h191v-612l78 -61v-17h-269zM494 0l-216 325l118 20l219 -332l-87 101l127 -97v-17h-161zM168 299v51h133q69 0 110.5 39.5t41.5 106.5q0 65 -41 103.5t-111 38.5h-151v52h173q119 0 186.5 -49t67.5 -136q0 -89 -65.5 -141.5t-180.5 -52.5h-5
v-12h-158zM160 927l165 -87h-12l164 87l13 -13l-146 -167h-50l-146 167z" />
    <glyph glyph-name="rcaron" unicode="&#x159;" horiz-adv-x="449" 
d="M34 0v15l87 71l-16 -28v332l43 -66l-115 90v17l153 58h25l-6 -102h6v-331l-15 27l116 -68v-15h-278zM203 322l-7 65h14q28 51 72 80.5t91 29.5q36 0 67 -12l-57 -152h-18l-92 95l88 -25q-51 0 -93 -21.5t-65 -59.5zM95 780l136 -107h-12l136 107l17 -11l-129 -209h-36
l-129 209z" />
    <glyph glyph-name="Sacute" unicode="&#x15a;" horiz-adv-x="615" 
d="M304 -16q-46 0 -94.5 9.5t-91.5 26t-75 38.5l60 125h18l121 -162h-96v96q22 -36 65 -54.5t103 -18.5q71 0 112 36t41 97q0 47 -44.5 77.5t-137.5 52.5q-76 19 -126.5 46.5t-75.5 64.5t-25 85q0 94 71 148.5t193 54.5q43 0 87 -9t85 -24.5t70 -37.5l-71 -119h-18l-112 154
h104l-6 -95q-23 37 -59 54t-88 17q-66 0 -108.5 -31.5t-42.5 -80.5q0 -47 44.5 -77.5t138.5 -52.5q76 -19 126 -46.5t75 -64t25 -85.5q0 -68 -33 -118.5t-93 -78t-142 -27.5zM241 738l-13 14l157 185h3l77 -93v-3z" />
    <glyph glyph-name="sacute" unicode="&#x15b;" horiz-adv-x="510" 
d="M248 -13q-38 0 -77 7.5t-74.5 20.5t-62.5 31l52 110h18l98 -137h-74l-5 78q24 -30 56 -43.5t75 -13.5q51 0 82.5 22t31.5 56q0 30 -22.5 46.5t-57.5 27t-74.5 20.5t-74 26t-57 42.5t-22.5 70.5q0 68 56 106.5t152 38.5q34 0 69 -6t67.5 -17t58.5 -27l-53 -109h-18
l-105 136h81l5 -78q-18 23 -49 36t-64 13q-46 0 -73.5 -17.5t-27.5 -47.5q0 -29 22.5 -45t57.5 -26.5t74.5 -20.5t74.5 -26t57.5 -43t22.5 -72q0 -76 -57 -117.5t-163 -41.5zM221 552l-17 11l86 212h4l101 -67v-3z" />
    <glyph glyph-name="Scircumflex" unicode="&#x15c;" horiz-adv-x="615" 
d="M304 -16q-46 0 -94.5 9.5t-91.5 26t-75 38.5l60 125h18l121 -162h-96v96q22 -36 65 -54.5t103 -18.5q71 0 112 36t41 97q0 47 -44.5 77.5t-137.5 52.5q-76 19 -126.5 46.5t-75.5 64.5t-25 85q0 94 71 148.5t193 54.5q43 0 87 -9t85 -24.5t70 -37.5l-71 -119h-18l-112 154
h104l-6 -95q-23 37 -59 54t-88 17q-66 0 -108.5 -31.5t-42.5 -80.5q0 -47 44.5 -77.5t138.5 -52.5q76 -19 126 -46.5t75 -64t25 -85.5q0 -68 -33 -118.5t-93 -78t-142 -27.5zM150 738l-13 13l146 167h50l146 -167l-12 -13l-165 87h12z" />
    <glyph glyph-name="scircumflex" unicode="&#x15d;" horiz-adv-x="510" 
d="M248 -13q-38 0 -77 7.5t-74.5 20.5t-62.5 31l52 110h18l98 -137h-74l-5 78q24 -30 56 -43.5t75 -13.5q51 0 82.5 22t31.5 56q0 30 -22.5 46.5t-57.5 27t-74.5 20.5t-74 26t-57 42.5t-22.5 70.5q0 68 56 106.5t152 38.5q34 0 69 -6t67.5 -17t58.5 -27l-53 -109h-18
l-105 136h81l5 -78q-18 23 -49 36t-64 13q-46 0 -73.5 -17.5t-27.5 -47.5q0 -29 22.5 -45t57.5 -26.5t74.5 -20.5t74.5 -26t57.5 -43t22.5 -72q0 -76 -57 -117.5t-163 -41.5zM125 553l-17 11l129 209h37l129 -209l-17 -11l-136 107h12z" />
    <glyph glyph-name="Scedilla" unicode="&#x15e;" horiz-adv-x="615" 
d="M304 -16q-46 0 -94.5 9.5t-91.5 26t-75 38.5l60 125h18l121 -162h-96v96q22 -36 65 -54.5t103 -18.5q71 0 112 36t41 97q0 47 -44.5 77.5t-137.5 52.5q-76 19 -126.5 46.5t-75.5 64.5t-25 85q0 94 71 148.5t193 54.5q43 0 87 -9t85 -24.5t70 -37.5l-71 -119h-18l-112 154
h104l-6 -95q-23 37 -59 54t-88 17q-66 0 -108.5 -31.5t-42.5 -80.5q0 -47 44.5 -77.5t138.5 -52.5q76 -19 126 -46.5t75 -64t25 -85.5q0 -68 -33 -118.5t-93 -78t-142 -27.5zM195 -244l14 33q51 -7 85 5.5t34 38.5q0 20 -21 34.5t-59 18.5l52 128h41l-25 -61q49 -7 78 -33.5
t29 -63.5q0 -41 -29 -67.5t-80.5 -35t-118.5 2.5z" />
    <glyph glyph-name="scedilla" unicode="&#x15f;" horiz-adv-x="510" 
d="M248 -13q-38 0 -77 7.5t-74.5 20.5t-62.5 31l52 110h18l98 -137h-74l-5 78q24 -30 56 -43.5t75 -13.5q51 0 82.5 22t31.5 56q0 30 -22.5 46.5t-57.5 27t-74.5 20.5t-74 26t-57 42.5t-22.5 70.5q0 68 56 106.5t152 38.5q34 0 69 -6t67.5 -17t58.5 -27l-53 -109h-18
l-105 136h81l5 -78q-18 23 -49 36t-64 13q-46 0 -73.5 -17.5t-27.5 -47.5q0 -29 22.5 -45t57.5 -26.5t74.5 -20.5t74.5 -26t57.5 -43t22.5 -72q0 -76 -57 -117.5t-163 -41.5zM142 -244l14 33q51 -7 85 5.5t34 38.5q0 20 -21 34.5t-59 18.5l52 128h41l-25 -61q49 -7 78 -33.5
t29 -63.5q0 -41 -29 -67.5t-80.5 -35t-118.5 2.5z" />
    <glyph glyph-name="Scaron" unicode="&#x160;" horiz-adv-x="615" 
d="M304 -16q-46 0 -94.5 9.5t-91.5 26t-75 38.5l60 125h18l121 -162h-96v96q22 -36 65 -54.5t103 -18.5q71 0 112 36t41 97q0 47 -44.5 77.5t-137.5 52.5q-76 19 -126.5 46.5t-75.5 64.5t-25 85q0 94 71 148.5t193 54.5q43 0 87 -9t85 -24.5t70 -37.5l-71 -119h-18l-112 154
h104l-6 -95q-23 37 -59 54t-88 17q-66 0 -108.5 -31.5t-42.5 -80.5q0 -47 44.5 -77.5t138.5 -52.5q76 -19 126 -46.5t75 -64t25 -85.5q0 -68 -33 -118.5t-93 -78t-142 -27.5zM153 927l165 -87h-12l164 87l13 -13l-146 -167h-50l-146 167z" />
    <glyph glyph-name="scaron" unicode="&#x161;" horiz-adv-x="510" 
d="M248 -13q-38 0 -77 7.5t-74.5 20.5t-62.5 31l52 110h18l98 -137h-74l-5 78q24 -30 56 -43.5t75 -13.5q51 0 82.5 22t31.5 56q0 30 -22.5 46.5t-57.5 27t-74.5 20.5t-74 26t-57 42.5t-22.5 70.5q0 68 56 106.5t152 38.5q34 0 69 -6t67.5 -17t58.5 -27l-53 -109h-18
l-105 136h81l5 -78q-18 23 -49 36t-64 13q-46 0 -73.5 -17.5t-27.5 -47.5q0 -29 22.5 -45t57.5 -26.5t74.5 -20.5t74.5 -26t57.5 -43t22.5 -72q0 -76 -57 -117.5t-163 -41.5zM125 780l136 -107h-12l136 107l18 -11l-129 -209h-37l-129 209z" />
    <glyph glyph-name="uni0162" unicode="&#x162;" horiz-adv-x="698" 
d="M205 0v17l87 61v604l47 -35l-267 -21v64h553v-64l-267 21l48 35v-604l86 -61v-17h-287zM43 525l3 174h13l126 -9l2 -45l-126 -120h-18zM637 525l-127 120l2 45l126 9h14l3 -174h-18zM236 -244l14 33q51 -7 85 5.5t34 38.5q0 20 -21 34.5t-59 18.5l52 128h41l-25 -61
q49 -7 78 -33.5t29 -63.5q0 -41 -29 -67.5t-80.5 -35t-118.5 2.5z" />
    <glyph glyph-name="uni0163" unicode="&#x163;" horiz-adv-x="453" 
d="M269 -13q-52 0 -91 22t-60 61.5t-21 93.5v303l43 -59h-127v17l166 188h24v-420q0 -64 23.5 -96.5t72.5 -32.5q67 0 113 55l28 -19q-23 -51 -68.5 -82t-102.5 -31zM391 399l-210 27v48l207 24h14v-92zM146 -244l14 33q51 -7 85 5.5t34 38.5q0 20 -21 34.5t-59 18.5l52 128
h41l-25 -61q49 -7 78 -33.5t29 -63.5q0 -41 -29 -67.5t-80.5 -35t-118.5 2.5z" />
    <glyph glyph-name="Tcaron" unicode="&#x164;" horiz-adv-x="698" 
d="M205 0v17l87 61v604l47 -35l-267 -21v64h553v-64l-267 21l48 35v-604l86 -61v-17h-287zM43 525l3 174h13l126 -9l2 -45l-126 -120h-18zM637 525l-127 120l2 45l126 9h14l3 -174h-18zM194 927l165 -87h-12l164 87l13 -13l-146 -167h-50l-146 167z" />
    <glyph glyph-name="tcaron" unicode="&#x165;" horiz-adv-x="453" 
d="M269 -13q-52 0 -91 22t-60 61.5t-21 93.5v303l43 -59h-127v17l166 188h24v-420q0 -64 23.5 -96.5t72.5 -32.5q67 0 113 55l28 -19q-23 -51 -68.5 -82t-102.5 -31zM391 399l-210 27v48l207 24h14v-92zM294 556l-20 4l17 209l2 3l111 -30l1 -3z" />
    <glyph glyph-name="Tbar" unicode="&#x166;" horiz-adv-x="698" 
d="M205 0v17l87 61v604l47 -35l-267 -21v64h553v-64l-267 21l48 35v-604l86 -61v-17h-287zM43 525l3 174h13l126 -9l2 -45l-126 -120h-18zM637 525l-127 120l2 45l126 9h14l3 -174h-18zM175 328v57h347v-57h-347z" />
    <glyph glyph-name="tbar" unicode="&#x167;" horiz-adv-x="453" 
d="M269 -13q-52 0 -91 22t-60 61.5t-21 93.5v303l43 -59h-127v17l166 188h24v-420q0 -64 23.5 -96.5t72.5 -32.5q67 0 113 55l28 -19q-23 -51 -68.5 -82t-102.5 -31zM391 399l-210 27v48l207 24h14v-92zM13 231v48h323v-48h-323z" />
    <glyph glyph-name="Utilde" unicode="&#x168;" horiz-adv-x="708" 
d="M549 607l-89 66v17h246v-17l-78 -66v-326q0 -94 -31.5 -160.5t-90.5 -101.5t-142 -35q-141 0 -213 69t-72 206v353l-77 61v17h268v-17l-77 -61v-325q0 -121 43 -177.5t135 -56.5t135 56.5t43 177.5v320zM444 751q-34 0 -61 9t-52.5 18.5t-54.5 9.5q-53 0 -76 -35l-22 6
q12 53 41.5 81.5t70.5 28.5q35 0 61.5 -9t52 -18.5t54.5 -9.5q54 0 77 35l21 -6q-11 -52 -41 -81t-71 -29z" />
    <glyph glyph-name="utilde" unicode="&#x169;" horiz-adv-x="604" 
d="M241 -13q-77 0 -116 44.5t-39 132.5v237l43 -69l-109 86v17l148 53h25v-294q0 -67 21.5 -96t73.5 -29q41 0 75 18t67 55v-64h-15q-48 -50 -87 -70.5t-87 -20.5zM452 -12l-29 90h-9v324l43 -69l-114 86v16l152 54h25v-404l-41 61l106 -80v-17l-114 -61h-19zM385 559
q-34 0 -61 12.5t-52 25.5t-53 13t-47.5 -12.5t-30.5 -36.5l-22 6q13 57 42.5 89.5t69.5 32.5q35 0 61.5 -13t51.5 -25.5t53 -12.5t48 12.5t30 36.5l22 -6q-12 -57 -42 -89.5t-70 -32.5z" />
    <glyph glyph-name="Umacron" unicode="&#x16a;" horiz-adv-x="708" 
d="M549 607l-89 66v17h246v-17l-78 -66v-326q0 -94 -31.5 -160.5t-90.5 -101.5t-142 -35q-141 0 -213 69t-72 206v353l-77 61v17h268v-17l-77 -61v-325q0 -121 43 -177.5t135 -56.5t135 56.5t43 177.5v320zM196 772v71h342v-71h-342z" />
    <glyph glyph-name="umacron" unicode="&#x16b;" horiz-adv-x="604" 
d="M241 -13q-77 0 -116 44.5t-39 132.5v237l43 -69l-109 86v17l148 53h25v-294q0 -67 21.5 -96t73.5 -29q41 0 75 18t67 55v-64h-15q-48 -50 -87 -70.5t-87 -20.5zM452 -12l-29 90h-9v324l43 -69l-114 86v16l152 54h25v-404l-41 61l106 -80v-17l-114 -61h-19zM143 586v71
h319v-71h-319z" />
    <glyph glyph-name="Ubreve" unicode="&#x16c;" horiz-adv-x="708" 
d="M549 607l-89 66v17h246v-17l-78 -66v-326q0 -94 -31.5 -160.5t-90.5 -101.5t-142 -35q-141 0 -213 69t-72 206v353l-77 61v17h268v-17l-77 -61v-325q0 -121 43 -177.5t135 -56.5t135 56.5t43 177.5v320zM367 747q-66 0 -108.5 41.5t-44.5 107.5l17 4q15 -33 52.5 -53
t83.5 -20q47 0 84.5 20t51.5 53l17 -4q-2 -66 -44.5 -107.5t-108.5 -41.5z" />
    <glyph glyph-name="ubreve" unicode="&#x16d;" horiz-adv-x="604" 
d="M241 -13q-77 0 -116 44.5t-39 132.5v237l43 -69l-109 86v17l148 53h25v-294q0 -67 21.5 -96t73.5 -29q41 0 75 18t67 55v-64h-15q-48 -50 -87 -70.5t-87 -20.5zM452 -12l-29 90h-9v324l43 -69l-114 86v16l152 54h25v-404l-41 61l106 -80v-17l-114 -61h-19zM303 560
q-70 0 -111 48t-41 131l17 2q17 -48 52 -74t82 -26q49 0 83.5 26t51.5 74l17 -2q0 -83 -41 -131t-110 -48z" />
    <glyph glyph-name="Uring" unicode="&#x16e;" horiz-adv-x="708" 
d="M549 607l-89 66v17h246v-17l-78 -66v-326q0 -94 -31.5 -160.5t-90.5 -101.5t-142 -35q-141 0 -213 69t-72 206v353l-77 61v17h268v-17l-77 -61v-325q0 -121 43 -177.5t135 -56.5t135 56.5t43 177.5v320zM368 730q-50 0 -81.5 30t-31.5 76t31.5 76t81.5 30q49 0 80.5 -30
t31.5 -76t-31.5 -76t-80.5 -30zM368 773q27 0 45 18t18 45t-18 45t-45 18q-28 0 -45.5 -18t-17.5 -45t18 -45t45 -18z" />
    <glyph glyph-name="uring" unicode="&#x16f;" horiz-adv-x="604" 
d="M241 -13q-77 0 -116 44.5t-39 132.5v237l43 -69l-109 86v17l148 53h25v-294q0 -67 21.5 -96t73.5 -29q41 0 75 18t67 55v-64h-15q-48 -50 -87 -70.5t-87 -20.5zM452 -12l-29 90h-9v324l43 -69l-114 86v16l152 54h25v-404l-41 61l106 -80v-17l-114 -61h-19zM303 555
q-54 0 -89 32.5t-35 83.5q0 52 35 84.5t89 32.5q55 0 89.5 -32.5t34.5 -84.5q0 -51 -34.5 -83.5t-89.5 -32.5zM303 599q32 0 52 20.5t20 51.5q0 33 -20 52.5t-52 19.5q-31 0 -51.5 -19.5t-20.5 -52.5q0 -31 20.5 -51.5t51.5 -20.5z" />
    <glyph glyph-name="Uhungarumlaut" unicode="&#x170;" horiz-adv-x="708" 
d="M549 607l-89 66v17h246v-17l-78 -66v-326q0 -94 -31.5 -160.5t-90.5 -101.5t-142 -35q-141 0 -213 69t-72 206v353l-77 61v17h268v-17l-77 -61v-325q0 -121 43 -177.5t135 -56.5t135 56.5t43 177.5v320zM323 741l-19 7l32 193l3 1l101 -41v-3zM436 740l-19 7l56 186l3 1
l95 -42v-3z" />
    <glyph glyph-name="uhungarumlaut" unicode="&#x171;" horiz-adv-x="604" 
d="M241 -13q-77 0 -116 44.5t-39 132.5v237l43 -69l-109 86v17l148 53h25v-294q0 -67 21.5 -96t73.5 -29q41 0 75 18t67 55v-64h-15q-48 -50 -87 -70.5t-87 -20.5zM452 -12l-29 90h-9v324l43 -69l-114 86v16l152 54h25v-404l-41 61l106 -80v-17l-114 -61h-19zM248 553l-20 5
l-4 214l3 2l106 -26v-4zM365 553l-20 5l24 213l3 2l107 -28v-3z" />
    <glyph glyph-name="Uogonek" unicode="&#x172;" horiz-adv-x="708" 
d="M364 -16q-141 0 -213 69t-72 206v353l-77 61v17h268v-17l-77 -61v-325q0 -121 43 -177.5t135 -56.5t135 56.5t43 177.5v320l-89 66v17h246v-17l-78 -66v-326q0 -94 -31.5 -160.5t-90.5 -101.5t-142 -35zM438 -251q-49 0 -79.5 29t-30.5 76q0 40 20.5 76.5t52.5 54.5v36
h80v-15q-31 -12 -49 -42t-18 -68q0 -75 66 -75q21 0 41.5 9t34.5 25l15 -10q-14 -46 -49 -71t-84 -25z" />
    <glyph glyph-name="uogonek" unicode="&#x173;" horiz-adv-x="604" 
d="M241 -13q-77 0 -116 44.5t-39 132.5v237l43 -69l-109 86v17l148 53h25v-294q0 -67 21.5 -96t73.5 -29q41 0 75 18t67 55v-64h-15q-48 -50 -87 -70.5t-87 -20.5zM452 -12l-29 90h-9v324l43 -69l-114 86v16l152 54h25v-404l-41 61l106 -80v-17l-114 -61h-19zM444 -251
q-48 0 -76.5 28t-28.5 73q0 56 36.5 101.5t95.5 62.5v-26q-22 -16 -34 -41t-12 -59q0 -67 62 -67q20 0 40.5 9t35.5 25l14 -10q-13 -44 -48.5 -70t-84.5 -26z" />
    <glyph glyph-name="Wcircumflex" unicode="&#x174;" horiz-adv-x="1092" 
d="M741 -10l-224 563l1 48l-112 72v17h294v-17l-121 -77l8 79l232 -585h-40l170 587l17 -84l-122 80v17h246v-17l-83 -83l47 87l-272 -687h-41zM306 -10l-271 683l43 -81l-76 81v17h260v-17l-122 -81l12 83l232 -585h-39l171 587h103l-272 -687h-41zM394 738l-13 13l146 167
h50l146 -167l-12 -13l-165 87h12z" />
    <glyph glyph-name="wcircumflex" unicode="&#x175;" horiz-adv-x="874" 
d="M267 -10l-225 459h36v-62l-76 82v15h236v-15l-71 -75h-11v54l173 -352h-27l113 388h44l19 -86l-184 -408h-27zM578 -10l-158 373l16 121h44l165 -387h-26l119 363l1 -60h-10l-69 69v15h212v-15l-77 -81v61h37l-226 -459h-28zM320 553l-17 11l129 209h37l129 -209l-17 -11
l-136 107h12z" />
    <glyph glyph-name="Ycircumflex" unicode="&#x176;" horiz-adv-x="686" 
d="M315 206l-288 471l58 -82l-83 78v17h268v-17l-134 -95l17 99l229 -374h-6l169 374l16 -92l-122 88v17h245v-17l-80 -75l56 79l-295 -471h-50zM210 0v17l77 61v208h114v-208l78 -61v-17h-269zM195 738l-13 13l146 167h50l146 -167l-12 -13l-165 87h12z" />
    <glyph glyph-name="ycircumflex" unicode="&#x177;" horiz-adv-x="571" 
d="M264 -61l-226 510h36v-64l-72 84v15h228v-15l-69 -68h-11v47l176 -397l-33 -3l149 412v-56h-11l-72 65v15h210v-15l-71 -81v61h37l-356 -700h-18l-94 88v14l199 144zM167 553l-17 11l129 209h37l129 -209l-17 -11l-136 107h12z" />
    <glyph glyph-name="Ydieresis" unicode="&#x178;" horiz-adv-x="686" 
d="M315 206l-288 471l58 -82l-83 78v17h268v-17l-134 -95l17 99l229 -374h-6l169 374l16 -92l-122 88v17h245v-17l-80 -75l56 79l-295 -471h-50zM210 0v17l77 61v208h114v-208l78 -61v-17h-269zM247 748q-30 0 -49 17.5t-19 44.5q0 28 19 45t49 17q29 0 48.5 -17t19.5 -45
q0 -27 -19.5 -44.5t-48.5 -17.5zM459 748q-30 0 -49 17.5t-19 44.5q0 28 19 45t49 17t49 -17t19 -45q0 -27 -19 -44.5t-49 -17.5z" />
    <glyph glyph-name="Zacute" unicode="&#x179;" horiz-adv-x="638" 
d="M43 0v17l425 667l21 -36l-350 -18v60h445v-17l-424 -665l-21 36l363 18v-62h-459zM443 0v47l134 137h18l-9 -184h-143zM72 523l-18 176h17l144 -9l-9 -33l-116 -134h-18zM252 738l-13 14l157 185h3l77 -93v-3z" />
    <glyph glyph-name="zacute" unicode="&#x17a;" horiz-adv-x="524" 
d="M59 0v19l306 465h105v-20l-307 -464h-104zM137 0v40l291 28l-89 -28l110 120h19v-160h-331zM105 333l-50 151h351v-37l-285 -27l85 24l-82 -111h-19zM228 552l-17 11l86 212h4l101 -67v-3z" />
    <glyph glyph-name="Zdotaccent" unicode="&#x17b;" horiz-adv-x="638" 
d="M43 0v17l425 667l21 -36l-350 -18v60h445v-17l-424 -665l-21 36l363 18v-62h-459zM443 0v47l134 137h18l-9 -184h-143zM72 523l-18 176h17l144 -9l-9 -33l-116 -134h-18zM318 747q-34 0 -55.5 20t-21.5 52q0 31 21.5 51.5t55.5 20.5t55 -20.5t21 -51.5q0 -32 -21 -52
t-55 -20z" />
    <glyph glyph-name="zdotaccent" unicode="&#x17c;" horiz-adv-x="524" 
d="M59 0v19l306 465h105v-20l-307 -464h-104zM137 0v40l291 28l-89 -28l110 120h19v-160h-331zM105 333l-50 151h351v-37l-285 -27l85 24l-82 -111h-19zM263 560q-35 0 -56 20t-21 52q0 31 21 51t56 20q34 0 55 -20t21 -51q0 -32 -21 -52t-55 -20z" />
    <glyph glyph-name="Zcaron" unicode="&#x17d;" horiz-adv-x="638" 
d="M43 0v17l425 667l21 -36l-350 -18v60h445v-17l-424 -665l-21 36l363 18v-62h-459zM443 0v47l134 137h18l-9 -184h-143zM72 523l-18 176h17l144 -9l-9 -33l-116 -134h-18zM164 927l165 -87h-12l164 87l13 -13l-146 -167h-50l-146 167z" />
    <glyph glyph-name="zcaron" unicode="&#x17e;" horiz-adv-x="524" 
d="M59 0v19l306 465h105v-20l-307 -464h-104zM137 0v40l291 28l-89 -28l110 120h19v-160h-331zM105 333l-50 151h351v-37l-285 -27l85 24l-82 -111h-19zM132 780l136 -107h-12l136 107l18 -11l-129 -209h-37l-129 209z" />
    <glyph glyph-name="uni018F" unicode="&#x18f;" horiz-adv-x="711" 
d="M332 -16q-89 0 -154 41.5t-100 118.5t-35 183h526v-44l-397 -19q0 -62 22.5 -112t61 -79t86.5 -29q60 0 105.5 36.5t71.5 102t26 151.5q0 95 -28 165t-79.5 108t-123.5 38q-50 0 -96.5 -15.5t-84.5 -44.5l26 85h98l-112 -154h-18l-71 119q31 22 74.5 37.5t93.5 24.5
t100 9q105 0 182 -43t119.5 -121t42.5 -184q0 -80 -25.5 -148t-70.5 -119t-106.5 -79t-133.5 -28z" />
    <glyph glyph-name="florin" unicode="&#x192;" horiz-adv-x="573" 
d="M83 -176q-29 0 -52.5 5.5t-49.5 17.5l53 119h17l73 -117h-45v22q34 0 60 41.5t45 122.5l91 395q28 123 86.5 189.5t138.5 66.5q27 0 53 -5.5t51 -16.5l-54 -123h-16l-72 118h89l-2 -57q-20 36 -62 36q-29 0 -55 -45.5t-45 -125.5l-89 -387q-18 -78 -50.5 -136t-74.5 -89
t-90 -31zM161 284l10 46h316l-10 -46h-316z" />
    <glyph glyph-name="uni019D" unicode="&#x19d;" horiz-adv-x="740" 
d="M589 -5l-455 582v113h47l433 -553l-24 -9l-43 484l-77 61v17h241v-17l-77 -61v-617h-45zM50 -251q-64 0 -94.5 36t-30.5 114h84q0 -53 10 -76.5t32 -23.5q29 0 41 44t14 157l14 592l-71 81v17h111l28 -690q5 -91 -8 -146.5t-44.5 -80t-85.5 -24.5z" />
    <glyph glyph-name="Ohorn" unicode="&#x1a0;" horiz-adv-x="785" 
d="M386 -16q-101 0 -179 44.5t-121 124.5t-43 185q0 109 45 192t125 129.5t186 46.5q102 0 179.5 -44.5t120.5 -124t43 -185.5q0 -109 -45 -192t-125 -129.5t-186 -46.5zM403 44q66 0 114 35t74 99t26 153q0 97 -29 167.5t-81.5 109t-124.5 38.5q-66 0 -114.5 -34.5
t-74.5 -99t-26 -153.5q0 -96 29 -167t82 -109.5t125 -38.5zM578 826l103 26q19 -58 7.5 -101t-49.5 -67t-99 -24h-95v30h59q58 0 76 34t-2 102z" />
    <glyph glyph-name="ohorn" unicode="&#x1a1;" horiz-adv-x="604" 
d="M297 -13q-75 0 -132.5 31.5t-90 88t-32.5 129.5q0 77 34 135.5t93.5 91.5t137.5 33q76 0 133 -31.5t89.5 -87t32.5 -129.5q0 -76 -34 -135t-93 -92.5t-138 -33.5zM309 44q42 0 73.5 23t49.5 64.5t18 96.5q0 64 -19.5 111.5t-54 73.5t-81.5 26q-41 0 -73 -23t-50 -64.5
t-18 -95.5q0 -64 19.5 -111.5t54 -74t81.5 -26.5zM527 580l94 40q63 -152 -124 -224l-52 -20v39l49 20q26 11 38 30.5t10.5 48.5t-15.5 66z" />
    <glyph glyph-name="Uhorn" unicode="&#x1af;" horiz-adv-x="708" 
d="M364 -16q-141 0 -213 69t-72 206v353l-77 61v17h268v-17l-77 -61v-325q0 -121 43 -177.5t135 -56.5t135 56.5t43 177.5v320l-89 66v17h168v-409q0 -94 -31.5 -160.5t-90.5 -101.5t-142 -35zM641 826l102 26q19 -58 8 -101t-49 -67t-99 -24h-95v30h58q59 0 77 34t-2 102z
" />
    <glyph glyph-name="uhorn" unicode="&#x1b0;" horiz-adv-x="604" 
d="M241 -13q-77 0 -116 44.5t-39 132.5v237l43 -69l-109 86v17l148 53h25v-294q0 -67 21.5 -96t73.5 -29q41 0 75 18t67 55v-64h-15q-48 -50 -87 -70.5t-87 -20.5zM452 -12l-29 90h-9v324l43 -69l-114 86v16l152 54h25v-404l-41 61l106 -80v-17l-114 -61h-19zM552 580l94 40
q63 -152 -124 -224l-52 -20v39l49 20q26 11 38 30.5t10.5 48.5t-15.5 66z" />
    <glyph glyph-name="uni01CD" unicode="&#x1cd;" horiz-adv-x="722" 
d="M2 0v17l84 79l-47 -83l287 677h70l288 -677l-48 84l84 -80v-17h-274v17l124 81l-5 -85l-261 618h40l-207 -618l-11 85l124 -81v-17h-248zM172 211v52h354v-52h-354zM306 603l-71 70v17h110zM194 927l164 -87h-12l165 87l12 -13l-146 -167h-50l-146 167z" />
    <glyph glyph-name="uni01CE" unicode="&#x1ce;" horiz-adv-x="565" 
d="M412 -12l-27 78h-10v237q0 67 -30 101t-89 34q-31 0 -59.5 -13t-46.5 -35l5 83h83l-107 -140h-18l-53 114q26 15 59 26t70 17.5t74 6.5q109 0 163.5 -43.5t54.5 -130.5v-238l-41 61l106 -80v-17l-115 -61h-19zM196 -13q-66 0 -107.5 36.5t-41.5 94.5q0 134 210 169
l152 24v-43l-107 -26q-81 -19 -113.5 -42.5t-32.5 -64.5q0 -33 22 -52t61 -19q92 0 151 62v-60h-14q-38 -40 -82 -59.5t-98 -19.5zM152 780l136 -107h-12l136 107l18 -11l-129 -209h-37l-129 209z" />
    <glyph glyph-name="Gcaron" unicode="&#x1e6;" horiz-adv-x="762" 
d="M393 -16q-107 0 -186 42.5t-121.5 121t-42.5 184.5q0 80 27 148t75.5 119t113.5 79t141 28q48 0 97 -8.5t92 -24t71 -35.5l-72 -120h-18l-121 155h102l4 -89q-28 32 -66.5 47t-91.5 15q-67 0 -119 -37t-81.5 -102.5t-29.5 -150.5q0 -90 31 -159t86 -107.5t128 -38.5
q83 0 129 34.5t51 99.5l36 -20q-16 -89 -75.5 -135t-159.5 -46zM655 -16l-101 80v187l-87 65v18h266v-18l-65 -59v-273h-13zM244 927l165 -87h-12l164 87l13 -13l-146 -167h-50l-146 167z" />
    <glyph glyph-name="gcaron" unicode="&#x1e7;" horiz-adv-x="582" 
d="M281 -251q-74 0 -130 17.5t-86.5 49t-30.5 72.5q0 34 23.5 61t61.5 36v30h66v-35q-46 -27 -46 -82q0 -46 45.5 -73t122.5 -27q74 0 117.5 27t43.5 73q0 37 -26 59.5t-71 22.5h-203q-51 0 -82 28t-31 75q0 30 12.5 53.5t34.5 37.5t50 15l33 -28q-24 0 -37 -11.5t-13 -31.5
q0 -22 16.5 -32t52.5 -10h181q80 0 128.5 -39.5t48.5 -105.5q0 -53 -36 -94.5t-99 -64.5t-146 -23zM271 143q-61 0 -108.5 22t-74.5 60.5t-27 88.5q0 55 29 96t80 63.5t119 22.5q25 0 49.5 -4t44.5 -12v-15q59 -32 86 -66.5t27 -78.5q0 -52 -29 -92t-79.5 -62.5
t-116.5 -22.5zM284 194q50 0 78 29.5t28 81.5q0 65 -30.5 102.5t-83.5 37.5q-49 0 -77.5 -29.5t-28.5 -81.5q0 -64 31 -102t83 -38zM545 427l-148 34l-7 -14l-74 36l241 57l5 -5v-108h-17zM146 780l136 -107h-12l136 107l17 -11l-129 -209h-36l-129 209z" />
    <glyph glyph-name="uni01EA" unicode="&#x1ea;" horiz-adv-x="785" 
d="M386 -16q-101 0 -179 44.5t-121 124.5t-43 185q0 109 45 192t125 129.5t186 46.5q102 0 179.5 -44.5t120.5 -124t43 -185.5q0 -109 -45 -192t-125 -129.5t-186 -46.5zM472 -251q-49 0 -79.5 29t-30.5 76q0 40 21 76.5t53 54.5v36h79v-16q-29 -10 -47.5 -40.5t-18.5 -68.5
q0 -37 16.5 -56t48.5 -19q21 0 41.5 9t34.5 25l15 -10q-13 -46 -48.5 -71t-84.5 -25zM403 44q66 0 114 35t74 99t26 153q0 97 -29 167.5t-81.5 109t-124.5 38.5q-66 0 -114.5 -34.5t-74.5 -99t-26 -153.5q0 -96 29 -167t82 -109.5t125 -38.5z" />
    <glyph glyph-name="uni01EB" unicode="&#x1eb;" horiz-adv-x="604" 
d="M297 -13q-75 0 -132.5 31.5t-90 88t-32.5 129.5q0 77 34 135.5t93.5 91.5t137.5 33q76 0 133 -31.5t89.5 -87t32.5 -129.5q0 -76 -34 -135t-93 -92.5t-138 -33.5zM343 -251q-48 0 -76.5 28t-28.5 73q0 36 22.5 72t62.5 64v43h78v-24q-37 -17 -57 -48t-20 -69
q0 -67 61 -67q21 0 41.5 9t34.5 25l15 -10q-13 -44 -49 -70t-84 -26zM309 44q42 0 73.5 23t49.5 64.5t18 96.5q0 64 -19.5 111.5t-54 73.5t-81.5 26q-41 0 -73 -23t-50 -64.5t-18 -95.5q0 -64 19.5 -111.5t54 -74t81.5 -26.5z" />
    <glyph glyph-name="AEacute" unicode="&#x1fc;" horiz-adv-x="941" 
d="M2 0v17l73 77l-52 -81l373 677h91l132 -690h-217v17l123 81l-20 -85l-119 618h25l-283 -618l-8 89l121 -84v-18h-239zM195 215v52h315v-52h-315zM569 0v41l285 21v-62h-285zM749 0v42l131 129h18l-6 -171h-143zM770 325l-263 11v44l263 12v-67zM376 602l-94 71v17h133z
M783 260l-83 79v39l83 78h18v-196h-18zM838 628l-412 16v46h412v-62zM851 541l-120 104v45l120 9h13l5 -158h-18zM386 738l-13 14l157 185h3l77 -93v-3z" />
    <glyph glyph-name="aeacute" unicode="&#x1fd;" horiz-adv-x="873" 
d="M375 268v35q0 67 -30 101t-89 34q-31 0 -59.5 -13t-46.5 -35l5 83h83l-107 -140h-18l-53 114q26 15 59 26t70 17.5t74 6.5q66 0 115 -21.5t76 -60.5t27 -92v-55h-106zM196 -13q-66 0 -107.5 36.5t-41.5 94.5q0 62 55 102t155 52l152 18v-48l-107 -15q-78 -12 -112 -33.5
t-34 -60.5q0 -32 22 -50.5t61 -18.5q53 0 103 22t84 60l3 -65h-14q-43 -46 -99 -70t-120 -24zM616 -13q-70 0 -124.5 30.5t-85 84t-30.5 122.5q0 60 18.5 110t52.5 86t81 56t103 20q61 0 105.5 -27t69 -77t24.5 -117l-382 -30v45l265 36q0 52 -28 82.5t-75 30.5
q-37 0 -65 -23.5t-43.5 -65.5t-15.5 -97q0 -91 44 -141.5t123 -50.5q87 0 142 53l24 -24q-31 -49 -84.5 -76t-118.5 -27zM415 552l-17 11l86 212h4l101 -67v-3z" />
    <glyph glyph-name="Oslashacute" unicode="&#x1fe;" horiz-adv-x="785" 
d="M386 -16q-101 0 -179 44.5t-121 124.5t-43 185q0 109 45 192t125 129.5t186 46.5q102 0 179.5 -44.5t120.5 -124t43 -185.5q0 -109 -45 -192t-125 -129.5t-186 -46.5zM403 44q66 0 114 35t74 99t26 153q0 97 -29 167.5t-81.5 109t-124.5 38.5q-66 0 -114.5 -34.5
t-74.5 -99t-26 -153.5q0 -96 29 -167t82 -109.5t125 -38.5zM108 -17l528 753l42 -30l-528 -753zM326 738l-13 14l157 185h3l77 -93v-3z" />
    <glyph glyph-name="oslashacute" unicode="&#x1ff;" horiz-adv-x="604" 
d="M297 -13q-75 0 -132.5 31.5t-90 88t-32.5 129.5q0 77 34 135.5t93.5 91.5t137.5 33q76 0 133 -31.5t89.5 -87t32.5 -129.5q0 -76 -34 -135t-93 -92.5t-138 -33.5zM309 44q42 0 73.5 23t49.5 64.5t18 96.5q0 64 -19.5 111.5t-54 73.5t-81.5 26q-41 0 -73 -23t-50 -64.5
t-18 -95.5q0 -64 19.5 -111.5t54 -74t81.5 -26.5zM130 -43l-36 25l380 544l36 -25zM268 552l-17 11l86 212h4l101 -67v-3z" />
    <glyph glyph-name="uni0218" unicode="&#x218;" horiz-adv-x="615" 
d="M304 -16q-46 0 -94.5 9.5t-91.5 26t-75 38.5l60 125h18l121 -162h-96v96q22 -36 65 -54.5t103 -18.5q71 0 112 36t41 97q0 47 -44.5 77.5t-137.5 52.5q-76 19 -126.5 46.5t-75.5 64.5t-25 85q0 94 71 148.5t193 54.5q43 0 87 -9t85 -24.5t70 -37.5l-71 -119h-18l-112 154
h104l-6 -95q-23 37 -59 54t-88 17q-66 0 -108.5 -31.5t-42.5 -80.5q0 -47 44.5 -77.5t138.5 -52.5q76 -19 126 -46.5t75 -64t25 -85.5q0 -68 -33 -118.5t-93 -78t-142 -27.5zM225 -301l-6 29q35 6 55.5 25t20.5 46l-65 42v5q0 31 22.5 53.5t54.5 22.5q37 0 59.5 -24
t22.5 -64q0 -38 -20.5 -67.5t-57 -47.5t-86.5 -20z" />
    <glyph glyph-name="uni0219" unicode="&#x219;" horiz-adv-x="510" 
d="M248 -13q-38 0 -77 7.5t-74.5 20.5t-62.5 31l52 110h18l98 -137h-74l-5 78q24 -30 56 -43.5t75 -13.5q51 0 82.5 22t31.5 56q0 30 -22.5 46.5t-57.5 27t-74.5 20.5t-74 26t-57 42.5t-22.5 70.5q0 68 56 106.5t152 38.5q34 0 69 -6t67.5 -17t58.5 -27l-53 -109h-18
l-105 136h81l5 -78q-18 23 -49 36t-64 13q-46 0 -73.5 -17.5t-27.5 -47.5q0 -29 22.5 -45t57.5 -26.5t74.5 -20.5t74.5 -26t57.5 -43t22.5 -72q0 -76 -57 -117.5t-163 -41.5zM173 -301l-6 29q35 6 55.5 25t20.5 46l-65 42v5q0 31 22.5 53.5t54.5 22.5q37 0 59.5 -24
t22.5 -64q0 -38 -20.5 -67.5t-57 -47.5t-86.5 -20z" />
    <glyph glyph-name="uni021A" unicode="&#x21a;" horiz-adv-x="698" 
d="M205 0v17l87 61v604l47 -35l-267 -21v64h553v-64l-267 21l48 35v-604l86 -61v-17h-287zM43 525l3 174h13l126 -9l2 -45l-126 -120h-18zM637 525l-127 120l2 45l126 9h14l3 -174h-18zM266 -301l-6 29q35 6 55.5 25t20.5 46l-65 42v5q0 31 22.5 53.5t54.5 22.5
q37 0 59.5 -24t22.5 -64q0 -38 -20.5 -67.5t-57 -47.5t-86.5 -20z" />
    <glyph glyph-name="uni021B" unicode="&#x21b;" horiz-adv-x="453" 
d="M269 -13q-52 0 -91 22t-60 61.5t-21 93.5v303l43 -59h-127v17l166 188h24v-420q0 -64 23.5 -96.5t72.5 -32.5q67 0 113 55l28 -19q-23 -51 -68.5 -82t-102.5 -31zM391 399l-210 27v48l207 24h14v-92zM177 -301l-6 29q35 6 55.5 25t20.5 46l-65 42v5q0 31 22.5 53.5
t54.5 22.5q37 0 59.5 -24t22.5 -64q0 -38 -20.5 -67.5t-57 -47.5t-86.5 -20z" />
    <glyph glyph-name="uni0232" unicode="&#x232;" horiz-adv-x="686" 
d="M315 206l-288 471l58 -82l-83 78v17h268v-17l-134 -95l17 99l229 -374h-6l169 374l16 -92l-122 88v17h245v-17l-80 -75l56 79l-295 -471h-50zM210 0v17l77 61v208h114v-208l78 -61v-17h-269zM182 772v71h342v-71h-342z" />
    <glyph glyph-name="uni0233" unicode="&#x233;" horiz-adv-x="571" 
d="M264 -61l-226 510h36v-64l-72 84v15h228v-15l-69 -68h-11v47l176 -397l-33 -3l149 412v-56h-11l-72 65v15h210v-15l-71 -81v61h37l-356 -700h-18l-94 88v14l199 144zM138 586v71h319v-71h-319z" />
    <glyph glyph-name="uni0237" unicode="&#x237;" horiz-adv-x="301" 
d="M27 -238l-46 121l10 17l138 -33l-24 -26v549l43 -65l-115 89v17l153 58h25v-481q0 -82 -42 -142t-131 -104h-11z" />
    <glyph glyph-name="uni0259" unicode="&#x259;" horiz-adv-x="540" 
d="M256 496q72 0 126 -30t85 -83t31 -123q0 -80 -33 -141.5t-90.5 -96.5t-132.5 -35q-60 0 -105.5 30t-70 84.5t-24.5 129.5h383v-39l-263 -25q0 -58 27.5 -90t73.5 -32q37 0 65 23.5t43.5 65t15.5 96.5q0 92 -44 142.5t-124 50.5q-87 0 -142 -53l-24 24q31 49 84.5 75.5
t118.5 26.5z" />
    <glyph glyph-name="uni0272" unicode="&#x272;" horiz-adv-x="648" 
d="M55 -251q-67 0 -100.5 38t-33.5 112h90q0 -54 10.5 -77t34.5 -23q27 0 38 30.5t11 108.5v458l43 -72l-115 90v17l153 58h25l-6 -85h6v-462q0 -100 -37.5 -146.5t-118.5 -46.5zM381 0v15l86 71l-16 -28v232q0 67 -24 96t-80 29q-44 0 -80 -18t-71 -57v64h14q92 93 184 93
q81 0 122 -45.5t41 -134.5v-261l-16 29l87 -70v-15h-247z" />
    <glyph glyph-name="uni02BB" unicode="&#x2bb;" horiz-adv-x="33" 
d="M97 782l6 -29q-35 -5 -55.5 -24.5t-20.5 -45.5l65 -43v-5q0 -31 -22.5 -53t-55.5 -22q-36 0 -58.5 24t-22.5 63t20.5 68t57.5 47t86 20z" />
    <glyph glyph-name="circumflex" unicode="&#x2c6;" horiz-adv-x="379" 
d="M59 553l-17 11l129 209h37l129 -209l-17 -11l-136 107h12z" />
    <glyph glyph-name="caron" unicode="&#x2c7;" horiz-adv-x="379" 
d="M59 780l137 -107h-12l136 107l17 -11l-129 -209h-37l-129 209z" />
    <glyph glyph-name="breve" unicode="&#x2d8;" horiz-adv-x="387" 
d="M194 560q-70 0 -111 48t-41 131l17 2q17 -48 52 -74t82 -26q49 0 83.5 26t51.5 74l17 -2q0 -83 -41 -131t-110 -48z" />
    <glyph glyph-name="dotaccent" unicode="&#x2d9;" horiz-adv-x="221" 
d="M111 560q-35 0 -56 20t-21 52q0 31 21 51t56 20q34 0 55 -20t21 -51q0 -32 -21 -52t-55 -20z" />
    <glyph glyph-name="ring" unicode="&#x2da;" horiz-adv-x="332" 
d="M166 555q-54 0 -89 32.5t-35 83.5q0 52 35 84.5t89 32.5q55 0 89.5 -32.5t34.5 -84.5q0 -51 -34.5 -83.5t-89.5 -32.5zM166 599q32 0 52 20.5t20 51.5q0 33 -20 52.5t-52 19.5q-31 0 -51.5 -19.5t-20.5 -52.5q0 -31 20.5 -51.5t51.5 -20.5z" />
    <glyph glyph-name="ogonek" unicode="&#x2db;" horiz-adv-x="323" 
d="M147 -251q-48 0 -76.5 28t-28.5 73q0 56 36.5 101.5t95.5 62.5v-26q-22 -16 -34 -41t-12 -59q0 -67 62 -67q20 0 40.5 9t35.5 25l14 -10q-13 -44 -48.5 -70t-84.5 -26z" />
    <glyph glyph-name="tilde" unicode="&#x2dc;" horiz-adv-x="462" 
d="M308 559q-34 0 -61 12.5t-52 25.5t-53 13t-47.5 -12.5t-30.5 -36.5l-22 6q13 57 42.5 89.5t69.5 32.5q35 0 61.5 -13t51.5 -25.5t53 -12.5t48 12.5t30 36.5l22 -6q-12 -57 -42 -89.5t-70 -32.5z" />
    <glyph glyph-name="hungarumlaut" unicode="&#x2dd;" horiz-adv-x="339" 
d="M66 553l-20 5l-4 214l3 2l106 -26v-4zM183 553l-20 5l24 213l3 2l107 -28v-3z" />
    <glyph glyph-name="gravecomb" unicode="&#x300;" 
d="M216 552l-174 153v3l102 67h3l86 -212z" />
    <glyph glyph-name="acutecomb" unicode="&#x301;" 
d="M59 552l-17 11l86 212h4l101 -67v-3z" />
    <glyph glyph-name="uni0302" unicode="&#x302;" 
d="M59 553l-17 11l129 209h37l129 -209l-17 -11l-136 107h12z" />
    <glyph glyph-name="tildecomb" unicode="&#x303;" 
d="M308 559q-34 0 -61 12.5t-52 25.5t-53 13t-47.5 -12.5t-30.5 -36.5l-22 6q13 57 42.5 89.5t69.5 32.5q35 0 61.5 -13t51.5 -25.5t53 -12.5t48 12.5t30 36.5l22 -6q-12 -57 -42 -89.5t-70 -32.5z" />
    <glyph glyph-name="uni0304" unicode="&#x304;" 
d="M42 586v71h319v-71h-319z" />
    <glyph glyph-name="uni0306" unicode="&#x306;" 
d="M194 560q-70 0 -111 48t-41 131l17 2q17 -48 52 -74t82 -26q49 0 83.5 26t51.5 74l17 -2q0 -83 -41 -131t-110 -48z" />
    <glyph glyph-name="uni0307" unicode="&#x307;" 
d="M111 560q-35 0 -56 20t-21 52q0 31 21 51t56 20q34 0 55 -20t21 -51q0 -32 -21 -52t-55 -20z" />
    <glyph glyph-name="uni0308" unicode="&#x308;" 
d="M110 567q-30 0 -49 18t-19 46q0 27 19 45t49 18q29 0 48.5 -18t19.5 -45q0 -28 -19.5 -46t-48.5 -18zM319 567q-29 0 -48.5 18t-19.5 46q0 27 19.5 45t48.5 18q31 0 50 -18t19 -45q0 -28 -19 -46t-50 -18z" />
    <glyph glyph-name="hookabovecomb" unicode="&#x309;" 
d="M90 560l-7 20q30 3 47 15.5t17 30.5q0 23 -23.5 36.5t-59.5 13.5l-22 83q77 0 125 -28.5t48 -73.5q0 -42 -36.5 -69.5t-88.5 -27.5z" />
    <glyph glyph-name="uni030A" unicode="&#x30a;" 
d="M166 555q-54 0 -89 32.5t-35 83.5q0 52 35 84.5t89 32.5q55 0 89.5 -32.5t34.5 -84.5q0 -51 -34.5 -83.5t-89.5 -32.5zM166 599q32 0 52 20.5t20 51.5q0 33 -20 52.5t-52 19.5q-31 0 -51.5 -19.5t-20.5 -52.5q0 -31 20.5 -51.5t51.5 -20.5z" />
    <glyph glyph-name="uni030B" unicode="&#x30b;" 
d="M66 553l-20 5l-4 214l3 2l106 -26v-4zM183 553l-20 5l24 213l3 2l107 -28v-3z" />
    <glyph glyph-name="uni030C" unicode="&#x30c;" 
d="M59 780l137 -107h-12l136 107l17 -11l-129 -209h-37l-129 209z" />
    <glyph glyph-name="uni0312" unicode="&#x312;" 
d="M207 782l5 -29q-35 -5 -55.5 -24.5t-20.5 -45.5l65 -43v-5q0 -31 -22.5 -53t-54.5 -22q-37 0 -59.5 24t-22.5 63t20.5 68t57.5 47t87 20z" />
    <glyph glyph-name="uni0313" unicode="&#x313;" 
d="M48 557l-6 29q35 6 55.5 25t20.5 46l-65 42v5q0 31 22.5 53.5t54.5 22.5q37 0 59.5 -24t22.5 -64q0 -38 -20.5 -67.5t-57 -47.5t-86.5 -20z" />
    <glyph glyph-name="uni031B" unicode="&#x31b;" 
d="M124 587l94 40q63 -152 -124 -224l-52 -20v39l49 20q26 11 38 30.5t10.5 48.5t-15.5 66z" />
    <glyph glyph-name="dotbelowcomb" unicode="&#x323;" 
d="M119 -223q-34 0 -55.5 20t-21.5 52q0 31 21.5 51.5t55.5 20.5t55 -20.5t21 -51.5q0 -32 -21 -52t-55 -20z" />
    <glyph glyph-name="uni0326" unicode="&#x326;" 
d="M48 -301l-6 29q35 6 55.5 25t20.5 46l-65 42v5q0 31 22.5 53.5t54.5 22.5q37 0 59.5 -24t22.5 -64q0 -38 -20.5 -67.5t-57 -47.5t-86.5 -20z" />
    <glyph glyph-name="uni0327" unicode="&#x327;" 
d="M42 -244l14 33q51 -7 85 5.5t34 38.5q0 20 -21 34.5t-59 18.5l52 128h41l-25 -61q49 -7 78 -33.5t29 -63.5q0 -41 -29 -67.5t-80.5 -35t-118.5 2.5z" />
    <glyph glyph-name="uni0328" unicode="&#x328;" 
d="M147 -251q-48 0 -76.5 28t-28.5 73q0 56 36.5 101.5t95.5 62.5v-26q-22 -16 -34 -41t-12 -59q0 -67 62 -67q20 0 40.5 9t35.5 25l14 -10q-13 -44 -48.5 -70t-84.5 -26z" />
    <glyph glyph-name="uni0331" unicode="&#x331;" 
d="M42 -169v71h353v-71h-353z" />
    <glyph glyph-name="uni0335" unicode="&#x335;" 
d="M42 273v48h323v-48h-323z" />
    <glyph glyph-name="uni0336" unicode="&#x336;" 
d="M42 273v55h710v-55h-710z" />
    <glyph glyph-name="uni0337" unicode="&#x337;" 
d="M42 278v54l250 115v-53z" />
    <glyph glyph-name="uni0338" unicode="&#x338;" 
d="M131 -50l-36 25l380 544l36 -25z" />
    <glyph glyph-name="uni03A9" unicode="&#x3a9;" horiz-adv-x="850" 
d="M54 0l-12 179h18l80 -85h153l21 -16q-53 0 -99 22t-81 60.5t-54.5 90.5t-19.5 111q0 73 27.5 136t76.5 109.5t116 72.5t145 26q79 0 145.5 -26t116 -72.5t77 -109.5t27.5 -136q0 -59 -20 -111t-54.5 -90.5t-80.5 -60.5t-100 -22l22 16h152l80 85h18l-12 -179h-329l-13 41
v13q102 22 157 100.5t55 200.5q0 85 -30.5 150.5t-84.5 102t-126 36.5q-71 0 -125.5 -36.5t-85 -102t-30.5 -150.5q0 -122 55.5 -200.5t156.5 -100.5v-13l-13 -41h-329z" />
    <glyph glyph-name="pi" unicode="&#x3c0;" horiz-adv-x="754" 
d="M584 -16q-68 0 -103.5 44t-35.5 128v275l104 20v-288q0 -60 20 -86t66 -26q32 0 58 15l17 -19q-14 -29 -48 -46t-78 -17zM133 0l109 445l49 6l-21 -451h-137zM64 359l-22 6q13 60 51.5 91t99.5 31h503v-9l-29 -82h-492q-48 0 -75 -9t-36 -28z" />
    <glyph glyph-name="uni0E3F" unicode="&#xe3f;" horiz-adv-x="641" 
d="M200 0v52h129q68 0 106.5 36.5t38.5 101.5t-35 102t-97 37h-137v50h158q109 0 172 -44t63 -122q0 -64 -33.5 -111.5t-93.5 -74.5t-141 -27h-130zM29 0v17l77 61v514l-77 61v17h191v-670h-191zM295 -107v884h48v-884h-48zM398 358v30h44v-30h-44zM230 356v23l109 3
q46 1 74 32t28 80q0 58 -34.5 91t-94.5 33h-137v52h149q71 0 124 -18.5t83 -52.5t30 -80q0 -79 -56.5 -121t-165.5 -42h-109z" />
    <glyph glyph-name="Dmacronbelow" unicode="&#x1e0e;" horiz-adv-x="748" 
d="M184 0v52h143q82 0 138 33.5t86 96t30 152.5q0 93 -30 161.5t-85 105.5t-130 37h-152v52h164q106 0 186.5 -42t125.5 -117.5t45 -174.5q0 -79 -27.5 -144t-77.5 -112.5t-119.5 -73.5t-152.5 -26h-144zM29 0v17l77 61v534l-77 61v17h191v-690h-191zM136 -169v71h413v-71
h-413z" />
    <glyph glyph-name="dmacronbelow" unicode="&#x1e0f;" horiz-adv-x="605" 
d="M451 -12l-27 85h-10v594l43 -67l-115 89v17l153 59h25v-680l-41 61l106 -80v-17l-116 -61h-18zM249 -13q-63 0 -109.5 29.5t-72 83t-25.5 125.5q0 80 34.5 141t95 95.5t139.5 34.5q88 0 144 -41v-94q-24 39 -61.5 59.5t-87.5 20.5q-45 0 -79.5 -24t-54 -68t-19.5 -102
q0 -87 35 -134.5t98 -47.5q44 0 78 17.5t65 55.5v-65h-14q-30 -40 -74.5 -63t-91.5 -23zM127 -169v71h353v-71h-353z" />
    <glyph glyph-name="uni1E20" unicode="&#x1e20;" horiz-adv-x="762" 
d="M393 -16q-107 0 -186 42.5t-121.5 121t-42.5 184.5q0 80 27 148t75.5 119t113.5 79t141 28q48 0 97 -8.5t92 -24t71 -35.5l-72 -120h-18l-121 155h102l4 -89q-28 32 -66.5 47t-91.5 15q-67 0 -119 -37t-81.5 -102.5t-29.5 -150.5q0 -90 31 -159t86 -107.5t128 -38.5
q83 0 129 34.5t51 99.5l36 -20q-16 -89 -75.5 -135t-159.5 -46zM655 -16l-101 80v187l-87 65v18h266v-18l-65 -59v-273h-13zM227 772v71h342v-71h-342z" />
    <glyph glyph-name="uni1E21" unicode="&#x1e21;" horiz-adv-x="582" 
d="M281 -251q-74 0 -130 17.5t-86.5 49t-30.5 72.5q0 34 23.5 61t61.5 36v30h66v-35q-46 -27 -46 -82q0 -46 45.5 -73t122.5 -27q74 0 117.5 27t43.5 73q0 37 -26 59.5t-71 22.5h-203q-51 0 -82 28t-31 75q0 30 12.5 53.5t34.5 37.5t50 15l33 -28q-24 0 -37 -11.5t-13 -31.5
q0 -22 16.5 -32t52.5 -10h181q80 0 128.5 -39.5t48.5 -105.5q0 -53 -36 -94.5t-99 -64.5t-146 -23zM271 143q-61 0 -108.5 22t-74.5 60.5t-27 88.5q0 55 29 96t80 63.5t119 22.5q25 0 49.5 -4t44.5 -12v-15q59 -32 86 -66.5t27 -78.5q0 -52 -29 -92t-79.5 -62.5
t-116.5 -22.5zM284 194q50 0 78 29.5t28 81.5q0 65 -30.5 102.5t-83.5 37.5q-49 0 -77.5 -29.5t-28.5 -81.5q0 -64 31 -102t83 -38zM545 427l-148 34l-7 -14l-74 36l241 57l5 -5v-108h-17zM116 586v71h319v-71h-319z" />
    <glyph glyph-name="Lmacronbelow" unicode="&#x1e3a;" horiz-adv-x="602" 
d="M29 0v17l77 61v534l-77 61v17h277v-17l-86 -61v-612h-191zM195 0v44l347 18v-62h-347zM411 0v42l130 148h18l-4 -190h-144zM95 -169v71h413v-71h-413z" />
    <glyph glyph-name="lmacronbelow" unicode="&#x1e3b;" horiz-adv-x="302" 
d="M34 0v15l87 71l-16 -28v609l43 -67l-115 89v17l153 59h25v-709l-15 29l86 -70v-15h-248zM-25 -169v71h353v-71h-353z" />
    <glyph glyph-name="Nmacronbelow" unicode="&#x1e48;" horiz-adv-x="740" 
d="M589 -5l-455 582v113h47l433 -553l-24 -9l-43 484l-77 61v17h241v-17l-77 -61v-617h-45zM29 0v17l77 61l14 514l-71 81v17h108l37 -612l77 -61v-17h-242zM163 -169v71h413v-71h-413z" />
    <glyph glyph-name="nmacronbelow" unicode="&#x1e49;" horiz-adv-x="648" 
d="M381 0v15l86 71l-16 -28v232q0 67 -24 96t-80 29q-44 0 -80 -18t-71 -57v64h14q92 93 184 93q81 0 122 -45.5t41 -134.5v-261l-16 29l87 -70v-15h-247zM34 0v15l87 71l-16 -30v340l43 -72l-115 90v17l153 58h25l-6 -85h6v-348l-15 29l85 -70v-15h-247zM147 -169v71h353
v-71h-353z" />
    <glyph glyph-name="Rmacronbelow" unicode="&#x1e5e;" horiz-adv-x="667" 
d="M29 0v17l77 61v534l-77 61v17h191v-612l78 -61v-17h-269zM494 0l-216 325l118 20l219 -332l-87 101l127 -97v-17h-161zM168 299v51h133q69 0 110.5 39.5t41.5 106.5q0 65 -41 103.5t-111 38.5h-151v52h173q119 0 186.5 -49t67.5 -136q0 -89 -65.5 -141.5t-180.5 -52.5h-5
v-12h-158zM127 -169v71h413v-71h-413z" />
    <glyph glyph-name="rmacronbelow" unicode="&#x1e5f;" horiz-adv-x="449" 
d="M34 0v15l87 71l-16 -28v332l43 -66l-115 90v17l153 58h25l-6 -102h6v-331l-15 27l116 -68v-15h-278zM203 322l-7 65h14q28 51 72 80.5t91 29.5q36 0 67 -12l-57 -152h-18l-92 95l88 -25q-51 0 -93 -21.5t-65 -59.5zM-1 -169v71h353v-71h-353z" />
    <glyph glyph-name="Tmacronbelow" unicode="&#x1e6e;" horiz-adv-x="698" 
d="M205 0v17l87 61v604l47 -35l-267 -21v64h553v-64l-267 21l48 35v-604l86 -61v-17h-287zM43 525l3 174h13l126 -9l2 -45l-126 -120h-18zM637 525l-127 120l2 45l126 9h14l3 -174h-18zM142 -169v71h413v-71h-413z" />
    <glyph glyph-name="tmacronbelow" unicode="&#x1e6f;" horiz-adv-x="453" 
d="M269 -13q-52 0 -91 22t-60 61.5t-21 93.5v303l43 -59h-127v17l166 188h24v-420q0 -64 23.5 -96.5t72.5 -32.5q67 0 113 55l28 -19q-23 -51 -68.5 -82t-102.5 -31zM391 399l-210 27v48l207 24h14v-92zM83 -169v71h353v-71h-353z" />
    <glyph glyph-name="Wgrave" unicode="&#x1e80;" horiz-adv-x="1092" 
d="M741 -10l-224 563l1 48l-112 72v17h294v-17l-121 -77l8 79l232 -585h-40l170 587l17 -84l-122 80v17h246v-17l-83 -83l47 87l-272 -687h-41zM306 -10l-271 683l43 -81l-76 81v17h260v-17l-122 -81l12 83l232 -585h-39l171 587h103l-272 -687h-41zM620 738l-224 103v3
l77 93h3l157 -185z" />
    <glyph glyph-name="wgrave" unicode="&#x1e81;" horiz-adv-x="874" 
d="M267 -10l-225 459h36v-62l-76 82v15h236v-15l-71 -75h-11v54l173 -352h-27l113 388h44l19 -86l-184 -408h-27zM578 -10l-158 373l16 121h44l165 -387h-26l119 363l1 -60h-10l-69 69v15h212v-15l-77 -81v61h37l-226 -459h-28zM486 552l-173 153v3l101 67h3l86 -212z" />
    <glyph glyph-name="Wacute" unicode="&#x1e82;" horiz-adv-x="1092" 
d="M741 -10l-224 563l1 48l-112 72v17h294v-17l-121 -77l8 79l232 -585h-40l170 587l17 -84l-122 80v17h246v-17l-83 -83l47 87l-272 -687h-41zM306 -10l-271 683l43 -81l-76 81v17h260v-17l-122 -81l12 83l232 -585h-39l171 587h103l-272 -687h-41zM486 738l-13 14l157 185
h3l77 -93v-3z" />
    <glyph glyph-name="wacute" unicode="&#x1e83;" horiz-adv-x="874" 
d="M267 -10l-225 459h36v-62l-76 82v15h236v-15l-71 -75h-11v54l173 -352h-27l113 388h44l19 -86l-184 -408h-27zM578 -10l-158 373l16 121h44l165 -387h-26l119 363l1 -60h-10l-69 69v15h212v-15l-77 -81v61h37l-226 -459h-28zM416 552l-17 11l86 212h4l101 -67v-3z" />
    <glyph glyph-name="Wdieresis" unicode="&#x1e84;" horiz-adv-x="1092" 
d="M741 -10l-224 563l1 48l-112 72v17h294v-17l-121 -77l8 79l232 -585h-40l170 587l17 -84l-122 80v17h246v-17l-83 -83l47 87l-272 -687h-41zM306 -10l-271 683l43 -81l-76 81v17h260v-17l-122 -81l12 83l232 -585h-39l171 587h103l-272 -687h-41zM447 748q-30 0 -49 17.5
t-19 44.5q0 28 19 45t49 17q29 0 48.5 -17t19.5 -45q0 -27 -19.5 -44.5t-48.5 -17.5zM659 748q-30 0 -49 17.5t-19 44.5q0 28 19 45t49 17t49 -17t19 -45q0 -27 -19 -44.5t-49 -17.5z" />
    <glyph glyph-name="wdieresis" unicode="&#x1e85;" horiz-adv-x="874" 
d="M267 -10l-225 459h36v-62l-76 82v15h236v-15l-71 -75h-11v54l173 -352h-27l113 388h44l19 -86l-184 -408h-27zM578 -10l-158 373l16 121h44l165 -387h-26l119 363l1 -60h-10l-69 69v15h212v-15l-77 -81v61h37l-226 -459h-28zM346 567q-30 0 -49 18t-19 46q0 27 19 45
t49 18q29 0 48.5 -18t19.5 -45q0 -28 -19.5 -46t-48.5 -18zM555 567q-29 0 -48.5 18t-19.5 46q0 27 19.5 45t48.5 18q31 0 50 -18t19 -45q0 -28 -19 -46t-50 -18z" />
    <glyph glyph-name="uni1E9E" unicode="&#x1e9e;" horiz-adv-x="791" 
d="M486 -16q-53 0 -102 13.5t-94 41.5l60 130h18l112 -148h-117v98q17 -44 44 -65t67 -21q66 0 108.5 44.5t42.5 113.5q0 59 -27 103.5t-75.5 70t-111.5 25.5l14 40q100 0 172.5 -26t111.5 -74t39 -115q0 -64 -35 -116.5t-94.5 -83.5t-132.5 -31zM29 0v17l77 61v534l-77 61
v17h191v-690h-191zM392 390l-6 17l188 283h114v-17l-189 -283h-107zM179 638v52h462v-52h-462z" />
    <glyph glyph-name="uni1EA0" unicode="&#x1ea0;" horiz-adv-x="722" 
d="M2 0v17l84 79l-47 -83l287 677h70l288 -677l-48 84l84 -80v-17h-274v17l124 81l-5 -85l-261 618h40l-207 -618l-11 85l124 -81v-17h-248zM172 211v52h354v-52h-354zM306 603l-71 70v17h110zM362 -223q-34 0 -55.5 20t-21.5 52q0 31 21.5 51.5t55.5 20.5t55 -20.5
t21 -51.5q0 -32 -21 -52t-55 -20z" />
    <glyph glyph-name="uni1EA1" unicode="&#x1ea1;" horiz-adv-x="565" 
d="M412 -12l-27 78h-10v237q0 67 -30 101t-89 34q-31 0 -59.5 -13t-46.5 -35l5 83h83l-107 -140h-18l-53 114q26 15 59 26t70 17.5t74 6.5q109 0 163.5 -43.5t54.5 -130.5v-238l-41 61l106 -80v-17l-115 -61h-19zM196 -13q-66 0 -107.5 36.5t-41.5 94.5q0 134 210 169
l152 24v-43l-107 -26q-81 -19 -113.5 -42.5t-32.5 -64.5q0 -33 22 -52t61 -19q92 0 151 62v-60h-14q-38 -40 -82 -59.5t-98 -19.5zM283 -223q-34 0 -55.5 20t-21.5 52q0 31 21.5 51.5t55.5 20.5t55 -20.5t21 -51.5q0 -32 -21 -52t-55 -20z" />
    <glyph glyph-name="uni1EA2" unicode="&#x1ea2;" horiz-adv-x="722" 
d="M2 0v17l84 79l-47 -83l287 677h70l288 -677l-48 84l84 -80v-17h-274v17l124 81l-5 -85l-261 618h40l-207 -618l-11 85l124 -81v-17h-248zM172 211v52h354v-52h-354zM306 603l-71 70v17h110zM306 743l-5 21q64 8 64 46q0 18 -22.5 29.5t-59.5 11.5l-23 86q54 0 93 -12
t61 -34t22 -52q0 -41 -37 -68.5t-93 -27.5z" />
    <glyph glyph-name="uni1EA3" unicode="&#x1ea3;" horiz-adv-x="565" 
d="M412 -12l-27 78h-10v237q0 67 -30 101t-89 34q-31 0 -59.5 -13t-46.5 -35l5 83h83l-107 -140h-18l-53 114q26 15 59 26t70 17.5t74 6.5q109 0 163.5 -43.5t54.5 -130.5v-238l-41 61l106 -80v-17l-115 -61h-19zM196 -13q-66 0 -107.5 36.5t-41.5 94.5q0 134 210 169
l152 24v-43l-107 -26q-81 -19 -113.5 -42.5t-32.5 -64.5q0 -33 22 -52t61 -19q92 0 151 62v-60h-14q-38 -40 -82 -59.5t-98 -19.5zM245 560l-7 20q30 3 47 15.5t17 30.5q0 23 -23.5 36.5t-59.5 13.5l-22 83q77 0 125 -28.5t48 -73.5q0 -42 -36.5 -69.5t-88.5 -27.5z" />
    <glyph glyph-name="uni1EA4" unicode="&#x1ea4;" horiz-adv-x="722" 
d="M2 0v17l84 79l-47 -83l287 677h70l288 -677l-48 84l84 -80v-17h-274v17l124 81l-5 -85l-261 618h40l-207 -618l-11 85l124 -81v-17h-248zM172 211v52h354v-52h-354zM306 603l-71 70v17h110zM190 721l-13 13l146 167h50l146 -167l-12 -13l-165 86h12zM468 843l-13 14
l156 185h3l77 -92v-4z" />
    <glyph glyph-name="uni1EA5" unicode="&#x1ea5;" horiz-adv-x="565" 
d="M412 -12l-27 78h-10v237q0 67 -30 101t-89 34q-31 0 -59.5 -13t-46.5 -35l5 83h83l-107 -140h-18l-53 114q26 15 59 26t70 17.5t74 6.5q109 0 163.5 -43.5t54.5 -130.5v-238l-41 61l106 -80v-17l-115 -61h-19zM196 -13q-66 0 -107.5 36.5t-41.5 94.5q0 134 210 169
l152 24v-43l-107 -26q-81 -19 -113.5 -42.5t-32.5 -64.5q0 -33 22 -52t61 -19q92 0 151 62v-60h-14q-38 -40 -82 -59.5t-98 -19.5zM152 553l-17 11l129 209h37l129 -209l-17 -11l-136 107h12zM422 673l-18 10l87 212h3l101 -67v-3z" />
    <glyph glyph-name="uni1EA6" unicode="&#x1ea6;" horiz-adv-x="722" 
d="M2 0v17l84 79l-47 -83l287 677h70l288 -677l-48 84l84 -80v-17h-274v17l124 81l-5 -85l-261 618h40l-207 -618l-11 85l124 -81v-17h-248zM172 211v52h354v-52h-354zM306 603l-71 70v17h110zM190 720l-13 13l146 167h50l146 -167l-12 -13l-165 86h12zM553 804l-174 175v3
l105 60h3l83 -229z" />
    <glyph glyph-name="uni1EA7" unicode="&#x1ea7;" horiz-adv-x="565" 
d="M412 -12l-27 78h-10v237q0 67 -30 101t-89 34q-31 0 -59.5 -13t-46.5 -35l5 83h83l-107 -140h-18l-53 114q26 15 59 26t70 17.5t74 6.5q109 0 163.5 -43.5t54.5 -130.5v-238l-41 61l106 -80v-17l-115 -61h-19zM196 -13q-66 0 -107.5 36.5t-41.5 94.5q0 134 210 169
l152 24v-43l-107 -26q-81 -19 -113.5 -42.5t-32.5 -64.5q0 -33 22 -52t61 -19q92 0 151 62v-60h-14q-38 -40 -82 -59.5t-98 -19.5zM152 553l-17 11l129 209h37l129 -209l-17 -11l-136 107h12zM443 665l-143 182v3l112 46h3l47 -224z" />
    <glyph glyph-name="uni1EA8" unicode="&#x1ea8;" horiz-adv-x="722" 
d="M2 0v17l84 79l-47 -83l287 677h70l288 -677l-48 84l84 -80v-17h-274v17l124 81l-5 -85l-261 618h40l-207 -618l-11 85l124 -81v-17h-248zM172 211v52h354v-52h-354zM306 603l-71 70v17h110zM190 720l-13 13l146 167h50l146 -167l-12 -13l-165 86h12zM484 831l-5 20
q64 9 64 46q0 19 -22.5 30t-60.5 11l-22 87q53 0 92.5 -12t61 -34t21.5 -52q0 -42 -37 -69t-92 -27z" />
    <glyph glyph-name="uni1EA9" unicode="&#x1ea9;" horiz-adv-x="565" 
d="M412 -12l-27 78h-10v237q0 67 -30 101t-89 34q-31 0 -59.5 -13t-46.5 -35l5 83h83l-107 -140h-18l-53 114q26 15 59 26t70 17.5t74 6.5q109 0 163.5 -43.5t54.5 -130.5v-238l-41 61l106 -80v-17l-115 -61h-19zM196 -13q-66 0 -107.5 36.5t-41.5 94.5q0 134 210 169
l152 24v-43l-107 -26q-81 -19 -113.5 -42.5t-32.5 -64.5q0 -33 22 -52t61 -19q92 0 151 62v-60h-14q-38 -40 -82 -59.5t-98 -19.5zM152 553l-17 11l129 209h37l129 -209l-17 -11l-136 107h12zM416 678l-6 20q30 4 46.5 16.5t16.5 30.5q0 22 -23 36t-60 14l-21 83
q77 0 124.5 -28.5t47.5 -74.5q0 -41 -36 -69t-89 -28z" />
    <glyph glyph-name="uni1EAA" unicode="&#x1eaa;" horiz-adv-x="722" 
d="M2 0v17l84 79l-47 -83l287 677h70l288 -677l-48 84l84 -80v-17h-274v17l124 81l-5 -85l-261 618h40l-207 -618l-11 85l124 -81v-17h-248zM172 211v52h354v-52h-354zM306 603l-71 70v17h110zM190 721l-13 13l146 167h50l146 -167l-12 -13l-165 86h12zM442 919
q-33 0 -57.5 9t-47.5 18.5t-51 9.5q-22 0 -40 -8.5t-28 -24.5l-19 6q12 60 34 85.5t57 25.5q34 0 58 -9t47 -18t51 -9q23 0 40.5 8t27.5 24l19 -6q-12 -58 -33.5 -84.5t-57.5 -26.5z" />
    <glyph glyph-name="uni1EAB" unicode="&#x1eab;" horiz-adv-x="565" 
d="M412 -12l-27 78h-10v237q0 67 -30 101t-89 34q-31 0 -59.5 -13t-46.5 -35l5 83h83l-107 -140h-18l-53 114q26 15 59 26t70 17.5t74 6.5q109 0 163.5 -43.5t54.5 -130.5v-238l-41 61l106 -80v-17l-115 -61h-19zM196 -13q-66 0 -107.5 36.5t-41.5 94.5q0 134 210 169
l152 24v-43l-107 -26q-81 -19 -113.5 -42.5t-32.5 -64.5q0 -33 22 -52t61 -19q92 0 151 62v-60h-14q-38 -40 -82 -59.5t-98 -19.5zM124 532l-13 13l146 167h50l146 -167l-12 -13l-165 86h12zM376 729q-25 0 -52 13.5t-52 27t-47 13.5q-41 0 -59 -43l-21 4q14 122 86 122
q26 0 52 -13.5t51.5 -27t47.5 -13.5q41 0 59 43l20 -5q-14 -121 -85 -121z" />
    <glyph glyph-name="uni1EAC" unicode="&#x1eac;" horiz-adv-x="722" 
d="M2 0v17l84 79l-47 -83l287 677h70l288 -677l-48 84l84 -80v-17h-274v17l124 81l-5 -85l-261 618h40l-207 -618l-11 85l124 -81v-17h-248zM172 211v52h354v-52h-354zM306 603l-71 70v17h110zM362 -223q-34 0 -55.5 20t-21.5 52q0 31 21.5 51.5t55.5 20.5t55 -20.5
t21 -51.5q0 -32 -21 -52t-55 -20zM190 738l-13 13l146 167h50l146 -167l-12 -13l-165 87h12z" />
    <glyph glyph-name="uni1EAD" unicode="&#x1ead;" horiz-adv-x="565" 
d="M412 -12l-27 78h-10v237q0 67 -30 101t-89 34q-31 0 -59.5 -13t-46.5 -35l5 83h83l-107 -140h-18l-53 114q26 15 59 26t70 17.5t74 6.5q109 0 163.5 -43.5t54.5 -130.5v-238l-41 61l106 -80v-17l-115 -61h-19zM196 -13q-66 0 -107.5 36.5t-41.5 94.5q0 134 210 169
l152 24v-43l-107 -26q-81 -19 -113.5 -42.5t-32.5 -64.5q0 -33 22 -52t61 -19q92 0 151 62v-60h-14q-38 -40 -82 -59.5t-98 -19.5zM283 -223q-34 0 -55.5 20t-21.5 52q0 31 21.5 51.5t55.5 20.5t55 -20.5t21 -51.5q0 -32 -21 -52t-55 -20zM152 553l-17 11l129 209h37
l129 -209l-17 -11l-136 107h12z" />
    <glyph glyph-name="uni1EAE" unicode="&#x1eae;" horiz-adv-x="722" 
d="M2 0v17l84 79l-47 -83l287 677h70l288 -677l-48 84l84 -80v-17h-274v17l124 81l-5 -85l-261 618h40l-207 -618l-11 85l124 -81v-17h-248zM172 211v52h354v-52h-354zM306 603l-71 70v17h110zM350 723q-66 0 -108.5 41.5t-44.5 107.5l17 4q15 -33 52.5 -53t83.5 -20
q47 0 84.5 20t51.5 53l17 -4q-2 -66 -44.5 -107.5t-108.5 -41.5zM303 843l-13 14l157 185h3l77 -92v-4z" />
    <glyph glyph-name="uni1EAF" unicode="&#x1eaf;" horiz-adv-x="565" 
d="M412 -12l-27 78h-10v237q0 67 -30 101t-89 34q-31 0 -59.5 -13t-46.5 -35l5 83h83l-107 -140h-18l-53 114q26 15 59 26t70 17.5t74 6.5q109 0 163.5 -43.5t54.5 -130.5v-238l-41 61l106 -80v-17l-115 -61h-19zM196 -13q-66 0 -107.5 36.5t-41.5 94.5q0 134 210 169
l152 24v-43l-107 -26q-81 -19 -113.5 -42.5t-32.5 -64.5q0 -33 22 -52t61 -19q92 0 151 62v-60h-14q-38 -40 -82 -59.5t-98 -19.5zM282 540q-69 0 -110 48t-41 131l17 2q17 -48 52 -74t82 -26q49 0 83.5 26t51.5 74l17 -2q0 -83 -41 -131t-111 -48zM252 679l-17 10l86 212h3
l102 -67v-3z" />
    <glyph glyph-name="uni1EB0" unicode="&#x1eb0;" horiz-adv-x="722" 
d="M2 0v17l84 79l-47 -83l287 677h70l288 -677l-48 84l84 -80v-17h-274v17l124 81l-5 -85l-261 618h40l-207 -618l-11 85l124 -81v-17h-248zM172 211v52h354v-52h-354zM306 603l-71 70v17h110zM349 723q-67 0 -109.5 41.5t-43.5 107.5l16 4q15 -33 52.5 -53t84.5 -20t84 20
t52 53l16 -4q-1 -66 -43.5 -107.5t-108.5 -41.5zM398 843l-224 103v4l77 92h4l156 -185z" />
    <glyph glyph-name="uni1EB1" unicode="&#x1eb1;" horiz-adv-x="565" 
d="M412 -12l-27 78h-10v237q0 67 -30 101t-89 34q-31 0 -59.5 -13t-46.5 -35l5 83h83l-107 -140h-18l-53 114q26 15 59 26t70 17.5t74 6.5q109 0 163.5 -43.5t54.5 -130.5v-238l-41 61l106 -80v-17l-115 -61h-19zM196 -13q-66 0 -107.5 36.5t-41.5 94.5q0 134 210 169
l152 24v-43l-107 -26q-81 -19 -113.5 -42.5t-32.5 -64.5q0 -33 22 -52t61 -19q92 0 151 62v-60h-14q-38 -40 -82 -59.5t-98 -19.5zM283 540q-69 0 -110 48t-41 131l17 2q17 -48 52 -74t82 -26q49 0 83.5 26t51.5 74l17 -2q0 -83 -41 -131t-111 -48zM315 679l-173 152v3
l101 67h3l86 -212z" />
    <glyph glyph-name="uni1EB2" unicode="&#x1eb2;" horiz-adv-x="722" 
d="M2 0v17l84 79l-47 -83l287 677h70l288 -677l-48 84l84 -80v-17h-274v17l124 81l-5 -85l-261 618h40l-207 -618l-11 85l124 -81v-17h-248zM172 211v52h354v-52h-354zM306 603l-71 70v17h110zM350 723q-66 0 -108.5 41.5t-44.5 107.5l17 4q15 -33 52.5 -53t83.5 -20
q47 0 84.5 20t51.5 53l17 -4q-2 -66 -44.5 -107.5t-108.5 -41.5zM332 837l-6 21q64 8 64 46q0 18 -22 29.5t-60 11.5l-23 86q54 0 93.5 -12t61 -34t21.5 -52q0 -41 -37 -68.5t-92 -27.5z" />
    <glyph glyph-name="uni1EB3" unicode="&#x1eb3;" horiz-adv-x="565" 
d="M412 -12l-27 78h-10v237q0 67 -30 101t-89 34q-31 0 -59.5 -13t-46.5 -35l5 83h83l-107 -140h-18l-53 114q26 15 59 26t70 17.5t74 6.5q109 0 163.5 -43.5t54.5 -130.5v-238l-41 61l106 -80v-17l-115 -61h-19zM196 -13q-66 0 -107.5 36.5t-41.5 94.5q0 134 210 169
l152 24v-43l-107 -26q-81 -19 -113.5 -42.5t-32.5 -64.5q0 -33 22 -52t61 -19q92 0 151 62v-60h-14q-38 -40 -82 -59.5t-98 -19.5zM282 540q-69 0 -110 48t-41 131l17 2q17 -48 52 -74t82 -26q49 0 83.5 26t51.5 74l17 -2q0 -83 -41 -131t-111 -48zM245 682l-6 20
q30 4 46.5 16.5t16.5 29.5q0 23 -23 37t-60 14l-21 83q77 0 124.5 -29t47.5 -74q0 -41 -36 -69t-89 -28z" />
    <glyph glyph-name="uni1EB4" unicode="&#x1eb4;" horiz-adv-x="722" 
d="M2 0v17l84 79l-47 -83l287 677h70l288 -677l-48 84l84 -80v-17h-274v17l124 81l-5 -85l-261 618h40l-207 -618l-11 85l124 -81v-17h-248zM172 211v52h354v-52h-354zM306 603l-71 70v17h110zM350 723q-66 0 -108.5 41.5t-43.5 107.5l16 4q15 -33 52.5 -53t83.5 -20
q47 0 84.5 20t52.5 53l16 -4q-1 -66 -43.5 -107.5t-109.5 -41.5zM428 894q-33 0 -58 9.5t-47.5 18.5t-50.5 9q-23 0 -41 -8.5t-27 -23.5l-20 6q13 59 34.5 85t56.5 26q34 0 58.5 -9.5t47 -18.5t50.5 -9q23 0 41 8.5t27 23.5l19 -6q-12 -58 -33.5 -84.5t-56.5 -26.5z" />
    <glyph glyph-name="uni1EB5" unicode="&#x1eb5;" horiz-adv-x="565" 
d="M412 -12l-27 78h-10v237q0 67 -30 101t-89 34q-31 0 -59.5 -13t-46.5 -35l5 83h83l-107 -140h-18l-53 114q26 15 59 26t70 17.5t74 6.5q109 0 163.5 -43.5t54.5 -130.5v-238l-41 61l106 -80v-17l-115 -61h-19zM196 -13q-66 0 -107.5 36.5t-41.5 94.5q0 134 210 169
l152 24v-43l-107 -26q-81 -19 -113.5 -42.5t-32.5 -64.5q0 -33 22 -52t61 -19q92 0 151 62v-60h-14q-38 -40 -82 -59.5t-98 -19.5zM283 540q-69 0 -110 48t-41 131l17 2q17 -48 52 -74t82 -26q49 0 83.5 26t51.5 74l17 -2q0 -83 -41 -131t-111 -48zM356 740q-24 0 -51 13.5
t-52 27t-47 13.5q-41 0 -60 -43l-20 5q14 121 86 121q26 0 52 -13.5t51 -27t48 -13.5q41 0 59 43l20 -5q-14 -121 -86 -121z" />
    <glyph glyph-name="uni1EB6" unicode="&#x1eb6;" horiz-adv-x="722" 
d="M2 0v17l84 79l-47 -83l287 677h70l288 -677l-48 84l84 -80v-17h-274v17l124 81l-5 -85l-261 618h40l-207 -618l-11 85l124 -81v-17h-248zM172 211v52h354v-52h-354zM306 603l-71 70v17h110zM362 -223q-34 0 -55.5 20t-21.5 52q0 31 21.5 51.5t55.5 20.5t55 -20.5
t21 -51.5q0 -32 -21 -52t-55 -20zM348 747q-66 0 -108.5 41.5t-44.5 107.5l17 4q15 -33 52.5 -53t83.5 -20q47 0 84.5 20t51.5 53l17 -4q-2 -66 -44.5 -107.5t-108.5 -41.5z" />
    <glyph glyph-name="uni1EB7" unicode="&#x1eb7;" horiz-adv-x="565" 
d="M412 -12l-27 78h-10v237q0 67 -30 101t-89 34q-31 0 -59.5 -13t-46.5 -35l5 83h83l-107 -140h-18l-53 114q26 15 59 26t70 17.5t74 6.5q109 0 163.5 -43.5t54.5 -130.5v-238l-41 61l106 -80v-17l-115 -61h-19zM196 -13q-66 0 -107.5 36.5t-41.5 94.5q0 134 210 169
l152 24v-43l-107 -26q-81 -19 -113.5 -42.5t-32.5 -64.5q0 -33 22 -52t61 -19q92 0 151 62v-60h-14q-38 -40 -82 -59.5t-98 -19.5zM283 -223q-34 0 -55.5 20t-21.5 52q0 31 21.5 51.5t55.5 20.5t55 -20.5t21 -51.5q0 -32 -21 -52t-55 -20zM283 560q-70 0 -111 48t-41 131
l17 2q17 -48 52 -74t82 -26q49 0 83.5 26t51.5 74l17 -2q0 -83 -41 -131t-110 -48z" />
    <glyph glyph-name="uni1EB8" unicode="&#x1eb8;" horiz-adv-x="623" 
d="M29 0v17l77 61v534l-77 61v17h191v-690h-191zM195 0v44l340 18v-62h-340zM431 0v42l131 129h18l-6 -171h-143zM450 323l-262 11v43l262 12v-66zM464 258l-84 79v38l84 79h18v-196h-18zM535 628l-340 18v44h340v-62zM549 541l-121 104v45l121 9h13l5 -158h-18zM312 -223
q-34 0 -55.5 20t-21.5 52q0 31 21.5 51.5t55.5 20.5t55 -20.5t21 -51.5q0 -32 -21 -52t-55 -20z" />
    <glyph glyph-name="uni1EB9" unicode="&#x1eb9;" horiz-adv-x="540" 
d="M283 -13q-70 0 -124.5 30.5t-85.5 84t-31 122.5q0 80 33 141.5t90.5 96t132.5 34.5q61 0 106 -29.5t69.5 -84t24.5 -129.5h-383v39l263 25q0 57 -27.5 89.5t-73.5 32.5q-36 0 -64.5 -23.5t-44 -65.5t-15.5 -97q0 -91 44 -141.5t124 -50.5q86 0 142 53l24 -24
q-32 -49 -85 -76t-119 -27zM284 -223q-34 0 -55.5 20t-21.5 52q0 31 21.5 51.5t55.5 20.5t55 -20.5t21 -51.5q0 -32 -21 -52t-55 -20z" />
    <glyph glyph-name="uni1EBA" unicode="&#x1eba;" horiz-adv-x="623" 
d="M29 0v17l77 61v534l-77 61v17h191v-690h-191zM195 0v44l340 18v-62h-340zM431 0v42l131 129h18l-6 -171h-143zM450 323l-262 11v43l262 12v-66zM464 258l-84 79v38l84 79h18v-196h-18zM535 628l-340 18v44h340v-62zM549 541l-121 104v45l121 9h13l5 -158h-18zM270 743
l-5 21q64 8 64 46q0 18 -22.5 29.5t-59.5 11.5l-23 86q54 0 93 -12t61 -34t22 -52q0 -41 -37 -68.5t-93 -27.5z" />
    <glyph glyph-name="uni1EBB" unicode="&#x1ebb;" horiz-adv-x="540" 
d="M283 -13q-70 0 -124.5 30.5t-85.5 84t-31 122.5q0 80 33 141.5t90.5 96t132.5 34.5q61 0 106 -29.5t69.5 -84t24.5 -129.5h-383v39l263 25q0 57 -27.5 89.5t-73.5 32.5q-36 0 -64.5 -23.5t-44 -65.5t-15.5 -97q0 -91 44 -141.5t124 -50.5q86 0 142 53l24 -24
q-32 -49 -85 -76t-119 -27zM251 560l-7 20q30 3 47 15.5t17 30.5q0 23 -23.5 36.5t-59.5 13.5l-22 83q77 0 125 -28.5t48 -73.5q0 -42 -36.5 -69.5t-88.5 -27.5z" />
    <glyph glyph-name="uni1EBC" unicode="&#x1ebc;" horiz-adv-x="623" 
d="M29 0v17l77 61v534l-77 61v17h191v-690h-191zM195 0v44l340 18v-62h-340zM431 0v42l131 129h18l-6 -171h-143zM450 323l-262 11v43l262 12v-66zM464 258l-84 79v38l84 79h18v-196h-18zM535 628l-340 18v44h340v-62zM549 541l-121 104v45l121 9h13l5 -158h-18zM388 751
q-34 0 -61 9t-52.5 18.5t-54.5 9.5q-53 0 -76 -35l-22 6q12 53 41.5 81.5t70.5 28.5q35 0 61.5 -9t52 -18.5t54.5 -9.5q54 0 77 35l21 -6q-11 -52 -41 -81t-71 -29z" />
    <glyph glyph-name="uni1EBD" unicode="&#x1ebd;" horiz-adv-x="540" 
d="M283 -13q-70 0 -124.5 30.5t-85.5 84t-31 122.5q0 80 33 141.5t90.5 96t132.5 34.5q61 0 106 -29.5t69.5 -84t24.5 -129.5h-383v39l263 25q0 57 -27.5 89.5t-73.5 32.5q-36 0 -64.5 -23.5t-44 -65.5t-15.5 -97q0 -91 44 -141.5t124 -50.5q86 0 142 53l24 -24
q-32 -49 -85 -76t-119 -27zM369 559q-34 0 -61 12.5t-52 25.5t-53 13t-47.5 -12.5t-30.5 -36.5l-22 6q13 57 42.5 89.5t69.5 32.5q35 0 61.5 -13t51.5 -25.5t53 -12.5t48 12.5t30 36.5l22 -6q-12 -57 -42 -89.5t-70 -32.5z" />
    <glyph glyph-name="uni1EBE" unicode="&#x1ebe;" horiz-adv-x="623" 
d="M29 0v17l77 61v534l-77 61v17h191v-690h-191zM195 0v44l340 18v-62h-340zM431 0v42l131 129h18l-6 -171h-143zM450 323l-262 11v43l262 12v-66zM464 258l-84 79v38l84 79h18v-196h-18zM535 628l-340 18v44h340v-62zM549 541l-121 104v45l121 9h13l5 -158h-18zM154 721
l-13 13l146 167h50l146 -167l-12 -13l-165 86h12zM432 843l-13 14l156 185h3l77 -92v-4z" />
    <glyph glyph-name="uni1EBF" unicode="&#x1ebf;" horiz-adv-x="540" 
d="M283 -13q-70 0 -124.5 30.5t-85.5 84t-31 122.5q0 80 33 141.5t90.5 96t132.5 34.5q61 0 106 -29.5t69.5 -84t24.5 -129.5h-383v39l263 25q0 57 -27.5 89.5t-73.5 32.5q-36 0 -64.5 -23.5t-44 -65.5t-15.5 -97q0 -91 44 -141.5t124 -50.5q86 0 142 53l24 -24
q-32 -49 -85 -76t-119 -27zM157 553l-17 11l129 209h37l129 -209l-17 -11l-136 107h12zM427 673l-18 10l87 212h3l101 -67v-3z" />
    <glyph glyph-name="uni1EC0" unicode="&#x1ec0;" horiz-adv-x="623" 
d="M29 0v17l77 61v534l-77 61v17h191v-690h-191zM195 0v44l340 18v-62h-340zM431 0v42l131 129h18l-6 -171h-143zM450 323l-262 11v43l262 12v-66zM464 258l-84 79v38l84 79h18v-196h-18zM535 628l-340 18v44h340v-62zM549 541l-121 104v45l121 9h13l5 -158h-18zM154 720
l-13 13l146 167h50l146 -167l-12 -13l-165 86h12zM517 804l-174 175v3l105 60h3l83 -229z" />
    <glyph glyph-name="uni1EC1" unicode="&#x1ec1;" horiz-adv-x="540" 
d="M283 -13q-70 0 -124.5 30.5t-85.5 84t-31 122.5q0 80 33 141.5t90.5 96t132.5 34.5q61 0 106 -29.5t69.5 -84t24.5 -129.5h-383v39l263 25q0 57 -27.5 89.5t-73.5 32.5q-36 0 -64.5 -23.5t-44 -65.5t-15.5 -97q0 -91 44 -141.5t124 -50.5q86 0 142 53l24 -24
q-32 -49 -85 -76t-119 -27zM157 553l-17 11l129 209h37l129 -209l-17 -11l-136 107h12zM448 665l-143 182v3l112 46h3l47 -224z" />
    <glyph glyph-name="uni1EC2" unicode="&#x1ec2;" horiz-adv-x="623" 
d="M29 0v17l77 61v534l-77 61v17h191v-690h-191zM195 0v44l340 18v-62h-340zM431 0v42l131 129h18l-6 -171h-143zM450 323l-262 11v43l262 12v-66zM464 258l-84 79v38l84 79h18v-196h-18zM535 628l-340 18v44h340v-62zM549 541l-121 104v45l121 9h13l5 -158h-18zM154 720
l-13 13l146 167h50l146 -167l-12 -13l-165 86h12zM448 831l-5 20q64 9 64 46q0 19 -22.5 30t-60.5 11l-22 87q53 0 92.5 -12t61 -34t21.5 -52q0 -42 -37 -69t-92 -27z" />
    <glyph glyph-name="uni1EC3" unicode="&#x1ec3;" horiz-adv-x="540" 
d="M283 -13q-70 0 -124.5 30.5t-85.5 84t-31 122.5q0 80 33 141.5t90.5 96t132.5 34.5q61 0 106 -29.5t69.5 -84t24.5 -129.5h-383v39l263 25q0 57 -27.5 89.5t-73.5 32.5q-36 0 -64.5 -23.5t-44 -65.5t-15.5 -97q0 -91 44 -141.5t124 -50.5q86 0 142 53l24 -24
q-32 -49 -85 -76t-119 -27zM157 553l-17 11l129 209h37l129 -209l-17 -11l-136 107h12zM421 678l-6 20q30 4 46.5 16.5t16.5 30.5q0 22 -23 36t-60 14l-21 83q77 0 124.5 -28.5t47.5 -74.5q0 -41 -36 -69t-89 -28z" />
    <glyph glyph-name="uni1EC4" unicode="&#x1ec4;" horiz-adv-x="623" 
d="M29 0v17l77 61v534l-77 61v17h191v-690h-191zM195 0v44l340 18v-62h-340zM431 0v42l131 129h18l-6 -171h-143zM450 323l-262 11v43l262 12v-66zM464 258l-84 79v38l84 79h18v-196h-18zM535 628l-340 18v44h340v-62zM549 541l-121 104v45l121 9h13l5 -158h-18zM154 721
l-13 13l146 167h50l146 -167l-12 -13l-165 86h12zM406 919q-33 0 -57.5 9t-47.5 18.5t-51 9.5q-22 0 -40 -8.5t-28 -24.5l-19 6q12 60 34 85.5t57 25.5q34 0 58 -9t47 -18t51 -9q23 0 40.5 8t27.5 24l19 -6q-12 -58 -33.5 -84.5t-57.5 -26.5z" />
    <glyph glyph-name="uni1EC5" unicode="&#x1ec5;" horiz-adv-x="540" 
d="M283 -13q-70 0 -124.5 30.5t-85.5 84t-31 122.5q0 80 33 141.5t90.5 96t132.5 34.5q61 0 106 -29.5t69.5 -84t24.5 -129.5h-383v39l263 25q0 57 -27.5 89.5t-73.5 32.5q-36 0 -64.5 -23.5t-44 -65.5t-15.5 -97q0 -91 44 -141.5t124 -50.5q86 0 142 53l24 -24
q-32 -49 -85 -76t-119 -27zM129 532l-13 13l146 167h50l146 -167l-12 -13l-165 86h12zM381 729q-25 0 -52 13.5t-52 27t-47 13.5q-41 0 -59 -43l-21 4q14 122 86 122q26 0 52 -13.5t51.5 -27t47.5 -13.5q41 0 59 43l20 -5q-14 -121 -85 -121z" />
    <glyph glyph-name="uni1EC6" unicode="&#x1ec6;" horiz-adv-x="623" 
d="M29 0v17l77 61v534l-77 61v17h191v-690h-191zM195 0v44l340 18v-62h-340zM431 0v42l131 129h18l-6 -171h-143zM450 323l-262 11v43l262 12v-66zM464 258l-84 79v38l84 79h18v-196h-18zM535 628l-340 18v44h340v-62zM549 541l-121 104v45l121 9h13l5 -158h-18zM312 -223
q-34 0 -55.5 20t-21.5 52q0 31 21.5 51.5t55.5 20.5t55 -20.5t21 -51.5q0 -32 -21 -52t-55 -20zM154 738l-13 13l146 167h50l146 -167l-12 -13l-165 87h12z" />
    <glyph glyph-name="uni1EC7" unicode="&#x1ec7;" horiz-adv-x="540" 
d="M283 -13q-70 0 -124.5 30.5t-85.5 84t-31 122.5q0 80 33 141.5t90.5 96t132.5 34.5q61 0 106 -29.5t69.5 -84t24.5 -129.5h-383v39l263 25q0 57 -27.5 89.5t-73.5 32.5q-36 0 -64.5 -23.5t-44 -65.5t-15.5 -97q0 -91 44 -141.5t124 -50.5q86 0 142 53l24 -24
q-32 -49 -85 -76t-119 -27zM284 -223q-34 0 -55.5 20t-21.5 52q0 31 21.5 51.5t55.5 20.5t55 -20.5t21 -51.5q0 -32 -21 -52t-55 -20zM157 553l-17 11l129 209h37l129 -209l-17 -11l-136 107h12z" />
    <glyph glyph-name="uni1EC8" unicode="&#x1ec8;" horiz-adv-x="327" 
d="M29 0v17l77 61v534l-77 61v17h269v-17l-78 -61v-534l78 -61v-17h-269zM121 743l-5 21q64 8 64 46q0 18 -22.5 29.5t-59.5 11.5l-23 86q54 0 93 -12t61 -34t22 -52q0 -41 -37 -68.5t-93 -27.5z" />
    <glyph glyph-name="uni1EC9" unicode="&#x1ec9;" horiz-adv-x="302" 
d="M34 0v15l87 71l-16 -28v332l43 -65l-115 89v17l153 58h25v-433l-15 29l86 -70v-15h-248zM123 560l-7 20q30 3 47 15.5t17 30.5q0 23 -23.5 36.5t-59.5 13.5l-22 83q77 0 125 -28.5t48 -73.5q0 -42 -36.5 -69.5t-88.5 -27.5z" />
    <glyph glyph-name="uni1ECA" unicode="&#x1eca;" horiz-adv-x="327" 
d="M29 0v17l77 61v534l-77 61v17h269v-17l-78 -61v-534l78 -61v-17h-269zM164 -223q-34 0 -55.5 20t-21.5 52q0 31 21.5 51.5t55.5 20.5t55 -20.5t21 -51.5q0 -32 -21 -52t-55 -20z" />
    <glyph glyph-name="uni1ECB" unicode="&#x1ecb;" horiz-adv-x="302" 
d="M151 -223q-34 0 -55.5 20t-21.5 52q0 31 21.5 51.5t55.5 20.5t55 -20.5t21 -51.5q0 -32 -21 -52t-55 -20zM34 0v15l87 71l-16 -28v332l43 -65l-115 89v17l153 58h25v-433l-15 29l86 -70v-15h-248zM160 560q-35 0 -56 20t-21 52q0 31 21 51t56 20q34 0 55 -20t21 -51
q0 -32 -21 -52t-55 -20z" />
    <glyph glyph-name="uni1ECC" unicode="&#x1ecc;" horiz-adv-x="785" 
d="M386 -16q-101 0 -179 44.5t-121 124.5t-43 185q0 109 45 192t125 129.5t186 46.5q102 0 179.5 -44.5t120.5 -124t43 -185.5q0 -109 -45 -192t-125 -129.5t-186 -46.5zM403 44q66 0 114 35t74 99t26 153q0 97 -29 167.5t-81.5 109t-124.5 38.5q-66 0 -114.5 -34.5
t-74.5 -99t-26 -153.5q0 -96 29 -167t82 -109.5t125 -38.5zM387 -223q-34 0 -55.5 20t-21.5 52q0 31 21.5 51.5t55.5 20.5t55 -20.5t21 -51.5q0 -32 -21 -52t-55 -20z" />
    <glyph glyph-name="uni1ECD" unicode="&#x1ecd;" horiz-adv-x="604" 
d="M297 -13q-75 0 -132.5 31.5t-90 88t-32.5 129.5q0 77 34 135.5t93.5 91.5t137.5 33q76 0 133 -31.5t89.5 -87t32.5 -129.5q0 -76 -34 -135t-93 -92.5t-138 -33.5zM309 44q42 0 73.5 23t49.5 64.5t18 96.5q0 64 -19.5 111.5t-54 73.5t-81.5 26q-41 0 -73 -23t-50 -64.5
t-18 -95.5q0 -64 19.5 -111.5t54 -74t81.5 -26.5zM302 -223q-34 0 -55.5 20t-21.5 52q0 31 21.5 51.5t55.5 20.5t55 -20.5t21 -51.5q0 -32 -21 -52t-55 -20z" />
    <glyph glyph-name="uni1ECE" unicode="&#x1ece;" horiz-adv-x="785" 
d="M386 -16q-101 0 -179 44.5t-121 124.5t-43 185q0 109 45 192t125 129.5t186 46.5q102 0 179.5 -44.5t120.5 -124t43 -185.5q0 -109 -45 -192t-125 -129.5t-186 -46.5zM403 44q66 0 114 35t74 99t26 153q0 97 -29 167.5t-81.5 109t-124.5 38.5q-66 0 -114.5 -34.5
t-74.5 -99t-26 -153.5q0 -96 29 -167t82 -109.5t125 -38.5zM351 743l-5 21q64 8 64 46q0 18 -22.5 29.5t-59.5 11.5l-23 86q54 0 93 -12t61 -34t22 -52q0 -41 -37 -68.5t-93 -27.5z" />
    <glyph glyph-name="uni1ECF" unicode="&#x1ecf;" horiz-adv-x="604" 
d="M297 -13q-75 0 -132.5 31.5t-90 88t-32.5 129.5q0 77 34 135.5t93.5 91.5t137.5 33q76 0 133 -31.5t89.5 -87t32.5 -129.5q0 -76 -34 -135t-93 -92.5t-138 -33.5zM309 44q42 0 73.5 23t49.5 64.5t18 96.5q0 64 -19.5 111.5t-54 73.5t-81.5 26q-41 0 -73 -23t-50 -64.5
t-18 -95.5q0 -64 19.5 -111.5t54 -74t81.5 -26.5zM265 560l-7 20q30 3 47 15.5t17 30.5q0 23 -23.5 36.5t-59.5 13.5l-22 83q77 0 125 -28.5t48 -73.5q0 -42 -36.5 -69.5t-88.5 -27.5z" />
    <glyph glyph-name="uni1ED0" unicode="&#x1ed0;" horiz-adv-x="785" 
d="M386 -16q-101 0 -179 44.5t-121 124.5t-43 185q0 109 45 192t125 129.5t186 46.5q102 0 179.5 -44.5t120.5 -124t43 -185.5q0 -109 -45 -192t-125 -129.5t-186 -46.5zM403 44q66 0 114 35t74 99t26 153q0 97 -29 167.5t-81.5 109t-124.5 38.5q-66 0 -114.5 -34.5
t-74.5 -99t-26 -153.5q0 -96 29 -167t82 -109.5t125 -38.5zM235 721l-13 13l146 167h50l146 -167l-12 -13l-165 86h12zM513 843l-13 14l156 185h3l77 -92v-4z" />
    <glyph glyph-name="uni1ED1" unicode="&#x1ed1;" horiz-adv-x="604" 
d="M297 -13q-75 0 -132.5 31.5t-90 88t-32.5 129.5q0 77 34 135.5t93.5 91.5t137.5 33q76 0 133 -31.5t89.5 -87t32.5 -129.5q0 -76 -34 -135t-93 -92.5t-138 -33.5zM309 44q42 0 73.5 23t49.5 64.5t18 96.5q0 64 -19.5 111.5t-54 73.5t-81.5 26q-41 0 -73 -23t-50 -64.5
t-18 -95.5q0 -64 19.5 -111.5t54 -74t81.5 -26.5zM172 553l-17 11l129 209h37l129 -209l-17 -11l-136 107h12zM442 673l-18 10l87 212h3l101 -67v-3z" />
    <glyph glyph-name="uni1ED2" unicode="&#x1ed2;" horiz-adv-x="785" 
d="M386 -16q-101 0 -179 44.5t-121 124.5t-43 185q0 109 45 192t125 129.5t186 46.5q102 0 179.5 -44.5t120.5 -124t43 -185.5q0 -109 -45 -192t-125 -129.5t-186 -46.5zM403 44q66 0 114 35t74 99t26 153q0 97 -29 167.5t-81.5 109t-124.5 38.5q-66 0 -114.5 -34.5
t-74.5 -99t-26 -153.5q0 -96 29 -167t82 -109.5t125 -38.5zM235 720l-13 13l146 167h50l146 -167l-12 -13l-165 86h12zM598 804l-174 175v3l105 60h3l83 -229z" />
    <glyph glyph-name="uni1ED3" unicode="&#x1ed3;" horiz-adv-x="604" 
d="M297 -13q-75 0 -132.5 31.5t-90 88t-32.5 129.5q0 77 34 135.5t93.5 91.5t137.5 33q76 0 133 -31.5t89.5 -87t32.5 -129.5q0 -76 -34 -135t-93 -92.5t-138 -33.5zM309 44q42 0 73.5 23t49.5 64.5t18 96.5q0 64 -19.5 111.5t-54 73.5t-81.5 26q-41 0 -73 -23t-50 -64.5
t-18 -95.5q0 -64 19.5 -111.5t54 -74t81.5 -26.5zM172 553l-17 11l129 209h37l129 -209l-17 -11l-136 107h12zM463 665l-143 182v3l112 46h3l47 -224z" />
    <glyph glyph-name="uni1ED4" unicode="&#x1ed4;" horiz-adv-x="785" 
d="M386 -16q-101 0 -179 44.5t-121 124.5t-43 185q0 109 45 192t125 129.5t186 46.5q102 0 179.5 -44.5t120.5 -124t43 -185.5q0 -109 -45 -192t-125 -129.5t-186 -46.5zM403 44q66 0 114 35t74 99t26 153q0 97 -29 167.5t-81.5 109t-124.5 38.5q-66 0 -114.5 -34.5
t-74.5 -99t-26 -153.5q0 -96 29 -167t82 -109.5t125 -38.5zM235 720l-13 13l146 167h50l146 -167l-12 -13l-165 86h12zM529 831l-5 20q64 9 64 46q0 19 -22.5 30t-60.5 11l-22 87q53 0 92.5 -12t61 -34t21.5 -52q0 -42 -37 -69t-92 -27z" />
    <glyph glyph-name="uni1ED5" unicode="&#x1ed5;" horiz-adv-x="604" 
d="M297 -13q-75 0 -132.5 31.5t-90 88t-32.5 129.5q0 77 34 135.5t93.5 91.5t137.5 33q76 0 133 -31.5t89.5 -87t32.5 -129.5q0 -76 -34 -135t-93 -92.5t-138 -33.5zM309 44q42 0 73.5 23t49.5 64.5t18 96.5q0 64 -19.5 111.5t-54 73.5t-81.5 26q-41 0 -73 -23t-50 -64.5
t-18 -95.5q0 -64 19.5 -111.5t54 -74t81.5 -26.5zM172 553l-17 11l129 209h37l129 -209l-17 -11l-136 107h12zM436 678l-6 20q30 4 46.5 16.5t16.5 30.5q0 22 -23 36t-60 14l-21 83q77 0 124.5 -28.5t47.5 -74.5q0 -41 -36 -69t-89 -28z" />
    <glyph glyph-name="uni1ED6" unicode="&#x1ed6;" horiz-adv-x="785" 
d="M386 -16q-101 0 -179 44.5t-121 124.5t-43 185q0 109 45 192t125 129.5t186 46.5q102 0 179.5 -44.5t120.5 -124t43 -185.5q0 -109 -45 -192t-125 -129.5t-186 -46.5zM403 44q66 0 114 35t74 99t26 153q0 97 -29 167.5t-81.5 109t-124.5 38.5q-66 0 -114.5 -34.5
t-74.5 -99t-26 -153.5q0 -96 29 -167t82 -109.5t125 -38.5zM235 721l-13 13l146 167h50l146 -167l-12 -13l-165 86h12zM487 919q-33 0 -57.5 9t-47.5 18.5t-51 9.5q-22 0 -40 -8.5t-28 -24.5l-19 6q12 60 34 85.5t57 25.5q34 0 58 -9t47 -18t51 -9q23 0 40.5 8t27.5 24
l19 -6q-12 -58 -33.5 -84.5t-57.5 -26.5z" />
    <glyph glyph-name="uni1ED7" unicode="&#x1ed7;" horiz-adv-x="604" 
d="M297 -13q-75 0 -132.5 31.5t-90 88t-32.5 129.5q0 77 34 135.5t93.5 91.5t137.5 33q76 0 133 -31.5t89.5 -87t32.5 -129.5q0 -76 -34 -135t-93 -92.5t-138 -33.5zM309 44q42 0 73.5 23t49.5 64.5t18 96.5q0 64 -19.5 111.5t-54 73.5t-81.5 26q-41 0 -73 -23t-50 -64.5
t-18 -95.5q0 -64 19.5 -111.5t54 -74t81.5 -26.5zM144 532l-13 13l146 167h50l146 -167l-12 -13l-165 86h12zM396 729q-25 0 -52 13.5t-52 27t-47 13.5q-41 0 -59 -43l-21 4q14 122 86 122q26 0 52 -13.5t51.5 -27t47.5 -13.5q41 0 59 43l20 -5q-14 -121 -85 -121z" />
    <glyph glyph-name="uni1ED8" unicode="&#x1ed8;" horiz-adv-x="785" 
d="M386 -16q-101 0 -179 44.5t-121 124.5t-43 185q0 109 45 192t125 129.5t186 46.5q102 0 179.5 -44.5t120.5 -124t43 -185.5q0 -109 -45 -192t-125 -129.5t-186 -46.5zM403 44q66 0 114 35t74 99t26 153q0 97 -29 167.5t-81.5 109t-124.5 38.5q-66 0 -114.5 -34.5
t-74.5 -99t-26 -153.5q0 -96 29 -167t82 -109.5t125 -38.5zM387 -223q-34 0 -55.5 20t-21.5 52q0 31 21.5 51.5t55.5 20.5t55 -20.5t21 -51.5q0 -32 -21 -52t-55 -20zM235 738l-13 13l146 167h50l146 -167l-12 -13l-165 87h12z" />
    <glyph glyph-name="uni1ED9" unicode="&#x1ed9;" horiz-adv-x="604" 
d="M297 -13q-75 0 -132.5 31.5t-90 88t-32.5 129.5q0 77 34 135.5t93.5 91.5t137.5 33q76 0 133 -31.5t89.5 -87t32.5 -129.5q0 -76 -34 -135t-93 -92.5t-138 -33.5zM309 44q42 0 73.5 23t49.5 64.5t18 96.5q0 64 -19.5 111.5t-54 73.5t-81.5 26q-41 0 -73 -23t-50 -64.5
t-18 -95.5q0 -64 19.5 -111.5t54 -74t81.5 -26.5zM302 -223q-34 0 -55.5 20t-21.5 52q0 31 21.5 51.5t55.5 20.5t55 -20.5t21 -51.5q0 -32 -21 -52t-55 -20zM172 553l-17 11l129 209h37l129 -209l-17 -11l-136 107h12z" />
    <glyph glyph-name="uni1EDA" unicode="&#x1eda;" horiz-adv-x="785" 
d="M386 -16q-101 0 -179 44.5t-121 124.5t-43 185q0 109 45 192t125 129.5t186 46.5q102 0 179.5 -44.5t120.5 -124t43 -185.5q0 -109 -45 -192t-125 -129.5t-186 -46.5zM403 44q66 0 114 35t74 99t26 153q0 97 -29 167.5t-81.5 109t-124.5 38.5q-66 0 -114.5 -34.5
t-74.5 -99t-26 -153.5q0 -96 29 -167t82 -109.5t125 -38.5zM578 826l103 26q19 -58 7.5 -101t-49.5 -67t-99 -24h-95v30h59q58 0 76 34t-2 102zM322 738l-13 14l157 185h3l77 -93v-3z" />
    <glyph glyph-name="uni1EDB" unicode="&#x1edb;" horiz-adv-x="604" 
d="M297 -13q-75 0 -132.5 31.5t-90 88t-32.5 129.5q0 77 34 135.5t93.5 91.5t137.5 33q76 0 133 -31.5t89.5 -87t32.5 -129.5q0 -76 -34 -135t-93 -92.5t-138 -33.5zM309 44q42 0 73.5 23t49.5 64.5t18 96.5q0 64 -19.5 111.5t-54 73.5t-81.5 26q-41 0 -73 -23t-50 -64.5
t-18 -95.5q0 -64 19.5 -111.5t54 -74t81.5 -26.5zM527 580l94 40q63 -152 -124 -224l-52 -20v39l49 20q26 11 38 30.5t10.5 48.5t-15.5 66zM268 552l-17 11l86 212h4l101 -67v-3z" />
    <glyph glyph-name="uni1EDC" unicode="&#x1edc;" horiz-adv-x="785" 
d="M386 -16q-101 0 -179 44.5t-121 124.5t-43 185q0 109 45 192t125 129.5t186 46.5q102 0 179.5 -44.5t120.5 -124t43 -185.5q0 -109 -45 -192t-125 -129.5t-186 -46.5zM403 44q66 0 114 35t74 99t26 153q0 97 -29 167.5t-81.5 109t-124.5 38.5q-66 0 -114.5 -34.5
t-74.5 -99t-26 -153.5q0 -96 29 -167t82 -109.5t125 -38.5zM578 826l103 26q19 -58 7.5 -101t-49.5 -67t-99 -24h-95v30h59q58 0 76.5 34t-2.5 102zM460 738l-224 103v3l77 93h4l156 -185z" />
    <glyph glyph-name="uni1EDD" unicode="&#x1edd;" horiz-adv-x="604" 
d="M297 -13q-75 0 -132.5 31.5t-90 88t-32.5 129.5q0 77 34 135.5t93.5 91.5t137.5 33q76 0 133 -31.5t89.5 -87t32.5 -129.5q0 -76 -34 -135t-93 -92.5t-138 -33.5zM309 44q42 0 73.5 23t49.5 64.5t18 96.5q0 64 -19.5 111.5t-54 73.5t-81.5 26q-41 0 -73 -23t-50 -64.5
t-18 -95.5q0 -64 19.5 -111.5t54 -74t81.5 -26.5zM526 580l94 40q63 -152 -123 -224l-52 -20v39l49 20q26 11 38 30.5t10.5 48.5t-16.5 66zM338 552l-174 153v3l101 67h4l86 -212z" />
    <glyph glyph-name="uni1EDE" unicode="&#x1ede;" horiz-adv-x="785" 
d="M386 -16q-101 0 -179 44.5t-121 124.5t-43 185q0 109 45 192t125 129.5t186 46.5q102 0 179.5 -44.5t120.5 -124t43 -185.5q0 -109 -45 -192t-125 -129.5t-186 -46.5zM403 44q66 0 114 35t74 99t26 153q0 97 -29 167.5t-81.5 109t-124.5 38.5q-66 0 -114.5 -34.5
t-74.5 -99t-26 -153.5q0 -96 29 -167t82 -109.5t125 -38.5zM578 826l103 26q19 -58 7.5 -101t-49.5 -67t-99 -24h-95v30h59q58 0 76 34t-2 102zM351 743l-5 21q64 8 64 46q0 18 -22.5 29.5t-59.5 11.5l-23 86q54 0 93 -12t61 -34t22 -52q0 -41 -37 -68.5t-93 -27.5z" />
    <glyph glyph-name="uni1EDF" unicode="&#x1edf;" horiz-adv-x="604" 
d="M297 -13q-75 0 -132.5 31.5t-90 88t-32.5 129.5q0 77 34 135.5t93.5 91.5t137.5 33q76 0 133 -31.5t89.5 -87t32.5 -129.5q0 -76 -34 -135t-93 -92.5t-138 -33.5zM309 44q42 0 73.5 23t49.5 64.5t18 96.5q0 64 -19.5 111.5t-54 73.5t-81.5 26q-41 0 -73 -23t-50 -64.5
t-18 -95.5q0 -64 19.5 -111.5t54 -74t81.5 -26.5zM527 580l94 40q63 -152 -124 -224l-52 -20v39l49 20q26 11 38 30.5t10.5 48.5t-15.5 66zM265 560l-7 20q30 3 47 15.5t17 30.5q0 23 -23.5 36.5t-59.5 13.5l-22 83q77 0 125 -28.5t48 -73.5q0 -42 -36.5 -69.5t-88.5 -27.5z
" />
    <glyph glyph-name="uni1EE0" unicode="&#x1ee0;" horiz-adv-x="785" 
d="M386 -16q-101 0 -179 44.5t-121 124.5t-43 185q0 109 45 192t125 129.5t186 46.5q102 0 179.5 -44.5t120.5 -124t43 -185.5q0 -109 -45 -192t-125 -129.5t-186 -46.5zM403 44q66 0 114 35t74 99t26 153q0 97 -29 167.5t-81.5 109t-124.5 38.5q-66 0 -114.5 -34.5
t-74.5 -99t-26 -153.5q0 -96 29 -167t82 -109.5t125 -38.5zM578 826l103 26q19 -58 7.5 -101t-49.5 -67t-99 -24h-95v30h59q58 0 76 34t-2 102zM445 748q-33 0 -57.5 9.5t-47.5 18.5t-51 9q-22 0 -40 -8.5t-28 -23.5l-19 6q12 59 34 85t57 26q34 0 58 -9.5t47 -18.5t51 -9
q23 0 40.5 8.5t27.5 23.5l19 -6q-12 -58 -33.5 -84.5t-57.5 -26.5z" />
    <glyph glyph-name="uni1EE1" unicode="&#x1ee1;" horiz-adv-x="604" 
d="M297 -13q-75 0 -132.5 31.5t-90 88t-32.5 129.5q0 77 34 135.5t93.5 91.5t137.5 33q76 0 133 -31.5t89.5 -87t32.5 -129.5q0 -76 -34 -135t-93 -92.5t-138 -33.5zM309 44q42 0 73.5 23t49.5 64.5t18 96.5q0 64 -19.5 111.5t-54 73.5t-81.5 26q-41 0 -73 -23t-50 -64.5
t-18 -95.5q0 -64 19.5 -111.5t54 -74t81.5 -26.5zM527 580l94 40q63 -152 -124 -224l-52 -20v39l49 20q26 11 38 30.5t10.5 48.5t-15.5 66zM384 559q-34 0 -61 12.5t-52 25.5t-53 13t-47.5 -12.5t-30.5 -36.5l-22 6q13 57 42.5 89.5t69.5 32.5q35 0 61.5 -13t51.5 -25.5
t53 -12.5t48 12.5t30 36.5l22 -6q-12 -57 -42 -89.5t-70 -32.5z" />
    <glyph glyph-name="uni1EE2" unicode="&#x1ee2;" horiz-adv-x="785" 
d="M386 -16q-101 0 -179 44.5t-121 124.5t-43 185q0 109 45 192t125 129.5t186 46.5q102 0 179.5 -44.5t120.5 -124t43 -185.5q0 -109 -45 -192t-125 -129.5t-186 -46.5zM403 44q66 0 114 35t74 99t26 153q0 97 -29 167.5t-81.5 109t-124.5 38.5q-66 0 -114.5 -34.5
t-74.5 -99t-26 -153.5q0 -96 29 -167t82 -109.5t125 -38.5zM578 826l103 26q19 -58 7.5 -101t-49.5 -67t-99 -24h-95v30h59q58 0 76 34t-2 102zM387 -223q-34 0 -55.5 20t-21.5 52q0 31 21.5 51.5t55.5 20.5t55 -20.5t21 -51.5q0 -32 -21 -52t-55 -20z" />
    <glyph glyph-name="uni1EE3" unicode="&#x1ee3;" horiz-adv-x="604" 
d="M297 -13q-75 0 -132.5 31.5t-90 88t-32.5 129.5q0 77 34 135.5t93.5 91.5t137.5 33q76 0 133 -31.5t89.5 -87t32.5 -129.5q0 -76 -34 -135t-93 -92.5t-138 -33.5zM309 44q42 0 73.5 23t49.5 64.5t18 96.5q0 64 -19.5 111.5t-54 73.5t-81.5 26q-41 0 -73 -23t-50 -64.5
t-18 -95.5q0 -64 19.5 -111.5t54 -74t81.5 -26.5zM527 580l94 40q63 -152 -124 -224l-52 -20v39l49 20q26 11 38 30.5t10.5 48.5t-15.5 66zM302 -223q-34 0 -55.5 20t-21.5 52q0 31 21.5 51.5t55.5 20.5t55 -20.5t21 -51.5q0 -32 -21 -52t-55 -20z" />
    <glyph glyph-name="uni1EE4" unicode="&#x1ee4;" horiz-adv-x="708" 
d="M549 607l-89 66v17h246v-17l-78 -66v-326q0 -94 -31.5 -160.5t-90.5 -101.5t-142 -35q-141 0 -213 69t-72 206v353l-77 61v17h268v-17l-77 -61v-325q0 -121 43 -177.5t135 -56.5t135 56.5t43 177.5v320zM355 -223q-34 0 -55.5 20t-21.5 52q0 31 21.5 51.5t55.5 20.5
t55 -20.5t21 -51.5q0 -32 -21 -52t-55 -20z" />
    <glyph glyph-name="uni1EE5" unicode="&#x1ee5;" horiz-adv-x="604" 
d="M241 -13q-77 0 -116 44.5t-39 132.5v237l43 -69l-109 86v17l148 53h25v-294q0 -67 21.5 -96t73.5 -29q41 0 75 18t67 55v-64h-15q-48 -50 -87 -70.5t-87 -20.5zM452 -12l-29 90h-9v324l43 -69l-114 86v16l152 54h25v-404l-41 61l106 -80v-17l-114 -61h-19zM303 -223
q-34 0 -55.5 20t-21.5 52q0 31 21.5 51.5t55.5 20.5t55 -20.5t21 -51.5q0 -32 -21 -52t-55 -20z" />
    <glyph glyph-name="uni1EE6" unicode="&#x1ee6;" horiz-adv-x="708" 
d="M549 607l-89 66v17h246v-17l-78 -66v-326q0 -94 -31.5 -160.5t-90.5 -101.5t-142 -35q-141 0 -213 69t-72 206v353l-77 61v17h268v-17l-77 -61v-325q0 -121 43 -177.5t135 -56.5t135 56.5t43 177.5v320zM326 743l-5 21q64 8 64 46q0 18 -22.5 29.5t-59.5 11.5l-23 86
q54 0 93 -12t61 -34t22 -52q0 -41 -37 -68.5t-93 -27.5z" />
    <glyph glyph-name="uni1EE7" unicode="&#x1ee7;" horiz-adv-x="604" 
d="M241 -13q-77 0 -116 44.5t-39 132.5v237l43 -69l-109 86v17l148 53h25v-294q0 -67 21.5 -96t73.5 -29q41 0 75 18t67 55v-64h-15q-48 -50 -87 -70.5t-87 -20.5zM452 -12l-29 90h-9v324l43 -69l-114 86v16l152 54h25v-404l-41 61l106 -80v-17l-114 -61h-19zM266 560l-7 20
q30 3 47 15.5t17 30.5q0 23 -23.5 36.5t-59.5 13.5l-22 83q77 0 125 -28.5t48 -73.5q0 -42 -36.5 -69.5t-88.5 -27.5z" />
    <glyph glyph-name="uni1EE8" unicode="&#x1ee8;" horiz-adv-x="708" 
d="M364 -16q-141 0 -213 69t-72 206v353l-77 61v17h268v-17l-77 -61v-325q0 -121 43 -177.5t135 -56.5t135 56.5t43 177.5v320l-89 66v17h168v-409q0 -94 -31.5 -160.5t-90.5 -101.5t-142 -35zM641 826l102 26q19 -58 8 -101t-49 -67t-99 -24h-95v30h58q59 0 77 34t-2 102z
M301 738l-13 14l157 185h3l77 -93v-3z" />
    <glyph glyph-name="uni1EE9" unicode="&#x1ee9;" horiz-adv-x="604" 
d="M241 -13q-77 0 -116 44.5t-39 132.5v237l43 -69l-109 86v17l148 53h25v-294q0 -67 21.5 -96t73.5 -29q41 0 75 18t67 55v-64h-15q-48 -50 -87 -70.5t-87 -20.5zM452 -12l-29 90h-9v324l43 -69l-114 86v16l152 54h25v-404l-41 61l106 -80v-17l-114 -61h-19zM552 580l94 40
q63 -152 -124 -224l-52 -20v39l49 20q26 11 38 30.5t10.5 48.5t-15.5 66zM268 552l-17 11l86 212h4l101 -67v-3z" />
    <glyph glyph-name="uni1EEA" unicode="&#x1eea;" horiz-adv-x="708" 
d="M364 -16q-141 0 -213 69t-72 206v353l-77 61v17h268v-17l-77 -61v-325q0 -121 43 -177.5t135 -56.5t135 56.5t43 177.5v320l-89 66v17h168v-409q0 -94 -31.5 -160.5t-90.5 -101.5t-142 -35zM641 826l102 26q19 -58 8 -101t-49 -67t-99 -24h-95v30h58q59 0 77 34t-2 102z
M435 738l-224 103v3l77 93h3l157 -185z" />
    <glyph glyph-name="uni1EEB" unicode="&#x1eeb;" horiz-adv-x="604" 
d="M241 -13q-77 0 -116 44.5t-39 132.5v237l43 -69l-109 86v17l148 53h25v-294q0 -67 21.5 -96t73.5 -29q41 0 75 18t67 55v-64h-15q-48 -50 -87 -70.5t-87 -20.5zM452 -12l-29 90h-9v324l43 -69l-114 86v16l152 54h25v-404l-41 61l106 -80v-17l-114 -61h-19zM551 580l94 40
q63 -152 -123 -224l-52 -20v39l49 20q26 11 38 30.5t10.5 48.5t-16.5 66zM338 552l-173 153v3l101 67h3l86 -212z" />
    <glyph glyph-name="uni1EEC" unicode="&#x1eec;" horiz-adv-x="708" 
d="M364 -16q-141 0 -213 69t-72 206v353l-77 61v17h268v-17l-77 -61v-325q0 -121 43 -177.5t135 -56.5t135 56.5t43 177.5v320l-89 66v17h168v-409q0 -94 -31.5 -160.5t-90.5 -101.5t-142 -35zM641 826l102 26q19 -58 8 -101t-49 -67t-99 -24h-95v30h58q59 0 77 34t-2 102z
M326 743l-5 21q64 8 64 46q0 18 -22.5 29.5t-59.5 11.5l-23 86q54 0 93 -12t61 -34t22 -52q0 -41 -37 -68.5t-93 -27.5z" />
    <glyph glyph-name="uni1EED" unicode="&#x1eed;" horiz-adv-x="604" 
d="M241 -13q-77 0 -116 44.5t-39 132.5v237l43 -69l-109 86v17l148 53h25v-294q0 -67 21.5 -96t73.5 -29q41 0 75 18t67 55v-64h-15q-48 -50 -87 -70.5t-87 -20.5zM452 -12l-29 90h-9v324l43 -69l-114 86v16l152 54h25v-404l-41 61l106 -80v-17l-114 -61h-19zM552 580l94 40
q63 -152 -124 -224l-52 -20v39l49 20q26 11 38 30.5t10.5 48.5t-15.5 66zM266 560l-7 20q30 3 47 15.5t17 30.5q0 23 -23.5 36.5t-59.5 13.5l-22 83q77 0 125 -28.5t48 -73.5q0 -42 -36.5 -69.5t-88.5 -27.5z" />
    <glyph glyph-name="uni1EEE" unicode="&#x1eee;" horiz-adv-x="708" 
d="M364 -16q-141 0 -213 69t-72 206v353l-77 61v17h268v-17l-77 -61v-325q0 -121 43 -177.5t135 -56.5t135 56.5t43 177.5v320l-89 66v17h168v-409q0 -94 -31.5 -160.5t-90.5 -101.5t-142 -35zM641 826l102 26q19 -58 8 -101t-49 -67t-99 -24h-95v30h58q59 0 77 34t-2 102z
M455 748q-33 0 -57.5 9.5t-47.5 18.5t-51 9q-22 0 -40 -8.5t-28 -23.5l-19 6q12 59 34 85t57 26q34 0 58 -9.5t47 -18.5t51 -9q23 0 40.5 8.5t27.5 23.5l19 -6q-12 -58 -33.5 -84.5t-57.5 -26.5z" />
    <glyph glyph-name="uni1EEF" unicode="&#x1eef;" horiz-adv-x="604" 
d="M241 -13q-77 0 -116 44.5t-39 132.5v237l43 -69l-109 86v17l148 53h25v-294q0 -67 21.5 -96t73.5 -29q41 0 75 18t67 55v-64h-15q-48 -50 -87 -70.5t-87 -20.5zM452 -12l-29 90h-9v324l43 -69l-114 86v16l152 54h25v-404l-41 61l106 -80v-17l-114 -61h-19zM552 580l94 40
q63 -152 -124 -224l-52 -20v39l49 20q26 11 38 30.5t10.5 48.5t-15.5 66zM385 559q-34 0 -61 12.5t-52 25.5t-53 13t-47.5 -12.5t-30.5 -36.5l-22 6q13 57 42.5 89.5t69.5 32.5q35 0 61.5 -13t51.5 -25.5t53 -12.5t48 12.5t30 36.5l22 -6q-12 -57 -42 -89.5t-70 -32.5z" />
    <glyph glyph-name="uni1EF0" unicode="&#x1ef0;" horiz-adv-x="708" 
d="M364 -16q-141 0 -213 69t-72 206v353l-77 61v17h268v-17l-77 -61v-325q0 -121 43 -177.5t135 -56.5t135 56.5t43 177.5v320l-89 66v17h168v-409q0 -94 -31.5 -160.5t-90.5 -101.5t-142 -35zM641 826l102 26q19 -58 8 -101t-49 -67t-99 -24h-95v30h58q59 0 77 34t-2 102z
M355 -223q-34 0 -55.5 20t-21.5 52q0 31 21.5 51.5t55.5 20.5t55 -20.5t21 -51.5q0 -32 -21 -52t-55 -20z" />
    <glyph glyph-name="uni1EF1" unicode="&#x1ef1;" horiz-adv-x="604" 
d="M241 -13q-77 0 -116 44.5t-39 132.5v237l43 -69l-109 86v17l148 53h25v-294q0 -67 21.5 -96t73.5 -29q41 0 75 18t67 55v-64h-15q-48 -50 -87 -70.5t-87 -20.5zM452 -12l-29 90h-9v324l43 -69l-114 86v16l152 54h25v-404l-41 61l106 -80v-17l-114 -61h-19zM552 580l94 40
q63 -152 -124 -224l-52 -20v39l49 20q26 11 38 30.5t10.5 48.5t-15.5 66zM303 -223q-34 0 -55.5 20t-21.5 52q0 31 21.5 51.5t55.5 20.5t55 -20.5t21 -51.5q0 -32 -21 -52t-55 -20z" />
    <glyph glyph-name="Ygrave" unicode="&#x1ef2;" horiz-adv-x="686" 
d="M315 206l-288 471l58 -82l-83 78v17h268v-17l-134 -95l17 99l229 -374h-6l169 374l16 -92l-122 88v17h245v-17l-80 -75l56 79l-295 -471h-50zM210 0v17l77 61v208h114v-208l78 -61v-17h-269zM421 738l-224 103v3l77 93h3l157 -185z" />
    <glyph glyph-name="ygrave" unicode="&#x1ef3;" horiz-adv-x="571" 
d="M264 -61l-226 510h36v-64l-72 84v15h228v-15l-69 -68h-11v47l176 -397l-33 -3l149 412v-56h-11l-72 65v15h210v-15l-71 -81v61h37l-356 -700h-18l-94 88v14l199 144zM333 552l-174 153v3l102 67h3l86 -212z" />
    <glyph glyph-name="uni1EF4" unicode="&#x1ef4;" horiz-adv-x="686" 
d="M315 206l-288 471l58 -82l-83 78v17h268v-17l-134 -95l17 99l229 -374h-6l169 374l16 -92l-122 88v17h245v-17l-80 -75l56 79l-295 -471h-50zM210 0v17l77 61v208h114v-208l78 -61v-17h-269zM343 -223q-34 0 -55.5 20t-21.5 52q0 31 21.5 51.5t55.5 20.5t55 -20.5
t21 -51.5q0 -32 -21 -52t-55 -20z" />
    <glyph glyph-name="uni1EF5" unicode="&#x1ef5;" horiz-adv-x="571" 
d="M264 -61l-226 510h36v-64l-72 84v15h228v-15l-69 -68h-11v47l176 -397l-33 -3l149 412v-56h-11l-72 65v15h210v-15l-71 -81v61h37l-356 -700h-18l-94 88v14l199 144zM375 -223q-34 0 -55.5 20t-21.5 52q0 31 21.5 51.5t55.5 20.5t55 -20.5t21 -51.5q0 -32 -21 -52
t-55 -20z" />
    <glyph glyph-name="uni1EF6" unicode="&#x1ef6;" horiz-adv-x="686" 
d="M315 206l-288 471l58 -82l-83 78v17h268v-17l-134 -95l17 99l229 -374h-6l169 374l16 -92l-122 88v17h245v-17l-80 -75l56 79l-295 -471h-50zM210 0v17l77 61v208h114v-208l78 -61v-17h-269zM311 743l-5 21q64 8 64 46q0 18 -22.5 29.5t-59.5 11.5l-23 86q54 0 93 -12
t61 -34t22 -52q0 -41 -37 -68.5t-93 -27.5z" />
    <glyph glyph-name="uni1EF7" unicode="&#x1ef7;" horiz-adv-x="571" 
d="M264 -61l-226 510h36v-64l-72 84v15h228v-15l-69 -68h-11v47l176 -397l-33 -3l149 412v-56h-11l-72 65v15h210v-15l-71 -81v61h37l-356 -700h-18l-94 88v14l199 144zM261 560l-7 20q30 3 47 15.5t17 30.5q0 23 -23.5 36.5t-59.5 13.5l-22 83q77 0 125 -28.5t48 -73.5
q0 -42 -36.5 -69.5t-88.5 -27.5z" />
    <glyph glyph-name="uni1EF8" unicode="&#x1ef8;" horiz-adv-x="686" 
d="M315 206l-288 471l58 -82l-83 78v17h268v-17l-134 -95l17 99l229 -374h-6l169 374l16 -92l-122 88v17h245v-17l-80 -75l56 79l-295 -471h-50zM210 0v17l77 61v208h114v-208l78 -61v-17h-269zM429 751q-34 0 -61 9t-52.5 18.5t-54.5 9.5q-53 0 -76 -35l-22 6
q12 53 41.5 81.5t70.5 28.5q35 0 61.5 -9t52 -18.5t54.5 -9.5q54 0 77 35l21 -6q-11 -52 -41 -81t-71 -29z" />
    <glyph glyph-name="uni1EF9" unicode="&#x1ef9;" horiz-adv-x="571" 
d="M264 -61l-226 510h36v-64l-72 84v15h228v-15l-69 -68h-11v47l176 -397l-33 -3l149 412v-56h-11l-72 65v15h210v-15l-71 -81v61h37l-356 -700h-18l-94 88v14l199 144zM379 559q-34 0 -61 12.5t-52 25.5t-53 13t-47.5 -12.5t-30.5 -36.5l-22 6q13 57 42.5 89.5t69.5 32.5
q35 0 61.5 -13t51.5 -25.5t53 -12.5t48 12.5t30 36.5l22 -6q-12 -57 -42 -89.5t-70 -32.5z" />
    <glyph glyph-name="uni2000" unicode="&#x2000;" horiz-adv-x="500" 
 />
    <glyph glyph-name="uni2001" unicode="&#x2001;" horiz-adv-x="1000" 
 />
    <glyph glyph-name="uni2002" unicode="&#x2002;" horiz-adv-x="500" 
 />
    <glyph glyph-name="uni2003" unicode="&#x2003;" horiz-adv-x="1000" 
 />
    <glyph glyph-name="uni2004" unicode="&#x2004;" horiz-adv-x="333" 
 />
    <glyph glyph-name="uni2005" unicode="&#x2005;" horiz-adv-x="250" 
 />
    <glyph glyph-name="uni2006" unicode="&#x2006;" horiz-adv-x="166" 
 />
    <glyph glyph-name="uni2007" unicode="&#x2007;" horiz-adv-x="690" 
 />
    <glyph glyph-name="uni2008" unicode="&#x2008;" horiz-adv-x="293" 
 />
    <glyph glyph-name="uni2009" unicode="&#x2009;" horiz-adv-x="125" 
 />
    <glyph glyph-name="uni200A" unicode="&#x200a;" horiz-adv-x="70" 
 />
    <glyph glyph-name="uni200B" unicode="&#x200b;" 
 />
    <glyph glyph-name="endash" unicode="&#x2013;" horiz-adv-x="554" 
d="M20 217v64h514v-64h-514z" />
    <glyph glyph-name="emdash" unicode="&#x2014;" horiz-adv-x="949" 
d="M20 217v64h909v-64h-909z" />
    <glyph glyph-name="uni2016" unicode="&#x2016;" horiz-adv-x="329" 
d="M202 -275v1080h51v-1080h-51zM76 -275v1080h51v-1080h-51z" />
    <glyph glyph-name="quoteleft" unicode="&#x2018;" horiz-adv-x="293" 
d="M232 715l8 -29q-39 -14 -62 -44.5t-23 -68.5l74 -51v-12q0 -33 -23 -55.5t-60 -22.5t-60 25.5t-23 66.5q0 47 22 87t60 67.5t87 36.5z" />
    <glyph glyph-name="quoteright" unicode="&#x2019;" horiz-adv-x="293" 
d="M62 422l-9 30q40 14 62.5 44.5t22.5 67.5l-74 52v11q0 35 23.5 57t59.5 22q37 0 60 -26t23 -66q0 -47 -21.5 -87.5t-59.5 -67.5t-87 -37z" />
    <glyph glyph-name="quotesinglbase" unicode="&#x201a;" horiz-adv-x="293" 
d="M62 -142l-9 29q40 15 62.5 45.5t22.5 67.5l-74 51v12q0 35 23.5 57t59.5 22q37 0 60 -26t23 -67q0 -47 -21.5 -87t-59.5 -67.5t-87 -36.5z" />
    <glyph glyph-name="quotedblleft" unicode="&#x201c;" horiz-adv-x="508" 
d="M447 715l8 -29q-39 -14 -62 -44.5t-23 -68.5l74 -51v-12q0 -33 -23 -55.5t-60 -22.5t-60 25.5t-23 66.5q0 47 22 87t60 67.5t87 36.5zM232 715l8 -29q-39 -14 -62 -44.5t-23 -68.5l74 -51v-12q0 -33 -23 -55.5t-60 -22.5t-60 25.5t-23 66.5q0 47 22 87t60 67.5t87 36.5z
" />
    <glyph glyph-name="quotedblright" unicode="&#x201d;" horiz-adv-x="508" 
d="M277 422l-9 30q40 14 62.5 44.5t22.5 67.5l-74 52v11q0 35 23.5 57t59.5 22q37 0 60 -26t23 -66q0 -47 -21.5 -87.5t-59.5 -67.5t-87 -37zM62 422l-9 30q40 14 62.5 44.5t22.5 67.5l-74 52v11q0 35 23.5 57t59.5 22q37 0 60 -26t23 -66q0 -47 -21.5 -87.5t-59.5 -67.5
t-87 -37z" />
    <glyph glyph-name="quotedblbase" unicode="&#x201e;" horiz-adv-x="508" 
d="M277 -142l-9 29q40 15 62.5 45.5t22.5 67.5l-74 51v12q0 35 23.5 57t59.5 22q37 0 60 -26t23 -67q0 -47 -21.5 -87t-59.5 -67.5t-87 -36.5zM62 -142l-9 29q40 15 62.5 45.5t22.5 67.5l-74 51v12q0 35 23.5 57t59.5 22q37 0 60 -26t23 -67q0 -47 -21.5 -87t-59.5 -67.5
t-87 -36.5z" />
    <glyph glyph-name="dagger" unicode="&#x2020;" horiz-adv-x="408" 
d="M198 -85l-41 379q-4 36 -2 59t9 45l24 71l-137 -41l-9 7v101l9 7l137 -42l-45 187l7 9h108l7 -9l-45 -187l137 42l9 -7v-101l-9 -7l-137 41l24 -71q8 -22 10 -45.5t-2 -58.5l-42 -379h-12z" />
    <glyph glyph-name="daggerdbl" unicode="&#x2021;" horiz-adv-x="408" 
d="M150 -85l-7 9l45 187l-137 -42l-9 7v101l9 7l137 -41l-19 71q-12 50 -12 92t12 92l19 71l-137 -41l-9 7v101l9 7l137 -42l-45 187l7 9h108l7 -9l-45 -187l137 42l9 -7v-101l-9 -7l-137 41l19 -71q14 -50 14 -92t-14 -92l-19 -71l137 41l9 -7v-101l-9 -7l-137 42l45 -187
l-7 -9h-108z" />
    <glyph glyph-name="bullet" unicode="&#x2022;" horiz-adv-x="358" 
d="M179 153q-32 0 -58.5 15.5t-42 42t-15.5 58.5q0 33 15.5 59t42 42t58.5 16q33 0 59 -16t41.5 -42t15.5 -58q0 -33 -15.5 -59.5t-41.5 -42t-59 -15.5z" />
    <glyph glyph-name="ellipsis" unicode="&#x2026;" horiz-adv-x="884" 
d="M442 -13q-36 0 -59.5 22t-23.5 55q0 34 23.5 56t59.5 22q37 0 60 -22t23 -56q0 -33 -23 -55t-60 -22zM738 -13q-36 0 -59.5 22t-23.5 55q0 34 23.5 56t59.5 22q37 0 60 -22t23 -56q0 -33 -23 -55t-60 -22zM146 -13q-36 0 -59.5 22t-23.5 55q0 34 23.5 56t59.5 22
q37 0 60 -22t23 -56q0 -33 -23 -55t-60 -22z" />
    <glyph glyph-name="uni202F" unicode="&#x202f;" horiz-adv-x="53" 
 />
    <glyph glyph-name="perthousand" unicode="&#x2030;" horiz-adv-x="1255" 
d="M116 0l566 690h63l-566 -690h-63zM219 317q-52 0 -92 23t-62.5 63.5t-22.5 94.5q0 60 22.5 105.5t62.5 72t92 26.5t91.5 -23t62 -63.5t22.5 -94.5q0 -60 -22.5 -106t-62 -72t-91.5 -26zM219 355q44 0 68 39t24 112q0 74 -25 116t-67 42q-45 0 -69 -39t-24 -112t25 -115.5
t68 -42.5zM643 -12q-52 0 -92 23t-62 63.5t-22 94.5q0 60 22.5 106t62.5 72t91 26q53 0 92 -23t61.5 -63.5t22.5 -94.5q0 -60 -22.5 -105.5t-62 -72t-91.5 -26.5zM643 26q45 0 68.5 39t23.5 112q0 74 -24.5 116t-67.5 42q-45 0 -69 -39t-24 -112t25 -115.5t68 -42.5z
M1036 -12q-52 0 -92 23t-62 63.5t-22 94.5q0 60 22.5 106t62.5 72t91 26q53 0 92.5 -23t61.5 -63.5t22 -94.5q0 -60 -22.5 -105.5t-62 -72t-91.5 -26.5zM1036 26q45 0 69 39t24 112q0 74 -25 116t-68 42q-45 0 -69 -39t-24 -112t25 -115.5t68 -42.5z" />
    <glyph glyph-name="minute" unicode="&#x2032;" horiz-adv-x="238" 
d="M42 509l33 192l4 6h114l3 -6l-114 -192h-40z" />
    <glyph glyph-name="second" unicode="&#x2033;" horiz-adv-x="388" 
d="M192 509l33 192l4 6h114l3 -6l-114 -192h-40zM42 509l33 192l4 6h114l3 -6l-114 -192h-40z" />
    <glyph glyph-name="guilsinglleft" unicode="&#x2039;" horiz-adv-x="280" 
d="M217 136l-197 215v8l197 215l21 -14l-98 -205l98 -205z" />
    <glyph glyph-name="guilsinglright" unicode="&#x203a;" horiz-adv-x="280" 
d="M63 136l-21 14l98 205l-98 205l21 14l197 -215v-8z" />
    <glyph glyph-name="fraction" unicode="&#x2044;" horiz-adv-x="37" 
d="M-296 0l566 690h63l-566 -690h-63z" />
    <glyph glyph-name="uni205F" unicode="&#x205f;" horiz-adv-x="222" 
 />
    <glyph glyph-name="uni2070" unicode="&#x2070;" horiz-adv-x="437" 
d="M219 392q-52 0 -92 23t-62.5 63.5t-22.5 94.5q0 60 22.5 106t62.5 72t92 26t91.5 -23t62 -63.5t22.5 -94.5q0 -60 -22.5 -105.5t-62 -72t-91.5 -26.5zM219 430q44 0 68 39t24 112q0 74 -25 116t-67 42q-45 0 -69 -39t-24 -112t25 -115.5t68 -42.5z" />
    <glyph glyph-name="uni2074" unicode="&#x2074;" horiz-adv-x="369" 
d="M35 498l-10 15l147 252h94v-8l-209 -242l-3 -16zM35 498l18 35h301v-35h-319zM138 404v9l56 33v173h74v-173l57 -33v-9h-187z" />
    <glyph glyph-name="uni2075" unicode="&#x2075;" horiz-adv-x="380" 
d="M181 392q-77 0 -139 43l36 72h9l65 -94l-55 5l-7 59q10 -23 33.5 -36.5t54.5 -13.5q39 0 60 21t21 61q0 36 -22.5 56.5t-63.5 20.5q-48 0 -88 -26l-13 13l13 192h181l47 35h9l-8 -95h-216l32 29l-10 -141l-15 8q19 14 44 21t53 7q61 0 98.5 -31t37.5 -82q0 -55 -44 -89.5
t-113 -34.5z" />
    <glyph glyph-name="uni2076" unicode="&#x2076;" horiz-adv-x="389" 
d="M199 392q-75 0 -116 50t-41 141q0 57 22 101t61 68.5t89 24.5q66 0 123 -34l-38 -70h-10l-54 82l47 2l11 -52q-33 37 -79 37q-43 0 -67.5 -42t-24.5 -115q0 -77 20.5 -118t59.5 -41q30 0 47.5 21.5t17.5 57.5q0 42 -17.5 63t-53.5 21q-28 0 -52.5 -17t-38.5 -48l-7 32
q16 34 48 55t69 21q60 0 96 -31.5t36 -84.5q0 -35 -19.5 -63t-53 -44.5t-75.5 -16.5z" />
    <glyph glyph-name="uni2077" unicode="&#x2077;" horiz-adv-x="329" 
d="M84 404l192 327v-26h-178l-47 -55h-10l-11 115h278l11 -19l-143 -342h-92z" />
    <glyph glyph-name="uni2078" unicode="&#x2078;" horiz-adv-x="396" 
d="M198 392q-69 0 -112.5 28.5t-43.5 73.5q0 38 32.5 62.5t100.5 41.5l4 -18q-29 -11 -45 -32t-16 -47q0 -36 21.5 -55.5t60.5 -19.5q32 0 53 20t21 48q0 22 -16 34.5t-41 20.5t-52.5 16t-52.5 20t-41 33t-16 56q0 45 40.5 74t102.5 29q65 0 103 -24.5t38 -68.5
q0 -31 -32 -54.5t-94 -37.5l-5 15q57 24 57 72q0 29 -19.5 47t-50.5 18q-26 0 -43.5 -17t-17.5 -41q0 -22 16 -34t41 -20t52.5 -16t52.5 -20t41 -33t16 -56q0 -50 -43 -82.5t-112 -32.5z" />
    <glyph glyph-name="uni2079" unicode="&#x2079;" horiz-adv-x="389" 
d="M190 777q75 0 116 -50t41 -141q0 -57 -22 -100.5t-60.5 -68.5t-89.5 -25q-66 0 -122 34l37 70h10l55 -82l-48 -2l-10 52q32 -37 78 -37q43 0 67.5 42t24.5 115q0 78 -20.5 118.5t-59.5 40.5q-29 0 -47 -21t-18 -58q0 -42 18 -63t53 -21q28 0 52.5 17t38.5 48l7 -32
q-15 -34 -47.5 -55t-69.5 -21q-60 0 -96 31.5t-36 84.5q0 35 19.5 63t53 44.5t75.5 16.5z" />
    <glyph glyph-name="uni2080" unicode="&#x2080;" horiz-adv-x="437" 
d="M219 -132q-52 0 -92 23t-62.5 63.5t-22.5 94.5q0 60 22.5 106t62.5 72t92 26t91.5 -23t62 -63.5t22.5 -94.5q0 -60 -22.5 -105.5t-62 -72t-91.5 -26.5zM219 -94q44 0 68 39t24 112q0 74 -25 116t-67 42q-45 0 -69 -39t-24 -112t25 -115.5t68 -42.5z" />
    <glyph glyph-name="uni2081" unicode="&#x2081;" horiz-adv-x="274" 
d="M37 -120v9l66 34v244h-71l-2 8l138 78h8v-330l68 -34v-9h-207z" />
    <glyph glyph-name="uni2082" unicode="&#x2082;" horiz-adv-x="365" 
d="M55 -120l-11 19l69 68q43 42 69 74.5t38 58.5t12 49q0 31 -18.5 50t-46.5 19q-24 0 -45 -9.5t-35 -26.5l10 52h51l-59 -89h-10l-37 71q23 17 59.5 27t71.5 10q64 0 102 -25.5t38 -66.5q0 -22 -12 -46t-40.5 -54t-77.5 -73l-77 -72l1 24h151l55 55h10l-9 -115h-259z" />
    <glyph glyph-name="uni2083" unicode="&#x2083;" horiz-adv-x="377" 
d="M177 -132q-36 0 -72 11t-63 30l37 69h9l62 -92l-52 6l-10 54q23 -43 86 -43q33 0 56 22t23 54q0 34 -25.5 56t-65.5 22v28q84 0 128.5 -25.5t44.5 -73.5q0 -52 -44 -85t-114 -33zM162 74v16q35 0 58 20t23 51q0 26 -18.5 41.5t-49.5 15.5q-45 0 -78 -30l5 52l58 1
l-62 -88h-9l-36 68q48 32 129 32q62 0 100 -24.5t38 -62.5q0 -44 -41.5 -68t-116.5 -24z" />
    <glyph glyph-name="uni2084" unicode="&#x2084;" horiz-adv-x="369" 
d="M35 -26l-10 15l147 252h94v-8l-209 -242l-3 -16zM35 -26l18 35h301v-35h-319zM138 -120v9l56 33v173h74v-173l57 -33v-9h-187z" />
    <glyph glyph-name="uni2085" unicode="&#x2085;" horiz-adv-x="380" 
d="M181 -132q-77 0 -139 43l36 72h9l65 -94l-55 5l-7 59q10 -23 33.5 -36.5t54.5 -13.5q39 0 60 21t21 61q0 36 -22.5 56.5t-63.5 20.5q-48 0 -88 -26l-13 13l13 192h181l47 35h9l-8 -95h-216l32 29l-10 -141l-15 8q19 14 44 21t53 7q61 0 98.5 -31t37.5 -82
q0 -55 -44 -89.5t-113 -34.5z" />
    <glyph glyph-name="uni2086" unicode="&#x2086;" horiz-adv-x="389" 
d="M199 -132q-75 0 -116 50t-41 141q0 57 22 101t61 68.5t89 24.5q66 0 123 -34l-38 -70h-10l-54 82l47 2l11 -52q-33 37 -79 37q-43 0 -67.5 -42t-24.5 -115q0 -77 20.5 -118t59.5 -41q30 0 47.5 21.5t17.5 57.5q0 42 -17.5 63t-53.5 21q-28 0 -52.5 -17t-38.5 -48l-7 32
q16 34 48 55t69 21q60 0 96 -31.5t36 -84.5q0 -35 -19.5 -63t-53 -44.5t-75.5 -16.5z" />
    <glyph glyph-name="uni2087" unicode="&#x2087;" horiz-adv-x="329" 
d="M84 -120l192 327v-26h-178l-47 -55h-10l-11 115h278l11 -19l-143 -342h-92z" />
    <glyph glyph-name="uni2088" unicode="&#x2088;" horiz-adv-x="396" 
d="M198 -132q-69 0 -112.5 28.5t-43.5 73.5q0 38 32.5 62.5t100.5 41.5l4 -18q-29 -11 -45 -32t-16 -47q0 -36 21.5 -55.5t60.5 -19.5q32 0 53 20t21 48q0 22 -16 34.5t-41 20.5t-52.5 16t-52.5 20t-41 33t-16 56q0 45 40.5 74t102.5 29q65 0 103 -24.5t38 -68.5
q0 -31 -32 -54.5t-94 -37.5l-5 15q57 24 57 72q0 29 -19.5 47t-50.5 18q-26 0 -43.5 -17t-17.5 -41q0 -22 16 -34t41 -20t52.5 -16t52.5 -20t41 -33t16 -56q0 -50 -43 -82.5t-112 -32.5z" />
    <glyph glyph-name="uni2089" unicode="&#x2089;" horiz-adv-x="389" 
d="M190 253q75 0 116 -50t41 -141q0 -57 -22 -100.5t-60.5 -68.5t-89.5 -25q-66 0 -122 34l37 70h10l55 -82l-48 -2l-10 52q32 -37 78 -37q43 0 67.5 42t24.5 115q0 78 -20.5 118.5t-59.5 40.5q-29 0 -47 -21t-18 -58q0 -42 18 -63t53 -21q28 0 52.5 17t38.5 48l7 -32
q-15 -34 -47.5 -55t-69.5 -21q-60 0 -96 31.5t-36 84.5q0 35 19.5 63t53 44.5t75.5 16.5z" />
    <glyph glyph-name="colonmonetary" unicode="&#x20a1;" horiz-adv-x="609" 
d="M338 -16q-90 0 -157 41t-102.5 116t-35.5 177q0 108 40 191t112 130t165 47q96 0 206 -58l-64 -124h-18l-111 146h122v-95q-29 38 -60.5 54.5t-75.5 16.5q-92 0 -142 -74t-50 -211q0 -89 25.5 -153.5t72.5 -99t112 -34.5q47 0 84.5 18.5t70.5 58.5l30 -16
q-32 -64 -89.5 -97.5t-134.5 -33.5zM179 -107l146 884h46l-147 -884h-45zM284 -107l147 884h45l-147 -884h-45z" />
    <glyph glyph-name="uni20A6" unicode="&#x20a6;" horiz-adv-x="720" 
d="M569 -5l-435 562v113h48l411 -533l-23 -9l-43 464l-77 61v17h241v-17l-77 -61v-597h-45zM29 0v17l77 61l14 494l-71 81v17h108l37 -592l77 -61v-17h-242zM29 321v46h662v-46h-662z" />
    <glyph glyph-name="uni20A8" unicode="&#x20a8;" horiz-adv-x="1108" 
d="M29 0v17l77 61v514l-77 61v17h191v-592l78 -61v-17h-269zM476 0l-184 307l107 33l196 -327l-87 101l127 -97v-17h-159zM168 279v51h133q69 0 110.5 39.5t41.5 106.5q0 65 -41 103.5t-111 38.5h-151v52h173q119 0 186.5 -49t67.5 -136q0 -89 -65.5 -141.5t-180.5 -52.5h-5
v-12h-158zM847 -13q-38 0 -77.5 7.5t-74.5 20.5t-63 31l53 110h18l97 -137h-73l-5 78q24 -30 56 -43.5t75 -13.5q51 0 82 22t31 56q0 30 -22 46.5t-57 27t-74.5 20.5t-74.5 26t-57 42.5t-22 70.5q0 68 55.5 106.5t152.5 38.5q34 0 68.5 -6t67 -17t58.5 -27l-52 -109h-19
l-104 136h80l5 -78q-18 23 -48.5 36t-63.5 13q-46 0 -73.5 -17.5t-27.5 -47.5q0 -29 22.5 -45t57.5 -26.5t74 -20.5t74 -26t57.5 -43t22.5 -72q0 -76 -57 -117.5t-162 -41.5z" />
    <glyph glyph-name="uni20A9" unicode="&#x20a9;" horiz-adv-x="1012" 
d="M681 -10l-204 543l1 48l-112 72v17h294v-17l-121 -77l8 79l212 -565h-40l150 567l17 -84l-122 80v17h246v-17l-83 -83l47 87l-252 -667h-41zM286 -10l-251 663l43 -81l-76 81v17h260v-17l-122 -81l12 83l212 -565h-39l151 567h103l-252 -667h-41zM49 289v46h910v-46h-910
z" />
    <glyph glyph-name="uni20AA" unicode="&#x20aa;" horiz-adv-x="778" 
d="M428 238v219q0 79 -49 120t-146 41h-110v52h117q148 0 225 -54.5t77 -158.5v-219h-114zM42 0v670h114v-670h-114zM537 0q-147 0 -224.5 54.5t-77.5 158.5v219h114v-219q0 -79 50 -120t146 -41h109v-52h-117zM621 0v670h114v-670h-114z" />
    <glyph glyph-name="dong" unicode="&#x20ab;" horiz-adv-x="543" 
d="M388 95l-28 76h-8v497l43 -65l-115 87v16l153 59h25v-572l-41 60l106 -79v-17l-116 -62h-19zM211 95q-50 0 -88 23.5t-59.5 66t-21.5 97.5q0 62 30 110t82 76t117 28q62 0 120 -35v-80q-30 33 -57.5 47t-66.5 14q-51 0 -83.5 -38t-32.5 -100q0 -64 27.5 -98.5t78.5 -34.5
q34 0 58.5 13t51.5 45v-58h-14q-22 -35 -60 -55.5t-82 -20.5zM221 540v46h302v-46h-302zM62 0v46h461v-46h-461z" />
    <glyph glyph-name="Euro" unicode="&#x20ac;" horiz-adv-x="669" 
d="M399 -16q-91 0 -157.5 41t-102.5 116t-36 177q0 108 40.5 191t112.5 130t165 47q96 0 206 -58l-70 -124h-18l-104 146h120v-95q-28 38 -59.5 54.5t-76.5 16.5q-91 0 -141 -74t-50 -211q0 -89 25 -153.5t72.5 -99t111.5 -34.5q48 0 85.5 18.5t70.5 58.5l29 -16
q-31 -64 -88.5 -97.5t-134.5 -33.5zM43 368v46h463l-15 -46h-448zM43 263v46h427l-16 -46h-411z" />
    <glyph glyph-name="uni20AD" unicode="&#x20ad;" horiz-adv-x="691" 
d="M342 323l-44 28l218 306l-18 -97l-86 93v17h277v-17l-150 -95l89 72zM29 0v17l77 61v514l-77 61v17h269v-17l-78 -61v-514l78 -61v-17h-269zM427 0v17l80 89l16 -91l-250 314l121 23l269 -339l-95 102l121 -98v-17h-262zM29 312v46h547v-46h-547z" />
    <glyph glyph-name="uni20AE" unicode="&#x20ae;" horiz-adv-x="652" 
d="M182 0v17l87 61v545l-95 -8l-113 -110h-18v165h566v-165h-18l-113 110l-95 8v-545l86 -61v-17h-287zM155 170v50l340 155v-50zM155 292v50l340 155v-50z" />
    <glyph glyph-name="uni20B1" unicode="&#x20b1;" horiz-adv-x="620" 
d="M29 0v17l77 61v514l-77 61v17h191v-592l90 -61v-17h-281zM274 238h-106v52h114q67 0 109 45.5t42 119.5q0 75 -41 119t-110 44h-132v52h155q78 0 134 -25t87 -71t31 -108q0 -69 -35.5 -120.5t-98.5 -79.5t-149 -28zM29 486v46h589v-46h-589zM29 376v46h589v-46h-589z" />
    <glyph glyph-name="uni20B2" unicode="&#x20b2;" horiz-adv-x="733" 
d="M383 -16q-104 0 -180.5 41.5t-118 117.5t-41.5 179q0 78 26 144.5t73 115.5t110.5 76.5t137.5 27.5q48 0 96.5 -8.5t91 -24t70.5 -35.5l-72 -120h-18l-121 155h104l4 -89q-28 32 -67.5 47t-92.5 15q-64 0 -113 -35.5t-77 -98.5t-28 -146q0 -141 61 -218t174 -77
q45 0 80.5 18t57 50t24.5 74l35 -20q-10 -55 -40.5 -98t-76 -67t-99.5 -24zM360 -107v884h47v-884h-47zM627 -16l-101 80v187l-64 65v18h242v-18l-64 -59v-273h-13z" />
    </font>
</defs>
</svg>
